{"glyphs":{"0":{"ha":828,"x_min":85,"x_max":743,"o":"m 414 -14 q 169 108 254 -14 q 85 458 85 231 q 169 808 85 686 q 414 931 254 931 q 658 808 574 931 q 743 458 743 686 q 658 108 743 231 q 414 -14 574 -14 m 414 21 q 629 133 554 21 q 704 458 704 246 q 629 783 704 671 q 414 896 554 896 q 199 783 274 896 q 125 458 125 671 q 199 133 125 246 q 414 21 274 21 z "},"1":{"ha":463,"x_min":42,"x_max":333,"o":"m 333 917 l 333 0 l 294 0 l 294 711 q 296 856 294 807 q 190 752 254 796 q 53 686 125 708 l 42 719 q 190 799 118 746 q 296 917 263 851 l 333 917 z "},"2":{"ha":754,"x_min":67,"x_max":690,"o":"m 81 33 q 391 295 288 201 q 555 478 494 389 q 615 657 615 568 q 549 831 615 767 q 367 896 482 896 q 179 824 250 896 q 101 629 108 751 l 67 647 q 155 853 75 776 q 367 931 235 931 q 577 857 500 931 q 654 657 654 783 q 597 472 654 563 q 437 287 540 382 q 140 36 333 192 l 140 35 l 197 35 l 690 35 l 690 0 l 81 0 l 81 33 z "},"3":{"ha":740,"x_min":63,"x_max":654,"o":"m 365 931 q 561 866 490 931 q 632 692 632 801 q 584 539 632 603 q 456 463 536 475 l 456 461 q 599 393 543 456 q 654 238 654 331 q 617 106 654 164 q 514 17 579 49 q 368 -14 449 -14 q 166 42 244 -14 q 63 197 88 99 l 97 218 q 186 74 118 126 q 369 21 254 21 q 546 81 476 21 q 615 242 615 142 q 555 390 615 335 q 385 444 494 444 l 322 444 l 322 481 l 385 481 q 538 538 483 481 q 592 686 592 596 q 532 840 592 785 q 365 896 472 896 q 216 849 278 896 q 131 722 154 803 l 92 742 q 196 880 124 829 q 365 931 268 931 z "},"4":{"ha":779,"x_min":54,"x_max":742,"o":"m 742 276 l 554 276 l 554 0 l 515 0 l 515 276 l 54 276 l 54 307 l 503 917 l 554 917 l 554 310 l 742 310 l 742 276 m 97 310 l 515 310 l 515 785 l 517 881 l 514 881 q 449 785 488 840 l 97 310 z "},"5":{"ha":756,"x_min":72,"x_max":683,"o":"m 397 561 q 546 525 481 561 q 647 424 611 489 q 683 276 683 360 q 646 126 683 192 q 541 23 608 60 q 386 -14 474 -14 q 72 206 122 -14 l 108 222 q 198 71 126 121 q 386 21 269 21 q 520 53 461 21 q 612 143 579 85 q 644 275 644 201 q 574 457 643 388 q 393 526 506 526 q 136 414 219 526 l 101 414 l 146 917 l 647 917 l 647 882 l 178 882 l 142 479 l 140 454 l 142 454 q 397 561 221 561 z "},"6":{"ha":771,"x_min":81,"x_max":699,"o":"m 428 931 q 678 758 615 931 l 642 742 q 567 854 621 813 q 426 896 513 896 q 250 833 319 896 q 149 666 181 769 q 117 440 117 563 q 128 296 117 390 l 132 296 q 172 433 132 374 q 275 523 211 492 q 410 554 339 554 q 622 476 544 554 q 699 269 699 399 q 619 63 699 140 q 404 -14 539 -14 q 163 108 244 -14 q 81 458 81 229 q 125 717 81 611 q 248 877 169 824 q 428 931 326 931 m 408 519 q 276 484 335 519 q 186 392 218 449 q 154 272 154 335 q 185 144 154 201 q 274 55 217 88 q 403 22 331 22 q 590 90 521 22 q 658 272 658 158 q 590 451 658 382 q 408 519 522 519 z "},"7":{"ha":704,"x_min":35,"x_max":685,"o":"m 685 917 l 685 882 q 428 485 517 701 q 321 0 339 268 l 281 0 q 385 481 297 261 q 642 882 474 701 l 35 882 l 35 917 l 685 917 z "},"8":{"ha":794,"x_min":79,"x_max":715,"o":"m 397 931 q 599 868 524 931 q 675 703 675 806 q 626 562 675 619 q 490 483 578 504 l 490 482 q 654 395 593 461 q 715 238 715 329 q 675 107 715 164 q 563 18 635 50 q 397 -14 490 -14 q 232 18 304 -14 q 119 107 160 50 q 79 238 79 164 q 141 397 79 331 q 306 482 203 463 l 306 483 q 169 560 218 503 q 119 703 119 618 q 195 868 119 806 q 397 931 271 931 m 397 894 q 224 842 289 894 q 158 700 158 789 q 224 555 158 610 q 397 500 289 500 q 571 555 506 500 q 636 700 636 610 q 571 842 636 789 q 397 894 506 894 m 397 21 q 542 49 479 21 q 640 126 606 76 q 675 239 675 175 q 640 355 675 304 q 542 434 606 406 q 397 463 479 463 q 253 434 317 463 q 155 355 190 406 q 119 239 119 304 q 154 126 119 175 q 252 49 189 76 q 397 21 315 21 z "},"9":{"ha":801,"x_min":82,"x_max":715,"o":"m 383 931 q 629 807 543 931 q 715 458 715 683 q 626 107 715 228 q 385 -14 536 -14 q 191 40 269 -14 q 89 183 113 93 l 129 204 q 210 70 146 119 q 385 21 275 21 q 609 149 539 21 q 679 469 679 276 q 665 626 679 546 l 663 626 q 622 485 663 544 q 515 394 581 425 q 378 363 449 363 q 163 440 243 363 q 82 647 82 517 q 164 853 82 776 q 383 931 246 931 m 385 894 q 193 826 264 894 q 122 644 122 758 q 192 466 122 533 q 381 399 263 399 q 514 434 454 399 q 608 526 574 469 q 642 644 642 583 q 609 772 642 715 q 518 862 576 829 q 385 894 460 894 z "}," ":{"ha":406,"x_min":0,"x_max":0,"o":""},"A":{"ha":833,"x_min":21,"x_max":813,"o":"m 644 311 l 189 311 l 61 0 l 21 0 l 394 917 l 439 917 l 813 0 l 772 0 l 644 311 m 629 347 l 444 801 l 417 876 l 389 803 l 203 347 l 629 347 z "},"Á":{"ha":833,"x_min":21,"x_max":813,"o":"m 439 1032 l 406 1032 l 504 1238 l 550 1238 l 439 1032 m 644 311 l 189 311 l 61 0 l 21 0 l 394 917 l 439 917 l 813 0 l 772 0 l 644 311 m 629 347 l 444 801 l 417 876 l 389 803 l 203 347 l 629 347 z "},"Ă":{"ha":833,"x_min":21,"x_max":813,"o":"m 644 311 l 189 311 l 61 0 l 21 0 l 394 917 l 439 917 l 813 0 l 772 0 l 644 311 m 629 347 l 444 801 l 417 876 l 389 803 l 203 347 l 629 347 m 592 1203 q 545 1075 592 1122 q 417 1028 499 1028 q 289 1075 336 1028 q 242 1203 242 1122 l 275 1203 q 314 1099 275 1139 q 417 1060 353 1060 q 520 1099 482 1060 q 558 1203 558 1139 l 592 1203 z "},"Â":{"ha":833,"x_min":21,"x_max":813,"o":"m 279 1029 l 242 1029 l 393 1233 l 440 1233 l 593 1029 l 554 1029 l 417 1206 l 279 1029 m 644 311 l 189 311 l 61 0 l 21 0 l 394 917 l 439 917 l 813 0 l 772 0 l 644 311 m 629 347 l 444 801 l 417 876 l 389 803 l 203 347 l 629 347 z "},"Ä":{"ha":833,"x_min":21,"x_max":813,"o":"m 644 311 l 189 311 l 61 0 l 21 0 l 394 917 l 439 917 l 813 0 l 772 0 l 644 311 m 629 347 l 444 801 l 417 876 l 389 803 l 203 347 l 629 347 m 286 1128 q 315 1117 304 1128 q 326 1089 326 1107 q 315 1060 326 1071 q 286 1049 304 1049 q 257 1060 268 1049 q 246 1089 246 1071 q 257 1117 246 1107 q 286 1128 268 1128 m 544 1128 q 573 1117 563 1128 q 583 1089 583 1107 q 573 1060 583 1071 q 544 1049 563 1049 q 515 1060 526 1049 q 504 1089 504 1071 q 515 1117 504 1107 q 544 1128 526 1128 z "},"À":{"ha":833,"x_min":21,"x_max":813,"o":"m 389 1032 l 278 1238 l 324 1238 l 422 1032 l 389 1032 m 644 311 l 189 311 l 61 0 l 21 0 l 394 917 l 439 917 l 813 0 l 772 0 l 644 311 m 629 347 l 444 801 l 417 876 l 389 803 l 203 347 l 629 347 z "},"Ā":{"ha":833,"x_min":21,"x_max":813,"o":"m 644 311 l 189 311 l 61 0 l 21 0 l 394 917 l 439 917 l 813 0 l 772 0 l 644 311 m 629 347 l 444 801 l 417 876 l 389 803 l 203 347 l 629 347 m 625 1060 l 210 1060 l 210 1093 l 625 1093 l 625 1060 z "},"Ą":{"ha":833,"x_min":21,"x_max":831,"o":"m 831 -256 q 728 -283 788 -283 q 634 -253 671 -283 q 597 -169 597 -224 q 636 -69 597 -112 q 767 10 675 -26 l 644 311 l 189 311 l 61 0 l 21 0 l 394 917 l 439 917 l 813 0 q 672 -77 713 -37 q 631 -168 631 -117 q 658 -231 631 -210 q 731 -253 686 -253 q 819 -228 785 -253 l 831 -256 m 629 347 l 444 801 l 417 876 l 389 803 l 203 347 l 629 347 z "},"Å":{"ha":833,"x_min":21,"x_max":813,"o":"m 644 311 l 189 311 l 61 0 l 21 0 l 385 893 q 325 930 347 901 q 303 999 303 958 q 334 1078 303 1049 q 417 1108 365 1108 q 499 1078 468 1108 q 531 999 531 1049 q 508 930 531 958 q 449 893 486 901 l 813 0 l 772 0 l 644 311 m 335 999 q 358 940 335 963 q 417 918 381 918 q 476 940 453 918 q 499 999 499 963 q 476 1058 499 1036 q 417 1081 453 1081 q 358 1058 381 1081 q 335 999 335 1036 m 629 347 l 444 801 l 417 876 l 389 803 l 203 347 l 629 347 z "},"Ã":{"ha":833,"x_min":21,"x_max":813,"o":"m 644 311 l 189 311 l 61 0 l 21 0 l 394 917 l 439 917 l 813 0 l 772 0 l 644 311 m 629 347 l 444 801 l 417 876 l 389 803 l 203 347 l 629 347 m 643 1179 q 602 1082 632 1114 q 518 1050 572 1050 q 457 1063 481 1050 q 407 1101 433 1076 q 363 1135 382 1124 q 317 1146 344 1146 q 256 1123 275 1146 q 225 1049 236 1100 l 192 1049 q 233 1147 203 1115 q 318 1178 263 1178 q 379 1165 356 1178 q 429 1126 403 1151 q 471 1094 451 1106 q 518 1083 490 1083 q 580 1106 560 1083 q 610 1179 600 1129 l 643 1179 z "},"Æ":{"ha":1247,"x_min":-7,"x_max":1200,"o":"m 1200 35 l 1200 0 l 611 0 l 611 342 l 253 342 l 40 0 l -7 0 l 567 917 l 1178 917 l 1178 882 l 650 882 l 650 483 l 1069 483 l 1069 447 l 650 447 l 650 35 l 1200 35 m 611 378 l 611 882 l 586 882 l 274 378 l 611 378 z "},"B":{"ha":857,"x_min":140,"x_max":775,"o":"m 140 917 l 463 917 q 678 857 606 917 q 750 681 750 797 q 705 538 750 594 q 572 464 660 482 l 572 463 q 722 390 668 449 q 775 239 775 332 q 695 61 775 122 q 463 0 615 0 l 140 0 l 140 917 m 463 481 q 647 531 585 481 q 710 679 710 581 q 647 831 710 779 q 463 882 585 882 l 179 882 l 179 481 l 463 481 m 468 35 q 667 87 600 35 q 735 240 735 139 q 667 393 735 342 q 468 444 600 444 l 179 444 l 179 35 l 468 35 z "},"C":{"ha":911,"x_min":81,"x_max":856,"o":"m 856 231 q 724 50 819 114 q 492 -14 628 -14 q 276 44 369 -14 q 132 208 183 101 q 81 458 81 315 q 131 708 81 601 q 275 873 182 815 q 490 931 368 931 q 846 694 775 931 l 808 676 q 492 896 742 896 q 297 842 381 896 q 167 690 214 789 q 121 458 121 592 q 167 226 121 325 q 297 74 214 128 q 492 21 381 21 q 701 79 615 21 q 817 244 786 138 l 856 231 z "},"Ć":{"ha":911,"x_min":81,"x_max":856,"o":"m 613 1238 l 501 1032 l 468 1032 l 567 1238 l 613 1238 m 856 231 q 724 50 819 114 q 492 -14 628 -14 q 276 44 369 -14 q 132 208 183 101 q 81 458 81 315 q 131 708 81 601 q 275 873 182 815 q 490 931 368 931 q 846 694 775 931 l 808 676 q 492 896 742 896 q 297 842 381 896 q 167 690 214 789 q 121 458 121 592 q 167 226 121 325 q 297 74 214 128 q 492 21 381 21 q 701 79 615 21 q 817 244 786 138 l 856 231 z "},"Č":{"ha":911,"x_min":81,"x_max":856,"o":"m 503 1031 l 456 1031 l 304 1235 l 342 1235 l 479 1058 l 617 1235 l 656 1235 l 503 1031 m 856 231 q 724 50 819 114 q 492 -14 628 -14 q 276 44 369 -14 q 132 208 183 101 q 81 458 81 315 q 131 708 81 601 q 275 873 182 815 q 490 931 368 931 q 846 694 775 931 l 808 676 q 492 896 742 896 q 297 842 381 896 q 167 690 214 789 q 121 458 121 592 q 167 226 121 325 q 297 74 214 128 q 492 21 381 21 q 701 79 615 21 q 817 244 786 138 l 856 231 z "},"Ç":{"ha":911,"x_min":81,"x_max":856,"o":"m 856 231 q 732 56 821 119 q 515 -14 643 -7 q 595 -81 571 -44 q 619 -161 619 -118 q 583 -249 619 -215 q 489 -283 547 -283 q 412 -271 444 -283 q 354 -228 379 -258 l 371 -200 q 422 -242 394 -229 q 486 -254 450 -254 q 556 -228 529 -254 q 583 -160 583 -203 q 558 -85 583 -118 q 464 -12 532 -53 q 262 53 349 -7 q 128 217 175 113 q 81 458 81 321 q 131 708 81 601 q 275 873 182 815 q 490 931 368 931 q 846 694 775 931 l 808 676 q 492 896 742 896 q 297 842 381 896 q 167 690 214 789 q 121 458 121 592 q 167 226 121 325 q 297 74 214 128 q 492 21 381 21 q 701 79 615 21 q 817 244 786 138 l 856 231 z "},"D":{"ha":960,"x_min":140,"x_max":878,"o":"m 425 917 q 762 803 646 917 q 878 469 878 689 q 762 119 878 239 q 425 0 646 0 l 140 0 l 140 917 l 425 917 m 426 35 q 733 146 628 35 q 838 469 838 257 q 733 776 838 671 q 426 882 628 882 l 179 882 l 179 35 l 426 35 z "},"Ð":{"ha":972,"x_min":13,"x_max":890,"o":"m 438 917 q 775 803 660 917 q 890 469 890 689 q 775 119 890 239 q 438 0 660 0 l 153 0 l 153 449 l 13 449 l 13 479 l 153 479 l 153 917 l 438 917 m 440 35 q 747 146 642 35 q 851 469 851 257 q 747 776 851 671 q 440 882 642 882 l 192 882 l 192 479 l 476 479 l 476 449 l 192 449 l 192 35 l 440 35 z "},"Ď":{"ha":960,"x_min":140,"x_max":878,"o":"m 410 1031 l 258 1235 l 296 1235 l 433 1058 l 571 1235 l 610 1235 l 457 1031 l 410 1031 m 425 917 q 762 803 646 917 q 878 469 878 689 q 762 119 878 239 q 425 0 646 0 l 140 0 l 140 917 l 425 917 m 426 35 q 733 146 628 35 q 838 469 838 257 q 733 776 838 671 q 426 882 628 882 l 179 882 l 179 35 l 426 35 z "},"Đ":{"ha":972,"x_min":13,"x_max":890,"o":"m 438 917 q 775 803 660 917 q 890 469 890 689 q 775 119 890 239 q 438 0 660 0 l 153 0 l 153 449 l 13 449 l 13 479 l 153 479 l 153 917 l 438 917 m 440 35 q 747 146 642 35 q 851 469 851 257 q 747 776 851 671 q 440 882 642 882 l 192 882 l 192 479 l 476 479 l 476 449 l 192 449 l 192 35 l 440 35 z "},"E":{"ha":824,"x_min":140,"x_max":776,"o":"m 776 35 l 776 0 l 140 0 l 140 917 l 754 917 l 754 882 l 179 882 l 179 485 l 638 485 l 638 450 l 179 450 l 179 35 l 776 35 z "},"É":{"ha":824,"x_min":140,"x_max":776,"o":"m 457 1032 l 422 1032 l 522 1238 l 567 1238 l 457 1032 m 776 35 l 776 0 l 140 0 l 140 917 l 754 917 l 754 882 l 179 882 l 179 485 l 638 485 l 638 450 l 179 450 l 179 35 l 776 35 z "},"Ě":{"ha":824,"x_min":140,"x_max":776,"o":"m 422 1031 l 271 1235 l 308 1235 l 446 1058 l 583 1235 l 622 1235 l 469 1031 l 422 1031 m 776 35 l 776 0 l 140 0 l 140 917 l 754 917 l 754 882 l 179 882 l 179 485 l 638 485 l 638 450 l 179 450 l 179 35 l 776 35 z "},"Ê":{"ha":824,"x_min":140,"x_max":776,"o":"m 308 1029 l 271 1029 l 422 1233 l 469 1233 l 622 1029 l 583 1029 l 446 1206 l 308 1029 m 776 35 l 776 0 l 140 0 l 140 917 l 754 917 l 754 882 l 179 882 l 179 485 l 638 485 l 638 450 l 179 450 l 179 35 l 776 35 z "},"Ë":{"ha":824,"x_min":140,"x_max":776,"o":"m 776 35 l 776 0 l 140 0 l 140 917 l 754 917 l 754 882 l 179 882 l 179 485 l 638 485 l 638 450 l 179 450 l 179 35 l 776 35 m 315 1128 q 344 1117 333 1128 q 356 1089 356 1107 q 344 1060 356 1071 q 315 1049 333 1049 q 286 1060 297 1049 q 275 1089 275 1071 q 286 1117 275 1107 q 315 1128 297 1128 m 574 1128 q 602 1117 592 1128 q 613 1089 613 1107 q 602 1060 613 1071 q 574 1049 592 1049 q 544 1060 556 1049 q 533 1089 533 1071 q 544 1117 533 1107 q 574 1128 556 1128 z "},"Ė":{"ha":824,"x_min":140,"x_max":776,"o":"m 776 35 l 776 0 l 140 0 l 140 917 l 754 917 l 754 882 l 179 882 l 179 485 l 638 485 l 638 450 l 179 450 l 179 35 l 776 35 m 446 1133 q 475 1122 464 1133 q 486 1093 486 1111 q 476 1064 486 1075 q 446 1053 465 1053 q 417 1064 428 1053 q 406 1093 406 1075 q 417 1122 406 1111 q 446 1133 428 1133 z "},"È":{"ha":824,"x_min":140,"x_max":776,"o":"m 444 1032 l 333 1238 l 379 1238 l 478 1032 l 444 1032 m 776 35 l 776 0 l 140 0 l 140 917 l 754 917 l 754 882 l 179 882 l 179 485 l 638 485 l 638 450 l 179 450 l 179 35 l 776 35 z "},"Ē":{"ha":824,"x_min":140,"x_max":776,"o":"m 776 35 l 776 0 l 140 0 l 140 917 l 754 917 l 754 882 l 179 882 l 179 485 l 638 485 l 638 450 l 179 450 l 179 35 l 776 35 m 654 1060 l 239 1060 l 239 1093 l 654 1093 l 654 1060 z "},"Ę":{"ha":824,"x_min":140,"x_max":794,"o":"m 794 -256 q 692 -283 754 -283 q 599 -253 635 -283 q 563 -171 563 -224 q 598 -74 563 -115 q 717 0 633 -33 l 140 0 l 140 917 l 754 917 l 754 882 l 179 882 l 179 485 l 638 485 l 638 450 l 179 450 l 179 35 l 776 35 l 776 0 q 636 -77 676 -37 q 596 -168 596 -117 q 624 -231 596 -210 q 694 -253 651 -253 q 783 -228 751 -253 l 794 -256 z "},"F":{"ha":785,"x_min":140,"x_max":753,"o":"m 179 882 l 179 485 l 638 485 l 638 450 l 179 450 l 179 0 l 140 0 l 140 917 l 753 917 l 753 882 l 179 882 z "},"G":{"ha":951,"x_min":81,"x_max":857,"o":"m 857 438 l 857 0 l 822 0 l 822 194 q 703 41 789 96 q 486 -14 618 -14 q 272 44 364 -14 q 131 208 181 101 q 81 458 81 315 q 132 708 81 601 q 276 873 183 815 q 492 931 369 931 q 723 872 635 931 q 850 694 811 814 l 815 676 q 492 896 746 896 q 297 842 381 896 q 167 690 214 789 q 121 458 121 592 q 165 226 121 325 q 293 74 210 128 q 488 21 376 21 q 680 70 606 21 q 787 192 754 119 q 819 336 819 264 l 819 403 l 493 403 l 493 438 l 857 438 z "},"Ğ":{"ha":951,"x_min":81,"x_max":857,"o":"m 857 438 l 857 0 l 822 0 l 822 194 q 703 41 789 96 q 486 -14 618 -14 q 272 44 364 -14 q 131 208 181 101 q 81 458 81 315 q 132 708 81 601 q 276 873 183 815 q 492 931 369 931 q 723 872 635 931 q 850 694 811 814 l 815 676 q 492 896 746 896 q 297 842 381 896 q 167 690 214 789 q 121 458 121 592 q 165 226 121 325 q 293 74 210 128 q 488 21 376 21 q 680 70 606 21 q 787 192 754 119 q 819 336 819 264 l 819 403 l 493 403 l 493 438 l 857 438 m 660 1203 q 613 1075 660 1122 q 485 1028 567 1028 q 357 1075 404 1028 q 310 1203 310 1122 l 343 1203 q 382 1099 343 1139 q 485 1060 421 1060 q 588 1099 550 1060 q 626 1203 626 1139 l 660 1203 z "},"H":{"ha":976,"x_min":140,"x_max":836,"o":"m 836 917 l 836 0 l 797 0 l 797 450 l 179 450 l 179 0 l 140 0 l 140 917 l 179 917 l 179 485 l 797 485 l 797 917 l 836 917 z "},"I":{"ha":318,"x_min":140,"x_max":179,"o":"m 179 0 l 140 0 l 140 917 l 179 917 l 179 0 z "},"Ĳ":{"ha":1028,"x_min":140,"x_max":897,"o":"m 179 0 l 140 0 l 140 917 l 179 917 l 179 0 m 897 294 q 826 68 897 150 q 619 -14 754 -14 q 430 49 497 -14 q 363 222 363 113 q 367 282 363 251 l 404 296 q 400 235 400 263 q 456 76 400 131 q 619 21 513 21 q 799 94 739 21 q 858 300 858 168 l 858 917 l 897 917 l 897 294 z "},"Í":{"ha":318,"x_min":140,"x_max":292,"o":"m 292 1238 l 181 1032 l 147 1032 l 246 1238 l 292 1238 m 179 0 l 140 0 l 140 917 l 179 917 l 179 0 z "},"Î":{"ha":318,"x_min":-17,"x_max":336,"o":"m 297 1029 l 160 1206 l 22 1029 l -17 1029 l 136 1233 l 183 1233 l 336 1029 l 297 1029 m 179 0 l 140 0 l 140 917 l 179 917 l 179 0 z "},"Ï":{"ha":318,"x_min":31,"x_max":288,"o":"m 71 1128 q 99 1117 89 1128 q 110 1089 110 1107 q 99 1060 110 1071 q 71 1049 89 1049 q 42 1060 53 1049 q 31 1089 31 1071 q 42 1117 31 1107 q 71 1128 53 1128 m 249 1128 q 277 1117 267 1128 q 288 1089 288 1107 q 277 1060 288 1071 q 249 1049 267 1049 q 219 1060 231 1049 q 208 1089 208 1071 q 219 1117 208 1107 q 249 1128 231 1128 m 179 0 l 140 0 l 140 917 l 179 917 l 179 0 z "},"İ":{"ha":318,"x_min":118,"x_max":199,"o":"m 179 0 l 140 0 l 140 917 l 179 917 l 179 0 m 158 1133 q 188 1122 176 1133 q 199 1093 199 1111 q 188 1064 199 1075 q 158 1053 178 1053 q 129 1064 140 1053 q 118 1093 118 1075 q 129 1122 118 1111 q 158 1133 140 1133 z "},"Ì":{"ha":318,"x_min":21,"x_max":179,"o":"m 165 1032 l 132 1032 l 21 1238 l 67 1238 l 165 1032 m 179 0 l 140 0 l 140 917 l 179 917 l 179 0 z "},"Ī":{"ha":318,"x_min":8,"x_max":311,"o":"m 311 1060 l 8 1060 l 8 1093 l 311 1093 l 311 1060 m 179 0 l 140 0 l 140 917 l 179 917 l 179 0 z "},"Į":{"ha":318,"x_min":7,"x_max":228,"o":"m 228 -253 q 184 -276 206 -269 q 133 -283 163 -283 q 44 -251 81 -283 q 7 -165 7 -219 q 38 -78 7 -117 q 140 6 68 -39 l 140 917 l 179 917 l 179 0 q 70 -85 100 -50 q 40 -162 40 -121 q 68 -228 40 -204 q 135 -253 96 -253 q 180 -247 163 -253 q 215 -225 197 -240 l 228 -253 z "},"J":{"ha":710,"x_min":44,"x_max":579,"o":"m 579 294 q 508 68 579 150 q 301 -14 436 -14 q 112 49 179 -14 q 44 222 44 113 q 49 282 44 251 l 86 296 q 82 235 82 263 q 138 76 82 131 q 301 21 194 21 q 481 94 421 21 q 540 300 540 168 l 540 917 l 579 917 l 579 294 z "},"K":{"ha":800,"x_min":140,"x_max":778,"o":"m 376 519 l 179 319 l 179 0 l 140 0 l 140 917 l 179 917 l 179 374 l 713 917 l 765 917 l 406 549 l 778 0 l 729 0 l 376 519 z "},"L":{"ha":768,"x_min":140,"x_max":747,"o":"m 747 35 l 747 0 l 140 0 l 140 917 l 179 917 l 179 35 l 747 35 z "},"Ĺ":{"ha":768,"x_min":140,"x_max":747,"o":"m 181 1032 l 147 1032 l 246 1238 l 292 1238 l 181 1032 m 747 35 l 747 0 l 140 0 l 140 917 l 179 917 l 179 35 l 747 35 z "},"Ľ":{"ha":768,"x_min":140,"x_max":747,"o":"m 369 699 l 339 699 l 374 972 l 413 972 l 369 699 m 747 35 l 747 0 l 140 0 l 140 917 l 179 917 l 179 35 l 747 35 z "},"Ŀ":{"ha":796,"x_min":140,"x_max":747,"o":"m 747 35 l 747 0 l 140 0 l 140 917 l 179 917 l 179 35 l 747 35 m 688 508 q 718 497 707 508 q 729 467 729 486 q 718 437 729 449 q 688 425 707 425 q 658 437 669 425 q 646 467 646 449 q 658 497 646 486 q 688 508 669 508 z "},"Ł":{"ha":789,"x_min":19,"x_max":767,"o":"m 767 35 l 767 0 l 160 0 l 160 378 l 19 290 l 19 335 l 160 422 l 160 917 l 199 917 l 199 446 l 479 621 l 479 576 l 199 401 l 199 35 l 767 35 z "},"M":{"ha":1110,"x_min":140,"x_max":969,"o":"m 969 0 l 932 0 l 932 763 l 935 872 l 575 0 l 535 0 l 175 872 l 174 872 l 178 763 l 178 0 l 140 0 l 140 917 l 196 917 l 528 122 l 554 46 l 556 46 l 582 121 l 914 917 l 969 917 l 969 0 z "},"N":{"ha":975,"x_min":140,"x_max":835,"o":"m 835 0 l 783 0 l 224 797 l 176 876 l 175 876 l 178 783 l 178 0 l 140 0 l 140 917 l 190 917 l 751 119 l 799 42 l 797 133 l 797 917 l 835 917 l 835 0 z "},"Ń":{"ha":975,"x_min":140,"x_max":835,"o":"m 628 1238 l 517 1032 l 483 1032 l 582 1238 l 628 1238 m 835 0 l 783 0 l 224 797 l 176 876 l 175 876 l 178 783 l 178 0 l 140 0 l 140 917 l 190 917 l 751 119 l 799 42 l 797 133 l 797 917 l 835 917 l 835 0 z "},"Ň":{"ha":975,"x_min":140,"x_max":835,"o":"m 518 1031 l 471 1031 l 319 1235 l 357 1235 l 494 1058 l 632 1235 l 671 1235 l 518 1031 m 835 0 l 783 0 l 224 797 l 176 876 l 175 876 l 178 783 l 178 0 l 140 0 l 140 917 l 190 917 l 751 119 l 799 42 l 797 133 l 797 917 l 835 917 l 835 0 z "},"Ñ":{"ha":975,"x_min":140,"x_max":835,"o":"m 835 0 l 783 0 l 224 797 l 176 876 l 175 876 l 178 783 l 178 0 l 140 0 l 140 917 l 190 917 l 751 119 l 799 42 l 797 133 l 797 917 l 835 917 l 835 0 m 721 1179 q 680 1082 710 1114 q 596 1050 650 1050 q 535 1063 558 1050 q 485 1101 511 1076 q 441 1135 460 1124 q 394 1146 422 1146 q 333 1123 353 1146 q 303 1049 314 1100 l 269 1049 q 310 1147 281 1115 q 396 1178 340 1178 q 457 1165 433 1178 q 507 1126 481 1151 q 549 1094 529 1106 q 596 1083 568 1083 q 658 1106 638 1083 q 688 1179 678 1129 l 721 1179 z "},"O":{"ha":1000,"x_min":81,"x_max":919,"o":"m 500 931 q 723 873 628 931 q 869 709 818 815 q 919 458 919 603 q 869 208 919 314 q 723 44 818 101 q 500 -14 628 -14 q 278 44 372 -14 q 132 208 183 101 q 81 458 81 314 q 132 709 81 603 q 278 873 183 815 q 500 931 372 931 m 500 896 q 299 842 385 896 q 167 690 213 789 q 121 458 121 592 q 167 226 121 325 q 299 74 213 128 q 500 21 385 21 q 701 74 615 21 q 833 226 788 128 q 879 458 879 325 q 833 690 879 592 q 701 842 788 789 q 500 896 615 896 z "},"Ó":{"ha":1000,"x_min":81,"x_max":919,"o":"m 633 1238 l 522 1032 l 489 1032 l 588 1238 l 633 1238 m 500 931 q 723 873 628 931 q 869 709 818 815 q 919 458 919 603 q 869 208 919 314 q 723 44 818 101 q 500 -14 628 -14 q 278 44 372 -14 q 132 208 183 101 q 81 458 81 314 q 132 709 81 603 q 278 873 183 815 q 500 931 372 931 m 500 896 q 299 842 385 896 q 167 690 213 789 q 121 458 121 592 q 167 226 121 325 q 299 74 213 128 q 500 21 385 21 q 701 74 615 21 q 833 226 788 128 q 879 458 879 325 q 833 690 879 592 q 701 842 788 789 q 500 896 615 896 z "},"Ô":{"ha":1000,"x_min":81,"x_max":919,"o":"m 638 1029 l 500 1206 l 363 1029 l 325 1029 l 476 1233 l 524 1233 l 676 1029 l 638 1029 m 500 931 q 723 873 628 931 q 869 709 818 815 q 919 458 919 603 q 869 208 919 314 q 723 44 818 101 q 500 -14 628 -14 q 278 44 372 -14 q 132 208 183 101 q 81 458 81 314 q 132 709 81 603 q 278 873 183 815 q 500 931 372 931 m 500 896 q 299 842 385 896 q 167 690 213 789 q 121 458 121 592 q 167 226 121 325 q 299 74 213 128 q 500 21 385 21 q 701 74 615 21 q 833 226 788 128 q 879 458 879 325 q 833 690 879 592 q 701 842 788 789 q 500 896 615 896 z "},"Ö":{"ha":1000,"x_min":81,"x_max":919,"o":"m 500 931 q 723 873 628 931 q 869 709 818 815 q 919 458 919 603 q 869 208 919 314 q 723 44 818 101 q 500 -14 628 -14 q 278 44 372 -14 q 132 208 183 101 q 81 458 81 314 q 132 709 81 603 q 278 873 183 815 q 500 931 372 931 m 500 896 q 299 842 385 896 q 167 690 213 789 q 121 458 121 592 q 167 226 121 325 q 299 74 213 128 q 500 21 385 21 q 701 74 615 21 q 833 226 788 128 q 879 458 879 325 q 833 690 879 592 q 701 842 788 789 q 500 896 615 896 m 371 1128 q 400 1117 389 1128 q 411 1089 411 1107 q 400 1060 411 1071 q 371 1049 389 1049 q 342 1060 353 1049 q 331 1089 331 1071 q 342 1117 331 1107 q 371 1128 353 1128 m 629 1128 q 658 1117 647 1128 q 668 1089 668 1107 q 658 1060 668 1071 q 629 1049 647 1049 q 600 1060 611 1049 q 589 1089 589 1071 q 600 1117 589 1107 q 629 1128 611 1128 z "},"Ò":{"ha":1000,"x_min":81,"x_max":919,"o":"m 506 1032 l 472 1032 l 361 1238 l 407 1238 l 506 1032 m 500 931 q 723 873 628 931 q 869 709 818 815 q 919 458 919 603 q 869 208 919 314 q 723 44 818 101 q 500 -14 628 -14 q 278 44 372 -14 q 132 208 183 101 q 81 458 81 314 q 132 709 81 603 q 278 873 183 815 q 500 931 372 931 m 500 896 q 299 842 385 896 q 167 690 213 789 q 121 458 121 592 q 167 226 121 325 q 299 74 213 128 q 500 21 385 21 q 701 74 615 21 q 833 226 788 128 q 879 458 879 325 q 833 690 879 592 q 701 842 788 789 q 500 896 615 896 z "},"Ő":{"ha":1000,"x_min":81,"x_max":919,"o":"m 532 1238 l 422 1032 l 388 1032 l 488 1238 l 532 1238 m 711 1238 l 601 1032 l 567 1032 l 667 1238 l 711 1238 m 500 931 q 723 873 628 931 q 869 709 818 815 q 919 458 919 603 q 869 208 919 314 q 723 44 818 101 q 500 -14 628 -14 q 278 44 372 -14 q 132 208 183 101 q 81 458 81 314 q 132 709 81 603 q 278 873 183 815 q 500 931 372 931 m 500 896 q 299 842 385 896 q 167 690 213 789 q 121 458 121 592 q 167 226 121 325 q 299 74 213 128 q 500 21 385 21 q 701 74 615 21 q 833 226 788 128 q 879 458 879 325 q 833 690 879 592 q 701 842 788 789 q 500 896 615 896 z "},"Ō":{"ha":1000,"x_min":81,"x_max":919,"o":"m 500 931 q 723 873 628 931 q 869 709 818 815 q 919 458 919 603 q 869 208 919 314 q 723 44 818 101 q 500 -14 628 -14 q 278 44 372 -14 q 132 208 183 101 q 81 458 81 314 q 132 709 81 603 q 278 873 183 815 q 500 931 372 931 m 500 896 q 299 842 385 896 q 167 690 213 789 q 121 458 121 592 q 167 226 121 325 q 299 74 213 128 q 500 21 385 21 q 701 74 615 21 q 833 226 788 128 q 879 458 879 325 q 833 690 879 592 q 701 842 788 789 q 500 896 615 896 m 708 1060 l 293 1060 l 293 1093 l 708 1093 l 708 1060 z "},"Ø":{"ha":1000,"x_min":81,"x_max":919,"o":"m 786 825 q 885 669 850 763 q 919 458 919 576 q 869 208 919 314 q 723 44 818 101 q 500 -14 628 -14 q 242 68 347 -14 l 161 -43 l 119 -43 l 217 90 q 115 246 150 153 q 81 458 81 339 q 132 709 81 603 q 278 873 183 815 q 500 931 372 931 q 761 847 657 931 l 840 957 l 881 957 l 786 825 m 121 458 q 151 265 121 350 q 239 122 182 179 l 739 815 q 500 896 640 896 q 299 842 385 896 q 167 690 213 789 q 121 458 121 592 m 500 21 q 701 74 615 21 q 833 226 788 128 q 879 458 879 325 q 849 651 879 565 q 763 793 819 736 l 264 100 q 500 21 358 21 z "},"Õ":{"ha":1000,"x_min":81,"x_max":919,"o":"m 500 931 q 723 873 628 931 q 869 709 818 815 q 919 458 919 603 q 869 208 919 314 q 723 44 818 101 q 500 -14 628 -14 q 278 44 372 -14 q 132 208 183 101 q 81 458 81 314 q 132 709 81 603 q 278 873 183 815 q 500 931 372 931 m 500 896 q 299 842 385 896 q 167 690 213 789 q 121 458 121 592 q 167 226 121 325 q 299 74 213 128 q 500 21 385 21 q 701 74 615 21 q 833 226 788 128 q 879 458 879 325 q 833 690 879 592 q 701 842 788 789 q 500 896 615 896 m 726 1179 q 685 1082 715 1114 q 601 1050 656 1050 q 540 1063 564 1050 q 490 1101 517 1076 q 447 1135 465 1124 q 400 1146 428 1146 q 339 1123 358 1146 q 308 1049 319 1100 l 275 1049 q 316 1147 286 1115 q 401 1178 346 1178 q 463 1165 439 1178 q 513 1126 486 1151 q 554 1094 535 1106 q 601 1083 574 1083 q 663 1106 643 1083 q 693 1179 683 1129 l 726 1179 z "},"Œ":{"ha":1467,"x_min":81,"x_max":1419,"o":"m 1419 35 l 1419 0 l 821 0 l 821 219 q 478 -14 743 -14 q 268 44 358 -14 q 129 208 178 101 q 81 458 81 315 q 129 708 81 601 q 268 873 178 815 q 478 931 358 931 q 821 697 744 931 l 821 917 l 1396 917 l 1396 882 l 858 882 l 858 485 l 1292 485 l 1292 450 l 858 450 l 858 35 l 1419 35 m 478 21 q 738 129 654 21 q 821 458 821 238 q 738 788 821 679 q 478 896 654 896 q 289 842 369 896 q 165 690 208 789 q 121 458 121 592 q 165 226 121 325 q 289 74 208 128 q 478 21 369 21 z "},"P":{"ha":792,"x_min":140,"x_max":743,"o":"m 431 917 q 660 847 576 917 q 743 656 743 778 q 660 465 743 533 q 431 396 576 396 l 179 396 l 179 0 l 140 0 l 140 917 l 431 917 m 428 431 q 631 490 558 431 q 703 656 703 549 q 631 822 703 763 q 428 882 558 882 l 179 882 l 179 431 l 428 431 z "},"Þ":{"ha":803,"x_min":140,"x_max":744,"o":"m 417 733 q 662 667 579 733 q 744 471 744 600 q 662 276 744 343 q 417 210 579 210 l 179 210 l 179 0 l 140 0 l 140 917 l 179 917 l 179 733 l 417 733 m 429 244 q 704 471 704 244 q 429 699 704 699 l 179 699 l 179 244 l 429 244 z "},"Q":{"ha":1000,"x_min":81,"x_max":919,"o":"m 744 -233 q 893 -182 843 -233 l 908 -217 q 838 -257 881 -243 q 744 -271 796 -271 q 567 -204 636 -271 q 490 -14 497 -137 q 273 47 365 -11 q 131 211 181 106 q 81 458 81 317 q 132 709 81 603 q 278 873 183 815 q 500 931 372 931 q 723 873 628 931 q 869 709 818 815 q 919 458 919 603 q 872 215 919 319 q 735 51 824 110 q 525 -14 646 -8 q 591 -178 532 -124 q 744 -233 650 -233 m 121 458 q 167 226 121 325 q 299 74 213 128 q 500 21 385 21 q 701 74 615 21 q 833 226 788 128 q 879 458 879 325 q 833 690 879 592 q 701 842 788 789 q 500 896 615 896 q 299 842 385 896 q 167 690 213 789 q 121 458 121 592 z "},"R":{"ha":863,"x_min":140,"x_max":811,"o":"m 767 0 l 494 410 l 475 410 l 179 410 l 179 0 l 140 0 l 140 917 l 475 917 q 690 849 611 917 q 768 664 768 782 q 708 494 768 560 q 539 414 647 429 l 811 0 l 767 0 m 475 446 q 663 503 596 446 q 729 664 729 560 q 663 824 729 767 q 475 882 596 882 l 179 882 l 179 446 l 475 446 z "},"Ŕ":{"ha":863,"x_min":140,"x_max":811,"o":"m 436 1032 l 403 1032 l 501 1238 l 547 1238 l 436 1032 m 767 0 l 494 410 l 475 410 l 179 410 l 179 0 l 140 0 l 140 917 l 475 917 q 690 849 611 917 q 768 664 768 782 q 708 494 768 560 q 539 414 647 429 l 811 0 l 767 0 m 475 446 q 663 503 596 446 q 729 664 729 560 q 663 824 729 767 q 475 882 596 882 l 179 882 l 179 446 l 475 446 z "},"Ř":{"ha":863,"x_min":140,"x_max":811,"o":"m 390 1031 l 239 1235 l 276 1235 l 414 1058 l 551 1235 l 590 1235 l 438 1031 l 390 1031 m 767 0 l 494 410 l 475 410 l 179 410 l 179 0 l 140 0 l 140 917 l 475 917 q 690 849 611 917 q 768 664 768 782 q 708 494 768 560 q 539 414 647 429 l 811 0 l 767 0 m 475 446 q 663 503 596 446 q 729 664 729 560 q 663 824 729 767 q 475 882 596 882 l 179 882 l 179 446 l 475 446 z "},"S":{"ha":838,"x_min":60,"x_max":769,"o":"m 417 931 q 754 721 686 931 l 722 696 q 615 847 692 799 q 417 896 539 896 q 263 867 329 896 q 162 790 197 839 q 126 681 126 742 q 156 585 126 624 q 254 518 185 546 q 446 469 324 490 q 635 417 565 449 q 738 340 706 386 q 769 226 769 294 q 727 102 769 157 q 608 17 685 47 q 433 -14 532 -14 q 187 47 286 -14 q 60 222 88 107 l 94 246 q 207 78 115 136 q 435 21 299 21 q 647 76 564 21 q 731 226 731 131 q 664 356 731 308 q 436 431 597 404 q 228 485 304 453 q 120 563 153 517 q 88 679 88 610 q 127 804 88 747 q 242 896 167 861 q 417 931 317 931 z "},"Ś":{"ha":838,"x_min":60,"x_max":769,"o":"m 544 1238 l 433 1032 l 400 1032 l 499 1238 l 544 1238 m 417 931 q 754 721 686 931 l 722 696 q 615 847 692 799 q 417 896 539 896 q 263 867 329 896 q 162 790 197 839 q 126 681 126 742 q 156 585 126 624 q 254 518 185 546 q 446 469 324 490 q 635 417 565 449 q 738 340 706 386 q 769 226 769 294 q 727 102 769 157 q 608 17 685 47 q 433 -14 532 -14 q 187 47 286 -14 q 60 222 88 107 l 94 246 q 207 78 115 136 q 435 21 299 21 q 647 76 564 21 q 731 226 731 131 q 664 356 731 308 q 436 431 597 404 q 228 485 304 453 q 120 563 153 517 q 88 679 88 610 q 127 804 88 747 q 242 896 167 861 q 417 931 317 931 z "},"Š":{"ha":838,"x_min":60,"x_max":769,"o":"m 436 1031 l 389 1031 l 238 1235 l 275 1235 l 413 1058 l 550 1235 l 589 1235 l 436 1031 m 417 931 q 754 721 686 931 l 722 696 q 615 847 692 799 q 417 896 539 896 q 263 867 329 896 q 162 790 197 839 q 126 681 126 742 q 156 585 126 624 q 254 518 185 546 q 446 469 324 490 q 635 417 565 449 q 738 340 706 386 q 769 226 769 294 q 727 102 769 157 q 608 17 685 47 q 433 -14 532 -14 q 187 47 286 -14 q 60 222 88 107 l 94 246 q 207 78 115 136 q 435 21 299 21 q 647 76 564 21 q 731 226 731 131 q 664 356 731 308 q 436 431 597 404 q 228 485 304 453 q 120 563 153 517 q 88 679 88 610 q 127 804 88 747 q 242 896 167 861 q 417 931 317 931 z "},"ẞ":{"ha":901,"x_min":140,"x_max":842,"o":"m 558 485 q 771 428 700 485 q 842 251 842 371 q 768 65 842 136 q 575 -7 694 -7 q 442 17 500 -7 q 361 78 383 42 l 382 107 q 455 49 406 71 q 572 26 504 26 q 738 89 674 26 q 801 251 801 151 q 740 403 801 354 q 550 451 678 451 l 426 451 l 426 485 l 746 882 l 438 882 q 249 808 319 882 q 179 614 179 733 l 179 0 l 140 0 l 140 615 q 221 834 140 751 q 438 917 301 917 l 790 917 l 790 881 l 468 485 l 558 485 z "},"T":{"ha":771,"x_min":21,"x_max":750,"o":"m 750 882 l 406 882 l 406 0 l 367 0 l 367 882 l 21 882 l 21 917 l 750 917 l 750 882 z "},"Ť":{"ha":771,"x_min":21,"x_max":750,"o":"m 363 1031 l 211 1235 l 249 1235 l 386 1058 l 524 1235 l 563 1235 l 410 1031 l 363 1031 m 750 882 l 406 882 l 406 0 l 367 0 l 367 882 l 21 882 l 21 917 l 750 917 l 750 882 z "},"U":{"ha":956,"x_min":129,"x_max":826,"o":"m 826 329 q 735 75 826 164 q 478 -14 643 -14 q 221 75 313 -14 q 129 329 129 164 l 129 917 l 168 917 l 168 335 q 249 102 168 183 q 478 21 329 21 q 706 103 625 21 q 788 335 788 185 l 788 917 l 826 917 l 826 329 z "},"Ú":{"ha":956,"x_min":129,"x_max":826,"o":"m 610 1238 l 499 1032 l 465 1032 l 564 1238 l 610 1238 m 826 329 q 735 75 826 164 q 478 -14 643 -14 q 221 75 313 -14 q 129 329 129 164 l 129 917 l 168 917 l 168 335 q 249 102 168 183 q 478 21 329 21 q 706 103 625 21 q 788 335 788 185 l 788 917 l 826 917 l 826 329 z "},"Û":{"ha":956,"x_min":129,"x_max":826,"o":"m 615 1029 l 478 1206 l 340 1029 l 303 1029 l 454 1233 l 501 1233 l 654 1029 l 615 1029 m 826 329 q 735 75 826 164 q 478 -14 643 -14 q 221 75 313 -14 q 129 329 129 164 l 129 917 l 168 917 l 168 335 q 249 102 168 183 q 478 21 329 21 q 706 103 625 21 q 788 335 788 185 l 788 917 l 826 917 l 826 329 z "},"Ü":{"ha":956,"x_min":129,"x_max":826,"o":"m 826 329 q 735 75 826 164 q 478 -14 643 -14 q 221 75 313 -14 q 129 329 129 164 l 129 917 l 168 917 l 168 335 q 249 102 168 183 q 478 21 329 21 q 706 103 625 21 q 788 335 788 185 l 788 917 l 826 917 l 826 329 m 347 1128 q 376 1117 365 1128 q 388 1089 388 1107 q 376 1060 388 1071 q 347 1049 365 1049 q 318 1060 329 1049 q 307 1089 307 1071 q 318 1117 307 1107 q 347 1128 329 1128 m 606 1128 q 634 1117 624 1128 q 644 1089 644 1107 q 634 1060 644 1071 q 606 1049 624 1049 q 576 1060 588 1049 q 565 1089 565 1071 q 576 1117 565 1107 q 606 1128 588 1128 z "},"Ù":{"ha":956,"x_min":129,"x_max":826,"o":"m 506 1032 l 472 1032 l 361 1238 l 407 1238 l 506 1032 m 826 329 q 735 75 826 164 q 478 -14 643 -14 q 221 75 313 -14 q 129 329 129 164 l 129 917 l 168 917 l 168 335 q 249 102 168 183 q 478 21 329 21 q 706 103 625 21 q 788 335 788 185 l 788 917 l 826 917 l 826 329 z "},"Ű":{"ha":956,"x_min":129,"x_max":826,"o":"m 514 1238 l 403 1032 l 369 1032 l 468 1238 l 514 1238 m 692 1238 l 581 1032 l 547 1032 l 646 1238 l 692 1238 m 826 329 q 735 75 826 164 q 478 -14 643 -14 q 221 75 313 -14 q 129 329 129 164 l 129 917 l 168 917 l 168 335 q 249 102 168 183 q 478 21 329 21 q 706 103 625 21 q 788 335 788 185 l 788 917 l 826 917 l 826 329 z "},"Ū":{"ha":956,"x_min":129,"x_max":826,"o":"m 826 329 q 735 75 826 164 q 478 -14 643 -14 q 221 75 313 -14 q 129 329 129 164 l 129 917 l 168 917 l 168 335 q 249 102 168 183 q 478 21 329 21 q 706 103 625 21 q 788 335 788 185 l 788 917 l 826 917 l 826 329 m 685 1060 l 269 1060 l 269 1093 l 685 1093 l 685 1060 z "},"Ų":{"ha":956,"x_min":129,"x_max":826,"o":"m 826 917 l 826 329 q 761 105 826 190 q 576 -4 696 19 q 458 -83 493 -44 q 424 -167 424 -121 q 451 -231 424 -208 q 522 -253 478 -253 q 617 -228 585 -253 l 628 -256 q 519 -283 585 -283 q 426 -253 463 -283 q 389 -171 389 -224 q 417 -84 389 -122 q 508 -12 444 -46 q 478 -14 499 -14 q 221 75 313 -14 q 129 329 129 164 l 129 917 l 168 917 l 168 335 q 249 102 168 183 q 478 21 329 21 q 706 103 625 21 q 788 335 788 185 l 788 917 l 826 917 z "},"Ů":{"ha":956,"x_min":129,"x_max":826,"o":"m 826 329 q 735 75 826 164 q 478 -14 643 -14 q 221 75 313 -14 q 129 329 129 164 l 129 917 l 168 917 l 168 335 q 249 102 168 183 q 478 21 329 21 q 706 103 625 21 q 788 335 788 185 l 788 917 l 826 917 l 826 329 m 478 1142 q 567 1108 532 1142 q 603 1021 603 1074 q 567 934 603 968 q 478 900 532 900 q 388 934 424 900 q 353 1021 353 968 q 388 1108 353 1074 q 478 1142 424 1142 m 478 1114 q 412 1088 439 1114 q 385 1021 385 1061 q 412 956 385 982 q 478 929 439 929 q 544 956 517 929 q 571 1021 571 982 q 544 1088 571 1061 q 478 1114 518 1114 z "},"V":{"ha":819,"x_min":26,"x_max":792,"o":"m 433 0 l 385 0 l 26 917 l 68 917 l 368 151 l 410 39 l 451 151 l 751 917 l 792 917 l 433 0 z "},"W":{"ha":1276,"x_min":35,"x_max":1240,"o":"m 382 0 l 332 0 l 35 917 l 76 917 l 357 35 l 615 917 l 663 917 l 919 33 l 1200 917 l 1240 917 l 944 0 l 894 0 l 694 678 l 639 871 l 638 871 l 583 678 l 382 0 z "},"X":{"ha":750,"x_min":19,"x_max":722,"o":"m 676 0 l 375 439 l 68 0 l 19 0 l 351 474 l 49 917 l 96 917 l 376 506 l 664 917 l 711 917 l 400 472 l 722 0 l 676 0 z "},"Y":{"ha":726,"x_min":21,"x_max":706,"o":"m 383 356 l 383 0 l 344 0 l 344 356 l 21 917 l 67 917 l 246 603 l 364 397 l 660 917 l 706 917 l 383 356 z "},"Ý":{"ha":726,"x_min":21,"x_max":706,"o":"m 496 1238 l 385 1032 l 351 1032 l 450 1238 l 496 1238 m 383 356 l 383 0 l 344 0 l 344 356 l 21 917 l 67 917 l 246 603 l 364 397 l 660 917 l 706 917 l 383 356 z "},"Ÿ":{"ha":726,"x_min":21,"x_max":706,"o":"m 383 356 l 383 0 l 344 0 l 344 356 l 21 917 l 67 917 l 246 603 l 364 397 l 660 917 l 706 917 l 383 356 m 233 1128 q 263 1117 251 1128 q 274 1089 274 1107 q 263 1060 274 1071 q 233 1049 251 1049 q 204 1060 215 1049 q 193 1089 193 1071 q 204 1117 193 1107 q 233 1128 215 1128 m 492 1128 q 520 1117 510 1128 q 531 1089 531 1107 q 520 1060 531 1071 q 492 1049 510 1049 q 463 1060 474 1049 q 451 1089 451 1071 q 463 1117 451 1107 q 492 1128 474 1128 z "},"Z":{"ha":788,"x_min":47,"x_max":746,"o":"m 746 35 l 746 0 l 47 0 l 47 35 l 675 882 l 58 882 l 58 917 l 719 917 l 719 882 l 93 35 l 746 35 z "},"Ź":{"ha":788,"x_min":47,"x_max":746,"o":"m 414 1032 l 381 1032 l 479 1238 l 525 1238 l 414 1032 m 746 35 l 746 0 l 47 0 l 47 35 l 675 882 l 58 882 l 58 917 l 719 917 l 719 882 l 93 35 l 746 35 z "},"Ž":{"ha":788,"x_min":47,"x_max":746,"o":"m 368 1031 l 217 1235 l 254 1235 l 392 1058 l 529 1235 l 568 1235 l 415 1031 l 368 1031 m 746 35 l 746 0 l 47 0 l 47 35 l 675 882 l 58 882 l 58 917 l 719 917 l 719 882 l 93 35 l 746 35 z "},"Ż":{"ha":788,"x_min":47,"x_max":746,"o":"m 746 35 l 746 0 l 47 0 l 47 35 l 675 882 l 58 882 l 58 917 l 719 917 l 719 882 l 93 35 l 746 35 m 392 1133 q 421 1122 410 1133 q 432 1093 432 1111 q 422 1064 432 1075 q 392 1053 411 1053 q 363 1064 374 1053 q 351 1093 351 1075 q 363 1122 351 1111 q 392 1133 374 1133 z "},"Ģ":{"ha":951,"x_min":81,"x_max":857,"o":"m 857 438 l 857 0 l 822 0 l 822 194 q 703 41 789 96 q 486 -14 618 -14 q 272 44 364 -14 q 131 208 181 101 q 81 458 81 315 q 132 708 81 601 q 276 873 183 815 q 492 931 369 931 q 723 872 635 931 q 850 694 811 814 l 815 676 q 492 896 746 896 q 297 842 381 896 q 167 690 214 789 q 121 458 121 592 q 165 226 121 325 q 293 74 210 128 q 488 21 376 21 q 680 70 606 21 q 787 192 754 119 q 819 336 819 264 l 819 403 l 493 403 l 493 438 l 857 438 m 438 -321 l 407 -321 l 475 -97 l 517 -97 l 438 -321 z "},"Ķ":{"ha":800,"x_min":140,"x_max":778,"o":"m 376 519 l 179 319 l 179 0 l 140 0 l 140 917 l 179 917 l 179 374 l 713 917 l 765 917 l 406 549 l 778 0 l 729 0 l 376 519 m 393 -321 l 363 -321 l 431 -97 l 472 -97 l 393 -321 z "},"Ļ":{"ha":768,"x_min":140,"x_max":747,"o":"m 747 35 l 747 0 l 140 0 l 140 917 l 179 917 l 179 35 l 747 35 m 404 -321 l 374 -321 l 442 -97 l 483 -97 l 404 -321 z "},"Ņ":{"ha":975,"x_min":140,"x_max":835,"o":"m 835 0 l 783 0 l 224 797 l 176 876 l 175 876 l 178 783 l 178 0 l 140 0 l 140 917 l 190 917 l 751 119 l 799 42 l 797 133 l 797 917 l 835 917 l 835 0 m 432 -321 l 401 -321 l 469 -97 l 511 -97 l 432 -321 z "},"Ŗ":{"ha":863,"x_min":140,"x_max":811,"o":"m 767 0 l 494 410 l 475 410 l 179 410 l 179 0 l 140 0 l 140 917 l 475 917 q 690 849 611 917 q 768 664 768 782 q 708 494 768 560 q 539 414 647 429 l 811 0 l 767 0 m 475 446 q 663 503 596 446 q 729 664 729 560 q 663 824 729 767 q 475 882 596 882 l 179 882 l 179 446 l 475 446 m 422 -321 l 392 -321 l 460 -97 l 501 -97 l 422 -321 z "},"Ş":{"ha":838,"x_min":60,"x_max":769,"o":"m 769 226 q 728 103 769 157 q 611 17 686 49 q 439 -14 536 -14 q 519 -82 494 -46 q 543 -161 543 -118 q 507 -249 543 -215 q 413 -283 471 -283 q 335 -271 368 -283 q 278 -228 303 -258 l 294 -200 q 346 -242 318 -229 q 410 -254 374 -254 q 480 -228 453 -254 q 507 -160 507 -203 q 481 -85 507 -118 q 385 -12 454 -51 q 170 57 256 -3 q 60 222 85 117 l 94 246 q 207 78 115 136 q 435 21 299 21 q 647 76 564 21 q 731 226 731 131 q 664 356 731 308 q 436 431 597 404 q 228 485 304 453 q 120 563 153 517 q 88 679 88 610 q 127 804 88 747 q 242 896 167 861 q 417 931 317 931 q 754 721 686 931 l 722 696 q 615 847 692 799 q 417 896 539 896 q 263 867 329 896 q 162 790 197 839 q 126 681 126 742 q 156 585 126 624 q 254 518 185 546 q 446 469 324 490 q 635 417 565 449 q 738 340 706 386 q 769 226 769 294 z "},"Ţ":{"ha":771,"x_min":21,"x_max":750,"o":"m 406 882 l 406 6 q 490 -71 464 -32 q 517 -161 517 -110 q 481 -249 517 -215 q 386 -283 446 -283 q 308 -269 339 -283 q 253 -225 276 -254 l 271 -200 q 319 -240 293 -226 q 383 -254 346 -254 q 455 -228 428 -254 q 482 -157 482 -201 q 456 -75 482 -110 q 367 0 429 -40 l 367 882 l 21 882 l 21 917 l 750 917 l 750 882 l 406 882 z "},"Ș":{"ha":838,"x_min":60,"x_max":769,"o":"m 417 931 q 754 721 686 931 l 722 696 q 615 847 692 799 q 417 896 539 896 q 263 867 329 896 q 162 790 197 839 q 126 681 126 742 q 156 585 126 624 q 254 518 185 546 q 446 469 324 490 q 635 417 565 449 q 738 340 706 386 q 769 226 769 294 q 727 102 769 157 q 608 17 685 47 q 433 -14 532 -14 q 187 47 286 -14 q 60 222 88 107 l 94 246 q 207 78 115 136 q 435 21 299 21 q 647 76 564 21 q 731 226 731 131 q 664 356 731 308 q 436 431 597 404 q 228 485 304 453 q 120 563 153 517 q 88 679 88 610 q 127 804 88 747 q 242 896 167 861 q 417 931 317 931 m 381 -321 l 350 -321 l 418 -97 l 460 -97 l 381 -321 z "},"Ț":{"ha":771,"x_min":21,"x_max":750,"o":"m 750 882 l 406 882 l 406 0 l 367 0 l 367 882 l 21 882 l 21 917 l 750 917 l 750 882 m 331 -321 l 300 -321 l 368 -97 l 410 -97 l 331 -321 z "},"a":{"ha":731,"x_min":67,"x_max":724,"o":"m 671 19 q 724 31 707 19 l 721 -1 q 665 -14 700 -14 q 560 119 560 -14 l 560 121 q 453 22 531 57 q 288 -14 375 -14 q 126 31 185 -14 q 67 154 67 75 q 128 285 67 236 q 325 358 190 333 l 560 401 l 560 479 q 506 624 560 572 q 350 675 451 675 q 199 637 258 675 q 111 517 140 599 l 81 539 q 350 708 143 708 q 534 651 469 708 q 599 482 599 593 l 599 110 q 617 42 599 65 q 671 19 636 19 m 294 21 q 415 42 353 21 q 518 108 476 64 q 560 214 560 151 l 560 368 l 343 328 q 163 263 218 306 q 107 154 107 221 q 156 56 107 90 q 294 21 206 21 z "},"á":{"ha":731,"x_min":67,"x_max":724,"o":"m 671 19 q 724 31 707 19 l 721 -1 q 665 -14 700 -14 q 560 119 560 -14 l 560 121 q 453 22 531 57 q 288 -14 375 -14 q 126 31 185 -14 q 67 154 67 75 q 128 285 67 236 q 325 358 190 333 l 560 401 l 560 479 q 506 624 560 572 q 350 675 451 675 q 199 637 258 675 q 111 517 140 599 l 81 539 q 350 708 143 708 q 534 651 469 708 q 599 482 599 593 l 599 110 q 617 42 599 65 q 671 19 636 19 m 294 21 q 415 42 353 21 q 518 108 476 64 q 560 214 560 151 l 560 368 l 343 328 q 163 263 218 306 q 107 154 107 221 q 156 56 107 90 q 294 21 206 21 m 483 1019 l 358 810 l 325 810 l 440 1019 l 483 1019 z "},"ă":{"ha":731,"x_min":67,"x_max":724,"o":"m 671 19 q 724 31 707 19 l 721 -1 q 665 -14 700 -14 q 560 119 560 -14 l 560 121 q 453 22 531 57 q 288 -14 375 -14 q 126 31 185 -14 q 67 154 67 75 q 128 285 67 236 q 325 358 190 333 l 560 401 l 560 479 q 506 624 560 572 q 350 675 451 675 q 199 637 258 675 q 111 517 140 599 l 81 539 q 350 708 143 708 q 534 651 469 708 q 599 482 599 593 l 599 110 q 617 42 599 65 q 671 19 636 19 m 294 21 q 415 42 353 21 q 518 108 476 64 q 560 214 560 151 l 560 368 l 343 328 q 163 263 218 306 q 107 154 107 221 q 156 56 107 90 q 294 21 206 21 m 519 981 q 473 853 519 900 q 344 806 426 806 q 217 853 264 806 q 169 981 169 900 l 203 981 q 242 877 203 917 q 344 838 281 838 q 448 877 410 838 q 486 981 486 917 l 519 981 z "},"â":{"ha":731,"x_min":67,"x_max":724,"o":"m 671 19 q 724 31 707 19 l 721 -1 q 665 -14 700 -14 q 560 119 560 -14 l 560 121 q 453 22 531 57 q 288 -14 375 -14 q 126 31 185 -14 q 67 154 67 75 q 128 285 67 236 q 325 358 190 333 l 560 401 l 560 479 q 506 624 560 572 q 350 675 451 675 q 199 637 258 675 q 111 517 140 599 l 81 539 q 350 708 143 708 q 534 651 469 708 q 599 482 599 593 l 599 110 q 617 42 599 65 q 671 19 636 19 m 294 21 q 415 42 353 21 q 518 108 476 64 q 560 214 560 151 l 560 368 l 343 328 q 163 263 218 306 q 107 154 107 221 q 156 56 107 90 q 294 21 206 21 m 481 808 l 344 982 l 210 808 l 172 808 l 322 1011 l 367 1011 l 518 808 l 481 808 z "},"ä":{"ha":731,"x_min":67,"x_max":724,"o":"m 671 19 q 724 31 707 19 l 721 -1 q 665 -14 700 -14 q 560 119 560 -14 l 560 121 q 453 22 531 57 q 288 -14 375 -14 q 126 31 185 -14 q 67 154 67 75 q 128 285 67 236 q 325 358 190 333 l 560 401 l 560 479 q 506 624 560 572 q 350 675 451 675 q 199 637 258 675 q 111 517 140 599 l 81 539 q 350 708 143 708 q 534 651 469 708 q 599 482 599 593 l 599 110 q 617 42 599 65 q 671 19 636 19 m 294 21 q 415 42 353 21 q 518 108 476 64 q 560 214 560 151 l 560 368 l 343 328 q 163 263 218 306 q 107 154 107 221 q 156 56 107 90 q 294 21 206 21 m 215 906 q 244 895 233 906 q 256 867 256 885 q 244 838 256 849 q 215 826 233 826 q 186 838 197 826 q 175 867 175 849 q 186 895 175 885 q 215 906 197 906 m 474 906 q 502 895 492 906 q 513 867 513 885 q 502 838 513 849 q 474 826 492 826 q 444 838 456 826 q 433 867 433 849 q 444 895 433 885 q 474 906 456 906 z "},"à":{"ha":731,"x_min":67,"x_max":724,"o":"m 671 19 q 724 31 707 19 l 721 -1 q 665 -14 700 -14 q 560 119 560 -14 l 560 121 q 453 22 531 57 q 288 -14 375 -14 q 126 31 185 -14 q 67 154 67 75 q 128 285 67 236 q 325 358 190 333 l 560 401 l 560 479 q 506 624 560 572 q 350 675 451 675 q 199 637 258 675 q 111 517 140 599 l 81 539 q 350 708 143 708 q 534 651 469 708 q 599 482 599 593 l 599 110 q 617 42 599 65 q 671 19 636 19 m 294 21 q 415 42 353 21 q 518 108 476 64 q 560 214 560 151 l 560 368 l 343 328 q 163 263 218 306 q 107 154 107 221 q 156 56 107 90 q 294 21 206 21 m 368 810 l 335 810 l 210 1019 l 253 1019 l 368 810 z "},"ā":{"ha":731,"x_min":67,"x_max":724,"o":"m 671 19 q 724 31 707 19 l 721 -1 q 665 -14 700 -14 q 560 119 560 -14 l 560 121 q 453 22 531 57 q 288 -14 375 -14 q 126 31 185 -14 q 67 154 67 75 q 128 285 67 236 q 325 358 190 333 l 560 401 l 560 479 q 506 624 560 572 q 350 675 451 675 q 199 637 258 675 q 111 517 140 599 l 81 539 q 350 708 143 708 q 534 651 469 708 q 599 482 599 593 l 599 110 q 617 42 599 65 q 671 19 636 19 m 294 21 q 415 42 353 21 q 518 108 476 64 q 560 214 560 151 l 560 368 l 343 328 q 163 263 218 306 q 107 154 107 221 q 156 56 107 90 q 294 21 206 21 m 553 838 l 138 838 l 138 871 l 553 871 l 553 838 z "},"ą":{"ha":731,"x_min":67,"x_max":724,"o":"m 626 -253 q 677 -248 658 -253 q 711 -232 696 -243 l 722 -260 q 625 -283 688 -283 q 531 -254 568 -283 q 494 -174 494 -225 q 530 -83 494 -122 q 642 -11 565 -44 q 583 27 607 -4 q 560 121 560 58 q 453 22 531 57 q 288 -14 375 -14 q 126 31 185 -14 q 67 154 67 75 q 128 285 67 236 q 325 358 190 333 l 560 401 l 560 479 q 506 624 560 572 q 350 675 451 675 q 201 636 260 675 q 111 517 143 597 l 81 539 q 350 708 143 708 q 534 651 469 708 q 599 482 599 593 l 599 110 q 617 42 599 65 q 671 19 636 19 q 724 31 707 19 l 721 -1 q 573 -81 617 -44 q 529 -169 529 -118 q 556 -231 529 -208 q 626 -253 583 -253 m 294 21 q 415 42 353 21 q 518 108 476 64 q 560 214 560 151 l 560 368 l 343 328 q 162 263 217 304 q 107 154 107 221 q 156 56 107 90 q 294 21 206 21 z "},"å":{"ha":731,"x_min":67,"x_max":724,"o":"m 671 19 q 724 31 707 19 l 721 -1 q 665 -14 700 -14 q 560 119 560 -14 l 560 121 q 453 22 531 57 q 288 -14 375 -14 q 126 31 185 -14 q 67 154 67 75 q 128 285 67 236 q 325 358 190 333 l 560 401 l 560 479 q 506 624 560 572 q 350 675 451 675 q 199 637 258 675 q 111 517 140 599 l 81 539 q 350 708 143 708 q 534 651 469 708 q 599 482 599 593 l 599 110 q 617 42 599 65 q 671 19 636 19 m 294 21 q 415 42 353 21 q 518 108 476 64 q 560 214 560 151 l 560 368 l 343 328 q 163 263 218 306 q 107 154 107 221 q 156 56 107 90 q 294 21 206 21 m 342 1040 q 431 1006 396 1040 q 467 919 467 972 q 431 833 467 867 q 342 799 396 799 q 252 833 288 799 q 217 919 217 867 q 252 1006 217 972 q 342 1040 288 1040 m 342 1013 q 276 986 303 1013 q 249 919 249 960 q 276 854 249 881 q 342 828 303 828 q 408 854 381 828 q 435 919 435 881 q 408 986 435 960 q 342 1013 382 1013 z "},"ã":{"ha":731,"x_min":67,"x_max":724,"o":"m 671 19 q 724 31 707 19 l 721 -1 q 665 -14 700 -14 q 560 119 560 -14 l 560 121 q 453 22 531 57 q 288 -14 375 -14 q 126 31 185 -14 q 67 154 67 75 q 128 285 67 236 q 325 358 190 333 l 560 401 l 560 479 q 506 624 560 572 q 350 675 451 675 q 199 637 258 675 q 111 517 140 599 l 81 539 q 350 708 143 708 q 534 651 469 708 q 599 482 599 593 l 599 110 q 617 42 599 65 q 671 19 636 19 m 294 21 q 415 42 353 21 q 518 108 476 64 q 560 214 560 151 l 560 368 l 343 328 q 163 263 218 306 q 107 154 107 221 q 156 56 107 90 q 294 21 206 21 m 571 957 q 530 860 560 892 q 446 828 500 828 q 385 841 408 828 q 335 879 361 854 q 291 913 310 901 q 244 924 272 924 q 183 901 203 924 q 153 826 164 878 l 119 826 q 160 924 131 893 q 246 956 190 956 q 307 942 283 956 q 357 904 331 929 q 399 872 379 883 q 446 861 418 861 q 508 884 488 861 q 538 957 528 907 l 571 957 z "},"æ":{"ha":1207,"x_min":67,"x_max":1138,"o":"m 597 347 l 597 326 q 672 102 603 183 q 856 21 742 21 q 1093 165 1033 21 l 1125 149 q 1025 28 1090 69 q 856 -14 960 -14 q 681 42 753 -14 q 582 203 610 99 q 480 40 565 93 q 285 -14 394 -14 q 126 30 185 -14 q 67 154 67 74 q 129 290 67 238 q 322 357 192 343 l 561 382 l 561 475 q 506 623 561 571 q 350 675 451 675 q 201 636 260 675 q 111 517 142 597 l 81 539 q 350 708 144 708 q 517 661 454 708 q 593 525 579 614 q 694 660 626 613 q 853 708 761 708 q 1065 622 993 708 q 1138 369 1138 536 l 1138 347 l 597 347 m 853 675 q 674 598 742 675 q 597 383 606 521 l 1103 383 q 853 675 1094 675 m 294 21 q 417 44 357 21 q 519 123 478 68 q 561 264 561 178 l 561 350 l 340 326 q 163 269 218 314 q 107 154 107 224 q 158 55 107 89 q 294 21 210 21 z "},"b":{"ha":824,"x_min":121,"x_max":750,"o":"m 432 708 q 665 613 581 708 q 750 347 750 517 q 665 82 750 178 q 432 -14 581 -14 q 258 40 329 -14 q 158 188 186 93 l 157 0 l 121 0 l 121 1014 l 160 1014 l 160 511 q 259 656 188 604 q 432 708 331 708 m 426 21 q 636 107 561 21 q 711 347 711 193 q 636 588 711 501 q 426 675 561 675 q 232 588 304 675 q 160 353 160 501 l 160 342 q 232 107 160 193 q 426 21 304 21 z "},"c":{"ha":739,"x_min":74,"x_max":678,"o":"m 396 708 q 573 659 500 708 q 672 519 646 610 l 638 501 q 552 630 615 585 q 396 675 489 675 q 188 588 263 675 q 113 347 113 500 q 186 107 113 193 q 393 21 260 21 q 559 70 489 21 q 643 203 629 119 l 678 190 q 578 42 657 97 q 393 -14 500 -14 q 158 82 242 -14 q 74 347 74 178 q 159 613 74 517 q 396 708 244 708 z "},"ć":{"ha":739,"x_min":74,"x_max":678,"o":"m 396 708 q 573 659 500 708 q 672 519 646 610 l 638 501 q 552 630 615 585 q 396 675 489 675 q 188 588 263 675 q 113 347 113 500 q 186 107 113 193 q 393 21 260 21 q 559 70 489 21 q 643 203 629 119 l 678 190 q 578 42 657 97 q 393 -14 500 -14 q 158 82 242 -14 q 74 347 74 178 q 159 613 74 517 q 396 708 244 708 m 525 1019 l 400 810 l 367 810 l 482 1019 l 525 1019 z "},"č":{"ha":739,"x_min":74,"x_max":678,"o":"m 396 708 q 573 659 500 708 q 672 519 646 610 l 638 501 q 552 630 615 585 q 396 675 489 675 q 188 588 263 675 q 113 347 113 500 q 186 107 113 193 q 393 21 260 21 q 559 70 489 21 q 643 203 629 119 l 678 190 q 578 42 657 97 q 393 -14 500 -14 q 158 82 242 -14 q 74 347 74 178 q 159 613 74 517 q 396 708 244 708 m 410 810 l 365 810 l 214 1014 l 253 1014 l 388 839 l 522 1014 l 561 1014 l 410 810 z "},"ç":{"ha":739,"x_min":74,"x_max":678,"o":"m 678 190 q 583 44 658 100 q 406 -14 508 -11 q 485 -82 461 -46 q 510 -161 510 -118 q 474 -249 510 -215 q 379 -283 438 -283 q 302 -271 335 -283 q 244 -228 269 -258 l 261 -200 q 313 -242 285 -229 q 376 -254 340 -254 q 447 -228 419 -254 q 474 -160 474 -203 q 447 -85 474 -118 q 351 -12 421 -51 q 146 95 218 1 q 74 347 74 189 q 159 613 74 517 q 396 708 244 708 q 573 659 500 708 q 672 519 646 610 l 638 501 q 552 630 615 585 q 396 675 489 675 q 188 588 263 675 q 113 347 113 500 q 186 107 113 193 q 393 21 260 21 q 559 70 489 21 q 643 203 629 119 l 678 190 z "},"d":{"ha":824,"x_min":74,"x_max":704,"o":"m 704 1014 l 704 0 l 668 0 l 667 186 q 567 39 639 92 q 392 -14 494 -14 q 158 82 243 -14 q 74 347 74 178 q 158 613 74 517 q 392 708 243 708 q 565 656 493 708 q 665 510 638 604 l 665 1014 l 704 1014 m 397 21 q 590 104 517 21 q 665 332 663 188 l 665 363 q 590 591 663 507 q 397 675 517 675 q 188 588 263 675 q 113 347 113 501 q 188 107 113 193 q 397 21 263 21 z "},"ð":{"ha":813,"x_min":74,"x_max":740,"o":"m 590 851 q 719 394 719 678 q 636 90 719 194 q 401 -14 553 -14 q 162 79 250 -14 q 74 329 74 172 q 114 511 74 433 q 226 631 154 589 q 392 674 297 674 q 576 626 501 674 q 682 490 650 578 q 553 843 660 706 l 308 790 l 301 817 l 533 867 q 324 1014 451 961 l 388 1014 q 571 874 501 958 l 732 911 l 740 883 l 590 851 m 403 21 q 606 108 532 21 q 683 351 679 196 q 650 495 683 429 q 551 601 617 561 q 394 640 486 640 q 190 556 267 640 q 114 329 114 471 q 192 104 114 188 q 403 21 269 21 z "},"ď":{"ha":840,"x_min":74,"x_max":889,"o":"m 665 1014 l 704 1014 l 704 0 l 668 0 l 667 186 q 567 39 639 92 q 392 -14 494 -14 q 158 82 243 -14 q 74 347 74 178 q 158 613 74 517 q 392 708 243 708 q 565 656 493 708 q 665 510 638 604 l 665 1014 m 889 1014 l 846 740 l 815 740 l 850 1014 l 889 1014 m 397 21 q 590 104 517 21 q 665 332 663 188 l 665 363 q 590 591 663 507 q 397 675 517 675 q 188 588 263 675 q 113 347 113 501 q 188 107 113 193 q 397 21 263 21 z "},"đ":{"ha":824,"x_min":74,"x_max":833,"o":"m 833 818 l 704 818 l 704 0 l 668 0 l 667 186 q 567 39 639 92 q 392 -14 494 -14 q 158 82 243 -14 q 74 347 74 178 q 158 613 74 517 q 392 708 243 708 q 565 656 493 708 q 665 510 638 604 l 665 818 l 419 818 l 419 847 l 665 847 l 665 1014 l 704 1014 l 704 847 l 833 847 l 833 818 m 397 21 q 590 104 517 21 q 665 332 663 188 l 665 363 q 590 591 663 507 q 397 675 517 675 q 188 588 263 675 q 113 347 113 501 q 188 107 113 193 q 397 21 263 21 z "},"e":{"ha":754,"x_min":74,"x_max":685,"o":"m 683 326 l 113 326 q 192 101 118 182 q 396 21 267 21 q 547 59 481 21 q 646 165 614 97 l 678 149 q 567 29 640 72 q 396 -14 493 -14 q 159 82 244 -14 q 74 347 74 178 q 157 613 74 517 q 388 708 240 708 q 606 612 528 708 q 685 350 685 515 l 683 326 m 388 675 q 188 592 261 675 q 113 363 115 510 l 649 363 q 577 592 644 510 q 388 675 510 675 z "},"é":{"ha":754,"x_min":74,"x_max":685,"o":"m 683 326 l 113 326 q 192 101 118 182 q 396 21 267 21 q 547 59 481 21 q 646 165 614 97 l 678 149 q 567 29 640 72 q 396 -14 493 -14 q 159 82 244 -14 q 74 347 74 178 q 157 613 74 517 q 388 708 240 708 q 606 612 528 708 q 685 350 685 515 l 683 326 m 388 675 q 188 592 261 675 q 113 363 115 510 l 649 363 q 577 592 644 510 q 388 675 510 675 m 521 1019 l 396 810 l 363 810 l 478 1019 l 521 1019 z "},"ě":{"ha":754,"x_min":74,"x_max":685,"o":"m 683 326 l 113 326 q 192 101 118 182 q 396 21 267 21 q 547 59 481 21 q 646 165 614 97 l 678 149 q 567 29 640 72 q 396 -14 493 -14 q 159 82 244 -14 q 74 347 74 178 q 157 613 74 517 q 388 708 240 708 q 606 612 528 708 q 685 350 685 515 l 683 326 m 388 675 q 188 592 261 675 q 113 363 115 510 l 649 363 q 577 592 644 510 q 388 675 510 675 m 406 810 l 361 810 l 210 1014 l 249 1014 l 383 839 l 518 1014 l 557 1014 l 406 810 z "},"ê":{"ha":754,"x_min":74,"x_max":685,"o":"m 683 326 l 113 326 q 192 101 118 182 q 396 21 267 21 q 547 59 481 21 q 646 165 614 97 l 678 149 q 567 29 640 72 q 396 -14 493 -14 q 159 82 244 -14 q 74 347 74 178 q 157 613 74 517 q 388 708 240 708 q 606 612 528 708 q 685 350 685 515 l 683 326 m 388 675 q 188 592 261 675 q 113 363 115 510 l 649 363 q 577 592 644 510 q 388 675 510 675 m 518 808 l 382 982 l 247 808 l 210 808 l 360 1011 l 404 1011 l 556 808 l 518 808 z "},"ë":{"ha":754,"x_min":74,"x_max":685,"o":"m 683 326 l 113 326 q 192 101 118 182 q 396 21 267 21 q 547 59 481 21 q 646 165 614 97 l 678 149 q 567 29 640 72 q 396 -14 493 -14 q 159 82 244 -14 q 74 347 74 178 q 157 613 74 517 q 388 708 240 708 q 606 612 528 708 q 685 350 685 515 l 683 326 m 388 675 q 188 592 261 675 q 113 363 115 510 l 649 363 q 577 592 644 510 q 388 675 510 675 m 253 906 q 282 895 271 906 q 293 867 293 885 q 282 838 293 849 q 253 826 271 826 q 224 838 235 826 q 213 867 213 849 q 224 895 213 885 q 253 906 235 906 m 511 906 q 540 895 529 906 q 550 867 550 885 q 540 838 550 849 q 511 826 529 826 q 482 838 493 826 q 471 867 471 849 q 482 895 471 885 q 511 906 493 906 z "},"ė":{"ha":754,"x_min":74,"x_max":685,"o":"m 683 326 l 113 326 q 192 101 118 182 q 396 21 267 21 q 547 59 481 21 q 646 165 614 97 l 678 149 q 567 29 640 72 q 396 -14 493 -14 q 159 82 244 -14 q 74 347 74 178 q 157 613 74 517 q 388 708 240 708 q 606 612 528 708 q 685 350 685 515 l 683 326 m 388 675 q 188 592 261 675 q 113 363 115 510 l 649 363 q 577 592 644 510 q 388 675 510 675 m 382 911 q 411 900 400 911 q 422 871 422 889 q 412 842 422 853 q 382 831 401 831 q 353 842 364 831 q 342 871 342 853 q 353 900 342 889 q 382 911 364 911 z "},"è":{"ha":754,"x_min":74,"x_max":685,"o":"m 683 326 l 113 326 q 192 101 118 182 q 396 21 267 21 q 547 59 481 21 q 646 165 614 97 l 678 149 q 567 29 640 72 q 396 -14 493 -14 q 159 82 244 -14 q 74 347 74 178 q 157 613 74 517 q 388 708 240 708 q 606 612 528 708 q 685 350 685 515 l 683 326 m 388 675 q 188 592 261 675 q 113 363 115 510 l 649 363 q 577 592 644 510 q 388 675 510 675 m 406 810 l 372 810 l 247 1019 l 290 1019 l 406 810 z "},"ē":{"ha":754,"x_min":74,"x_max":685,"o":"m 683 326 l 113 326 q 192 101 118 182 q 396 21 267 21 q 547 59 481 21 q 646 165 614 97 l 678 149 q 567 29 640 72 q 396 -14 493 -14 q 159 82 244 -14 q 74 347 74 178 q 157 613 74 517 q 388 708 240 708 q 606 612 528 708 q 685 350 685 515 l 683 326 m 388 675 q 188 592 261 675 q 113 363 115 510 l 649 363 q 577 592 644 510 q 388 675 510 675 m 590 838 l 175 838 l 175 871 l 590 871 l 590 838 z "},"ę":{"ha":754,"x_min":74,"x_max":685,"o":"m 683 326 l 113 326 q 192 101 118 182 q 396 21 267 21 q 547 59 481 21 q 646 165 614 97 l 678 149 q 610 61 653 97 q 513 6 568 25 q 388 -82 424 -43 q 353 -167 353 -121 q 381 -231 353 -208 q 451 -253 408 -253 q 540 -228 506 -253 l 550 -256 q 449 -283 510 -283 q 355 -253 392 -283 q 318 -169 318 -224 q 344 -87 318 -125 q 431 -12 369 -50 q 396 -14 419 -14 q 159 82 244 -14 q 74 347 74 178 q 157 613 74 517 q 388 708 240 708 q 606 612 528 708 q 685 350 685 515 l 683 326 m 388 675 q 188 592 261 675 q 113 363 115 510 l 649 363 q 577 592 644 510 q 388 675 510 675 z "},"f":{"ha":464,"x_min":22,"x_max":463,"o":"m 200 694 l 453 694 l 453 661 l 200 661 l 200 0 l 161 0 l 161 661 l 22 661 l 22 694 l 161 694 l 161 810 q 212 965 161 908 q 354 1021 263 1021 q 463 981 425 1021 l 449 950 q 409 978 431 969 q 356 986 388 986 q 241 940 282 986 q 200 808 200 893 l 200 694 z "},"g":{"ha":699,"x_min":47,"x_max":699,"o":"m 463 58 q 628 16 567 58 q 690 -97 690 -26 q 649 -201 690 -156 q 535 -273 608 -247 q 368 -299 463 -299 q 133 -247 218 -299 q 47 -112 47 -196 q 86 -17 47 -57 q 192 38 125 24 q 116 85 144 53 q 88 157 88 117 q 125 244 88 208 q 222 290 163 279 q 121 367 157 317 q 85 488 85 418 q 160 648 85 588 q 361 708 236 708 q 526 671 460 708 q 575 781 532 740 q 688 822 618 822 l 699 789 q 595 753 633 789 q 553 654 557 718 q 638 488 638 593 q 562 326 638 386 q 361 267 486 267 q 276 275 317 267 q 167 238 208 269 q 125 163 125 207 q 167 88 125 117 q 289 58 210 58 l 463 58 m 124 488 q 188 350 124 401 q 361 299 253 299 q 534 350 469 299 q 599 488 599 401 q 534 624 599 574 q 361 675 469 675 q 188 624 253 675 q 124 488 124 574 m 374 -265 q 518 -244 454 -265 q 618 -186 582 -224 q 654 -101 654 -149 q 601 -9 654 -43 q 456 25 549 25 l 278 25 q 138 -12 192 25 q 85 -107 85 -49 q 162 -222 85 -179 q 374 -265 239 -265 z "},"ğ":{"ha":699,"x_min":47,"x_max":699,"o":"m 367 806 q 239 853 286 806 q 192 981 192 900 l 225 981 q 264 877 225 917 q 367 838 303 838 q 469 877 431 838 q 508 981 508 917 l 542 981 q 495 853 542 900 q 367 806 449 806 m 463 58 q 628 16 567 58 q 690 -97 690 -26 q 649 -201 690 -156 q 535 -273 608 -247 q 368 -299 463 -299 q 133 -247 218 -299 q 47 -112 47 -196 q 86 -17 47 -57 q 192 38 125 24 q 116 85 144 53 q 88 157 88 117 q 125 244 88 208 q 222 290 163 279 q 121 367 157 317 q 85 488 85 418 q 160 648 85 588 q 361 708 236 708 q 526 671 460 708 q 575 781 532 740 q 688 822 618 822 l 699 789 q 595 753 633 789 q 553 654 557 718 q 638 488 638 593 q 562 326 638 386 q 361 267 486 267 q 276 275 317 267 q 167 238 208 269 q 125 163 125 207 q 167 88 125 117 q 289 58 210 58 l 463 58 m 124 488 q 188 350 124 401 q 361 299 253 299 q 534 350 469 299 q 599 488 599 401 q 534 624 599 574 q 361 675 469 675 q 188 624 253 675 q 124 488 124 574 m 374 -265 q 518 -244 454 -265 q 618 -186 582 -224 q 654 -101 654 -149 q 601 -9 654 -43 q 456 25 549 25 l 278 25 q 138 -12 192 25 q 85 -107 85 -49 q 162 -222 85 -179 q 374 -265 239 -265 z "},"h":{"ha":808,"x_min":121,"x_max":697,"o":"m 436 710 q 627 643 557 710 q 697 456 697 576 l 697 1 l 658 1 l 658 446 q 597 615 658 556 q 431 675 536 675 q 294 640 356 675 q 196 545 232 606 q 160 410 160 485 l 160 0 l 121 0 l 121 1014 l 160 1014 l 160 529 q 262 661 188 613 q 436 710 336 710 z "},"i":{"ha":279,"x_min":99,"x_max":181,"o":"m 140 831 q 110 842 121 831 q 99 871 99 853 q 110 900 99 889 q 140 911 122 911 q 169 900 158 911 q 181 871 181 889 q 169 842 181 853 q 140 831 158 831 m 160 0 l 121 0 l 121 694 l 160 694 l 160 0 z "},"ı":{"ha":279,"x_min":121,"x_max":160,"o":"m 160 0 l 121 0 l 121 694 l 160 694 l 160 0 z "},"í":{"ha":279,"x_min":119,"x_max":278,"o":"m 160 0 l 121 0 l 121 694 l 160 694 l 160 0 m 278 1019 l 153 810 l 119 810 l 235 1019 l 278 1019 z "},"î":{"ha":279,"x_min":-33,"x_max":313,"o":"m 160 0 l 121 0 l 121 694 l 160 694 l 160 0 m 275 808 l 139 982 l 4 808 l -33 808 l 117 1011 l 161 1011 l 313 808 l 275 808 z "},"ï":{"ha":279,"x_min":22,"x_max":257,"o":"m 63 826 q 33 838 44 826 q 22 867 22 849 q 33 895 22 885 q 63 906 44 906 q 92 895 81 906 q 103 867 103 885 q 92 838 103 849 q 63 826 81 826 m 217 826 q 188 838 199 826 q 176 867 176 849 q 188 895 176 885 q 217 906 199 906 q 246 895 235 906 q 257 867 257 885 q 246 838 257 849 q 217 826 235 826 m 160 0 l 121 0 l 121 694 l 160 694 l 160 0 z "},"ì":{"ha":279,"x_min":4,"x_max":163,"o":"m 160 0 l 121 0 l 121 694 l 160 694 l 160 0 m 163 810 l 129 810 l 4 1019 l 47 1019 l 163 810 z "},"ĳ":{"ha":558,"x_min":99,"x_max":460,"o":"m 140 831 q 110 842 121 831 q 99 871 99 853 q 110 900 99 889 q 140 911 122 911 q 169 900 158 911 q 181 871 181 889 q 169 842 181 853 q 140 831 158 831 m 160 0 l 121 0 l 121 694 l 160 694 l 160 0 m 419 911 q 448 900 436 911 q 460 871 460 889 q 448 842 460 853 q 419 831 436 831 q 390 842 401 831 q 378 871 378 853 q 390 900 378 889 q 419 911 401 911 m 439 -86 q 386 -242 439 -186 q 250 -299 333 -299 q 143 -265 183 -299 l 154 -229 q 196 -254 171 -246 q 250 -262 221 -262 q 359 -215 318 -262 q 400 -83 400 -167 l 400 694 l 439 694 l 439 -86 z "},"ī":{"ha":279,"x_min":26,"x_max":253,"o":"m 253 838 l 26 838 l 26 871 l 253 871 l 253 838 m 160 0 l 121 0 l 121 694 l 160 694 l 160 0 z "},"į":{"ha":279,"x_min":4,"x_max":225,"o":"m 140 831 q 110 842 121 831 q 99 871 99 853 q 110 900 99 889 q 140 911 122 911 q 169 900 158 911 q 181 871 181 889 q 169 842 181 853 q 140 831 158 831 m 225 -254 q 185 -277 206 -271 q 131 -283 164 -283 q 41 -251 78 -283 q 4 -165 4 -219 q 31 -84 4 -121 q 121 0 58 -47 l 121 694 l 160 694 l 160 0 q 65 -88 92 -54 q 39 -164 39 -122 q 66 -229 39 -204 q 132 -254 93 -254 q 178 -248 160 -254 q 213 -226 196 -242 l 225 -254 z "},"j":{"ha":279,"x_min":-136,"x_max":181,"o":"m 140 911 q 169 900 157 911 q 181 871 181 889 q 169 842 181 853 q 140 831 157 831 q 110 842 122 831 q 99 871 99 853 q 110 900 99 889 q 140 911 122 911 m 160 -86 q 107 -242 160 -186 q -29 -299 54 -299 q -136 -265 -96 -299 l -125 -229 q -83 -254 -108 -246 q -29 -262 -58 -262 q 80 -215 39 -262 q 121 -83 121 -167 l 121 694 l 160 694 l 160 -86 z "},"k":{"ha":692,"x_min":121,"x_max":672,"o":"m 335 386 l 160 219 l 160 0 l 121 0 l 121 1014 l 160 1014 l 160 271 l 610 694 l 664 694 l 364 413 l 672 0 l 624 0 l 335 386 z "},"l":{"ha":347,"x_min":115,"x_max":335,"o":"m 154 156 q 177 53 154 85 q 250 22 200 22 q 295 26 278 22 q 335 39 313 29 l 331 3 q 246 -14 297 -14 q 147 26 179 -14 q 115 153 115 67 l 115 1014 l 154 1014 l 154 156 z "},"ĺ":{"ha":350,"x_min":115,"x_max":335,"o":"m 218 1292 l 151 1103 l 119 1103 l 175 1292 l 218 1292 m 154 156 q 177 53 154 85 q 250 22 200 22 q 295 26 278 22 q 335 39 313 29 l 331 3 q 246 -14 297 -14 q 147 26 179 -14 q 115 153 115 67 l 115 1014 l 154 1014 l 154 156 z "},"ľ":{"ha":347,"x_min":115,"x_max":342,"o":"m 154 156 q 177 53 154 85 q 250 22 200 22 q 295 26 278 22 q 335 39 313 29 l 331 3 q 246 -14 297 -14 q 147 26 179 -14 q 115 153 115 67 l 115 1014 l 154 1014 l 154 156 m 299 740 l 268 740 l 303 1014 l 342 1014 l 299 740 z "},"ŀ":{"ha":438,"x_min":115,"x_max":397,"o":"m 154 156 q 177 53 154 85 q 250 22 200 22 q 295 26 278 22 q 335 39 313 29 l 331 3 q 246 -14 297 -14 q 147 26 179 -14 q 115 153 115 67 l 115 1014 l 154 1014 l 154 156 m 356 540 q 386 529 375 540 q 397 499 397 518 q 386 469 397 481 q 356 457 375 457 q 325 469 336 457 q 314 499 314 481 q 325 529 314 518 q 356 540 336 540 z "},"ł":{"ha":411,"x_min":26,"x_max":381,"o":"m 296 22 q 341 26 324 22 q 381 39 358 29 l 376 3 q 292 -14 343 -14 q 193 26 225 -14 q 161 153 161 67 l 161 456 l 26 361 l 26 401 l 161 496 l 161 1014 l 200 1014 l 200 524 l 372 643 l 372 603 l 200 482 l 200 156 q 223 53 200 85 q 296 22 246 22 z "},"m":{"ha":1340,"x_min":121,"x_max":1229,"o":"m 969 711 q 1158 644 1088 711 q 1229 457 1229 578 l 1229 3 l 1190 3 l 1190 453 q 1129 618 1190 560 q 964 676 1068 676 q 827 641 889 676 q 730 545 765 606 q 694 414 694 485 l 694 0 l 656 0 l 656 450 q 594 616 656 557 q 429 675 533 675 q 294 640 356 675 q 196 544 232 604 q 160 410 160 483 l 160 0 l 121 0 l 121 694 l 157 694 l 158 529 q 263 660 188 611 q 435 708 338 708 q 602 660 535 708 q 688 521 669 611 q 790 658 713 606 q 969 711 868 711 z "},"n":{"ha":808,"x_min":121,"x_max":697,"o":"m 436 708 q 627 642 557 708 q 697 454 697 575 l 697 0 l 658 0 l 658 444 q 597 615 658 556 q 431 675 536 675 q 294 640 356 675 q 196 544 232 604 q 160 408 160 483 l 160 0 l 121 0 l 121 694 l 157 694 l 157 528 q 261 660 186 611 q 436 708 336 708 z "},"ń":{"ha":808,"x_min":121,"x_max":697,"o":"m 436 708 q 627 642 557 708 q 697 454 697 575 l 697 0 l 658 0 l 658 444 q 597 615 658 556 q 431 675 536 675 q 294 640 356 675 q 196 544 232 604 q 160 408 160 483 l 160 0 l 121 0 l 121 694 l 157 694 l 157 528 q 261 660 186 611 q 436 708 336 708 m 551 1019 l 426 810 l 393 810 l 508 1019 l 551 1019 z "},"ň":{"ha":808,"x_min":121,"x_max":697,"o":"m 436 708 q 627 642 557 708 q 697 454 697 575 l 697 0 l 658 0 l 658 444 q 597 615 658 556 q 431 675 536 675 q 294 640 356 675 q 196 544 232 604 q 160 408 160 483 l 160 0 l 121 0 l 121 694 l 157 694 l 157 528 q 261 660 186 611 q 436 708 336 708 m 436 810 l 392 810 l 240 1014 l 279 1014 l 414 839 l 549 1014 l 588 1014 l 436 810 z "},"ñ":{"ha":808,"x_min":121,"x_max":697,"o":"m 436 708 q 627 642 557 708 q 697 454 697 575 l 697 0 l 658 0 l 658 444 q 597 615 658 556 q 431 675 536 675 q 294 640 356 675 q 196 544 232 604 q 160 408 160 483 l 160 0 l 121 0 l 121 694 l 157 694 l 157 528 q 261 660 186 611 q 436 708 336 708 m 640 957 q 599 860 629 892 q 515 828 569 828 q 454 841 478 828 q 404 879 431 854 q 360 913 379 901 q 314 924 342 924 q 253 901 272 924 q 222 826 233 878 l 189 826 q 230 924 200 893 q 315 956 260 956 q 376 942 353 956 q 426 904 400 929 q 468 872 449 883 q 515 861 488 861 q 577 884 557 861 q 607 957 597 907 l 640 957 z "},"o":{"ha":800,"x_min":74,"x_max":726,"o":"m 401 708 q 640 613 553 708 q 726 347 726 517 q 640 82 726 178 q 401 -14 553 -14 q 161 83 249 -14 q 74 347 74 179 q 161 612 74 515 q 401 708 249 708 m 401 675 q 190 588 267 675 q 113 347 113 500 q 190 107 113 194 q 401 19 267 19 q 611 107 535 19 q 688 347 688 194 q 611 588 688 500 q 401 675 535 675 z "},"ó":{"ha":800,"x_min":74,"x_max":726,"o":"m 401 708 q 640 613 553 708 q 726 347 726 517 q 640 82 726 178 q 401 -14 553 -14 q 161 83 249 -14 q 74 347 74 179 q 161 612 74 515 q 401 708 249 708 m 401 675 q 190 588 267 675 q 113 347 113 500 q 190 107 113 194 q 401 19 267 19 q 611 107 535 19 q 688 347 688 194 q 611 588 688 500 q 401 675 535 675 m 539 1019 l 414 810 l 381 810 l 496 1019 l 539 1019 z "},"ô":{"ha":800,"x_min":74,"x_max":726,"o":"m 401 708 q 640 613 553 708 q 726 347 726 517 q 640 82 726 178 q 401 -14 553 -14 q 161 83 249 -14 q 74 347 74 179 q 161 612 74 515 q 401 708 249 708 m 401 675 q 190 588 267 675 q 113 347 113 500 q 190 107 113 194 q 401 19 267 19 q 611 107 535 19 q 688 347 688 194 q 611 588 688 500 q 401 675 535 675 m 536 808 l 400 982 l 265 808 l 228 808 l 378 1011 l 422 1011 l 574 808 l 536 808 z "},"ö":{"ha":800,"x_min":74,"x_max":726,"o":"m 401 708 q 640 613 553 708 q 726 347 726 517 q 640 82 726 178 q 401 -14 553 -14 q 161 83 249 -14 q 74 347 74 179 q 161 612 74 515 q 401 708 249 708 m 401 675 q 190 588 267 675 q 113 347 113 500 q 190 107 113 194 q 401 19 267 19 q 611 107 535 19 q 688 347 688 194 q 611 588 688 500 q 401 675 535 675 m 271 906 q 300 895 289 906 q 311 867 311 885 q 300 838 311 849 q 271 826 289 826 q 242 838 253 826 q 231 867 231 849 q 242 895 231 885 q 271 906 253 906 m 529 906 q 558 895 547 906 q 568 867 568 885 q 558 838 568 849 q 529 826 547 826 q 500 838 511 826 q 489 867 489 849 q 500 895 489 885 q 529 906 511 906 z "},"ò":{"ha":800,"x_min":74,"x_max":726,"o":"m 401 708 q 640 613 553 708 q 726 347 726 517 q 640 82 726 178 q 401 -14 553 -14 q 161 83 249 -14 q 74 347 74 179 q 161 612 74 515 q 401 708 249 708 m 401 675 q 190 588 267 675 q 113 347 113 500 q 190 107 113 194 q 401 19 267 19 q 611 107 535 19 q 688 347 688 194 q 611 588 688 500 q 401 675 535 675 m 424 810 l 390 810 l 265 1019 l 308 1019 l 424 810 z "},"ő":{"ha":800,"x_min":74,"x_max":726,"o":"m 401 708 q 640 613 553 708 q 726 347 726 517 q 640 82 726 178 q 401 -14 553 -14 q 161 83 249 -14 q 74 347 74 179 q 161 612 74 515 q 401 708 249 708 m 401 675 q 190 588 267 675 q 113 347 113 500 q 190 107 113 194 q 401 19 267 19 q 611 107 535 19 q 688 347 688 194 q 611 588 688 500 q 401 675 535 675 m 304 810 l 269 810 l 386 1019 l 429 1019 l 304 810 m 497 810 l 464 810 l 579 1019 l 622 1019 l 497 810 z "},"ō":{"ha":800,"x_min":74,"x_max":726,"o":"m 401 708 q 640 613 553 708 q 726 347 726 517 q 640 82 726 178 q 401 -14 553 -14 q 161 83 249 -14 q 74 347 74 179 q 161 612 74 515 q 401 708 249 708 m 401 675 q 190 588 267 675 q 113 347 113 500 q 190 107 113 194 q 401 19 267 19 q 611 107 535 19 q 688 347 688 194 q 611 588 688 500 q 401 675 535 675 m 608 838 l 193 838 l 193 871 l 608 871 l 608 838 z "},"ø":{"ha":801,"x_min":74,"x_max":729,"o":"m 401 708 q 613 638 529 708 l 688 735 l 729 735 l 636 617 q 726 347 726 522 q 640 82 726 178 q 401 -14 553 -14 q 194 51 278 -14 l 119 -43 l 78 -43 l 169 74 q 74 347 74 172 q 161 612 74 515 q 401 708 249 708 m 194 104 l 232 154 l 590 608 q 401 675 515 675 q 190 588 267 675 q 113 347 113 500 q 193 104 113 189 l 194 104 m 401 19 q 611 107 535 19 q 688 347 688 194 q 613 586 688 499 l 611 586 l 582 547 l 217 81 q 401 19 290 19 z "},"õ":{"ha":800,"x_min":74,"x_max":726,"o":"m 401 708 q 640 613 553 708 q 726 347 726 517 q 640 82 726 178 q 401 -14 553 -14 q 161 83 249 -14 q 74 347 74 179 q 161 612 74 515 q 401 708 249 708 m 401 675 q 190 588 267 675 q 113 347 113 500 q 190 107 113 194 q 401 19 267 19 q 611 107 535 19 q 688 347 688 194 q 611 588 688 500 q 401 675 535 675 m 628 957 q 587 860 617 892 q 503 828 557 828 q 442 841 465 828 q 392 879 418 854 q 348 913 367 901 q 301 924 329 924 q 240 901 260 924 q 210 826 221 878 l 176 826 q 217 924 188 893 q 303 956 247 956 q 364 942 340 956 q 414 904 388 929 q 456 872 436 883 q 503 861 475 861 q 565 884 544 861 q 594 957 585 907 l 628 957 z "},"œ":{"ha":1371,"x_min":74,"x_max":1300,"o":"m 1300 326 l 729 326 q 808 101 733 182 q 1011 21 882 21 q 1164 59 1097 21 q 1261 165 1231 97 l 1293 149 q 1183 29 1257 72 q 1011 -14 1108 -14 q 816 46 894 -14 q 708 214 738 106 q 599 46 678 106 q 401 -14 519 -14 q 161 83 249 -14 q 74 347 74 179 q 161 612 74 515 q 401 708 249 708 q 599 649 519 708 q 708 482 678 590 q 814 649 738 590 q 1004 708 890 708 q 1222 612 1143 708 q 1300 350 1300 515 l 1300 326 m 401 21 q 613 108 536 21 q 689 347 689 194 q 613 588 689 500 q 401 675 536 675 q 191 588 268 675 q 114 347 114 500 q 191 108 114 194 q 401 21 268 21 m 1004 675 q 805 592 878 675 q 728 363 732 510 l 1265 363 q 1192 592 1260 510 q 1004 675 1125 675 z "},"p":{"ha":824,"x_min":121,"x_max":750,"o":"m 432 708 q 665 613 581 708 q 750 347 750 517 q 665 82 750 178 q 432 -14 581 -14 q 259 38 331 -14 q 160 183 188 90 l 160 -292 l 121 -292 l 121 694 l 157 694 l 158 507 q 258 655 186 601 q 432 708 329 708 m 426 21 q 636 107 561 21 q 711 347 711 193 q 636 588 711 501 q 426 675 561 675 q 232 588 304 675 q 160 353 160 501 l 160 342 q 232 107 160 193 q 426 21 304 21 z "},"þ":{"ha":824,"x_min":121,"x_max":750,"o":"m 432 708 q 665 613 581 708 q 750 347 750 517 q 665 82 750 178 q 432 -14 581 -14 q 259 37 331 -14 q 160 179 188 88 l 160 -292 l 121 -292 l 121 1014 l 160 1014 l 160 517 q 260 658 189 607 q 432 708 332 708 m 426 21 q 636 107 561 21 q 711 347 711 193 q 636 588 711 501 q 426 675 561 675 q 232 588 304 675 q 160 353 160 501 l 160 342 q 232 107 160 193 q 426 21 304 21 z "},"q":{"ha":825,"x_min":75,"x_max":706,"o":"m 706 694 l 706 -292 l 667 -292 l 667 185 q 567 38 639 90 q 393 -14 494 -14 q 160 82 244 -14 q 75 347 75 178 q 160 613 75 517 q 393 708 244 708 q 568 656 496 708 q 668 508 640 603 l 669 694 l 706 694 m 399 21 q 592 104 519 21 q 667 332 664 188 l 667 363 q 591 591 664 507 q 399 675 518 675 q 189 588 264 675 q 114 347 114 501 q 189 107 114 193 q 399 21 264 21 z "},"r":{"ha":493,"x_min":121,"x_max":479,"o":"m 385 708 q 479 679 447 708 l 465 644 q 429 666 449 658 q 376 674 410 674 q 267 636 317 674 q 189 535 218 599 q 160 399 160 471 l 160 0 l 121 0 l 121 694 l 156 694 l 158 529 q 244 659 185 610 q 385 708 304 708 z "},"ŕ":{"ha":493,"x_min":121,"x_max":479,"o":"m 385 708 q 479 679 447 708 l 465 644 q 429 666 449 658 q 376 674 410 674 q 267 636 317 674 q 189 535 218 599 q 160 399 160 471 l 160 0 l 121 0 l 121 694 l 156 694 l 158 529 q 244 659 185 610 q 385 708 304 708 m 415 1019 l 290 810 l 257 810 l 372 1019 l 415 1019 z "},"ř":{"ha":493,"x_min":104,"x_max":479,"o":"m 385 708 q 479 679 447 708 l 465 644 q 429 666 449 658 q 376 674 410 674 q 267 636 317 674 q 189 535 218 599 q 160 399 160 471 l 160 0 l 121 0 l 121 694 l 156 694 l 158 529 q 244 659 185 610 q 385 708 304 708 m 300 810 l 256 810 l 104 1014 l 143 1014 l 278 839 l 413 1014 l 451 1014 l 300 810 z "},"s":{"ha":678,"x_min":54,"x_max":611,"o":"m 339 -14 q 154 29 231 -14 q 54 153 78 72 l 88 172 q 175 59 107 97 q 344 21 243 21 q 511 63 450 21 q 572 175 572 104 q 522 269 572 235 q 346 326 472 304 q 143 394 201 351 q 85 515 85 438 q 118 613 85 569 q 210 683 151 657 q 344 708 269 708 q 519 667 454 708 q 604 536 583 625 l 571 517 q 344 675 535 675 q 231 655 282 675 q 152 599 181 635 q 124 522 124 564 q 175 420 124 457 q 357 361 226 383 q 554 295 497 338 q 611 176 611 253 q 538 38 611 89 q 339 -14 464 -14 z "},"ś":{"ha":678,"x_min":54,"x_max":611,"o":"m 339 -14 q 154 29 231 -14 q 54 153 78 72 l 88 172 q 175 59 107 97 q 344 21 243 21 q 511 63 450 21 q 572 175 572 104 q 522 269 572 235 q 346 326 472 304 q 143 394 201 351 q 85 515 85 438 q 118 613 85 569 q 210 683 151 657 q 344 708 269 708 q 519 667 454 708 q 604 536 583 625 l 571 517 q 344 675 535 675 q 231 655 282 675 q 152 599 181 635 q 124 522 124 564 q 175 420 124 457 q 357 361 226 383 q 554 295 497 338 q 611 176 611 253 q 538 38 611 89 q 339 -14 464 -14 m 476 1019 l 351 810 l 318 810 l 433 1019 l 476 1019 z "},"š":{"ha":678,"x_min":54,"x_max":611,"o":"m 339 -14 q 154 29 231 -14 q 54 153 78 72 l 88 172 q 175 59 107 97 q 344 21 243 21 q 511 63 450 21 q 572 175 572 104 q 522 269 572 235 q 346 326 472 304 q 143 394 201 351 q 85 515 85 438 q 118 613 85 569 q 210 683 151 657 q 344 708 269 708 q 519 667 454 708 q 604 536 583 625 l 571 517 q 344 675 535 675 q 231 655 282 675 q 152 599 181 635 q 124 522 124 564 q 175 420 124 457 q 357 361 226 383 q 554 295 497 338 q 611 176 611 253 q 538 38 611 89 q 339 -14 464 -14 m 361 810 l 317 810 l 165 1014 l 204 1014 l 339 839 l 474 1014 l 513 1014 l 361 810 z "},"ß":{"ha":788,"x_min":121,"x_max":717,"o":"m 461 528 q 651 449 585 522 q 717 257 717 376 q 644 61 717 136 q 450 -14 572 -14 q 365 1 403 -14 q 304 44 326 17 l 319 72 q 450 19 368 19 q 617 85 554 19 q 679 260 679 150 q 606 445 679 382 q 410 508 533 508 l 350 508 l 350 543 l 410 543 q 575 606 513 543 q 638 776 638 668 q 578 931 638 876 q 414 986 519 986 q 158 693 158 986 l 158 0 l 121 0 l 121 711 q 194 942 121 863 q 415 1021 267 1021 q 609 954 540 1021 q 678 776 678 888 q 617 602 678 672 q 461 529 557 532 l 461 528 z "},"ſ":{"ha":304,"x_min":115,"x_max":367,"o":"m 115 821 q 156 969 115 918 q 272 1021 196 1021 q 328 1013 308 1021 q 367 986 347 1004 l 356 956 q 322 979 339 972 q 276 986 306 986 q 154 818 154 986 l 154 0 l 115 0 l 115 821 z "},"t":{"ha":481,"x_min":21,"x_max":474,"o":"m 474 40 q 411 1 449 17 q 331 -14 374 -14 q 203 33 247 -14 q 160 175 160 81 l 160 661 l 21 661 l 21 694 l 160 694 l 160 872 l 199 883 l 199 694 l 464 694 l 464 661 l 199 661 l 199 178 q 335 21 199 21 q 457 72 407 21 l 474 40 z "},"ť":{"ha":481,"x_min":21,"x_max":474,"o":"m 351 792 l 321 792 l 356 1065 l 394 1065 l 351 792 m 474 40 q 411 1 449 17 q 331 -14 374 -14 q 203 33 247 -14 q 160 175 160 81 l 160 661 l 21 661 l 21 694 l 160 694 l 160 872 l 199 883 l 199 694 l 464 694 l 464 661 l 199 661 l 199 178 q 335 21 199 21 q 457 72 407 21 l 474 40 z "},"u":{"ha":797,"x_min":113,"x_max":678,"o":"m 678 694 l 678 0 l 642 0 l 640 165 q 535 35 611 83 q 357 -14 460 -14 q 178 50 243 -14 q 113 233 113 114 l 113 694 l 151 694 l 151 242 q 206 77 151 133 q 364 21 261 21 q 513 60 451 21 q 607 160 575 100 q 639 281 639 221 l 639 694 l 678 694 z "},"ú":{"ha":797,"x_min":113,"x_max":678,"o":"m 678 694 l 678 0 l 642 0 l 640 165 q 535 35 611 83 q 357 -14 460 -14 q 178 50 243 -14 q 113 233 113 114 l 113 694 l 151 694 l 151 242 q 206 77 151 133 q 364 21 261 21 q 513 60 451 21 q 607 160 575 100 q 639 281 639 221 l 639 694 l 678 694 m 535 1019 l 410 810 l 376 810 l 492 1019 l 535 1019 z "},"û":{"ha":797,"x_min":113,"x_max":678,"o":"m 678 694 l 678 0 l 642 0 l 640 165 q 535 35 611 83 q 357 -14 460 -14 q 178 50 243 -14 q 113 233 113 114 l 113 694 l 151 694 l 151 242 q 206 77 151 133 q 364 21 261 21 q 513 60 451 21 q 607 160 575 100 q 639 281 639 221 l 639 694 l 678 694 m 532 808 l 396 982 l 261 808 l 224 808 l 374 1011 l 418 1011 l 569 808 l 532 808 z "},"ü":{"ha":797,"x_min":113,"x_max":678,"o":"m 678 694 l 678 0 l 642 0 l 640 165 q 535 35 611 83 q 357 -14 460 -14 q 178 50 243 -14 q 113 233 113 114 l 113 694 l 151 694 l 151 242 q 206 77 151 133 q 364 21 261 21 q 513 60 451 21 q 607 160 575 100 q 639 281 639 221 l 639 694 l 678 694 m 267 906 q 296 895 285 906 q 307 867 307 885 q 296 838 307 849 q 267 826 285 826 q 238 838 249 826 q 226 867 226 849 q 238 895 226 885 q 267 906 249 906 m 525 906 q 553 895 543 906 q 564 867 564 885 q 553 838 564 849 q 525 826 543 826 q 496 838 507 826 q 485 867 485 849 q 496 895 485 885 q 525 906 507 906 z "},"ù":{"ha":797,"x_min":113,"x_max":678,"o":"m 678 694 l 678 0 l 642 0 l 640 165 q 535 35 611 83 q 357 -14 460 -14 q 178 50 243 -14 q 113 233 113 114 l 113 694 l 151 694 l 151 242 q 206 77 151 133 q 364 21 261 21 q 513 60 451 21 q 607 160 575 100 q 639 281 639 221 l 639 694 l 678 694 m 419 810 l 386 810 l 261 1019 l 304 1019 l 419 810 z "},"ű":{"ha":797,"x_min":113,"x_max":678,"o":"m 678 694 l 678 0 l 642 0 l 640 165 q 535 35 611 83 q 357 -14 460 -14 q 178 50 243 -14 q 113 233 113 114 l 113 694 l 151 694 l 151 242 q 206 77 151 133 q 364 21 261 21 q 513 60 451 21 q 607 160 575 100 q 639 281 639 221 l 639 694 l 678 694 m 300 810 l 265 810 l 382 1019 l 425 1019 l 300 810 m 493 810 l 460 810 l 575 1019 l 618 1019 l 493 810 z "},"ū":{"ha":797,"x_min":113,"x_max":678,"o":"m 678 694 l 678 0 l 642 0 l 640 165 q 535 35 611 83 q 357 -14 460 -14 q 178 50 243 -14 q 113 233 113 114 l 113 694 l 151 694 l 151 242 q 206 77 151 133 q 364 21 261 21 q 513 60 451 21 q 607 160 575 100 q 639 281 639 221 l 639 694 l 678 694 m 604 838 l 189 838 l 189 871 l 604 871 l 604 838 z "},"ģ":{"ha":699,"x_min":47,"x_max":699,"o":"m 389 815 l 346 815 l 432 1081 l 463 1081 l 389 815 m 463 58 q 628 16 567 58 q 690 -97 690 -26 q 649 -201 690 -156 q 535 -273 608 -247 q 368 -299 463 -299 q 133 -247 218 -299 q 47 -112 47 -196 q 86 -17 47 -57 q 192 38 125 24 q 116 85 144 53 q 88 157 88 117 q 125 244 88 208 q 222 290 163 279 q 121 367 157 317 q 85 488 85 418 q 160 648 85 588 q 361 708 236 708 q 526 671 460 708 q 575 781 532 740 q 688 822 618 822 l 699 789 q 595 753 633 789 q 553 654 557 718 q 638 488 638 593 q 562 326 638 386 q 361 267 486 267 q 276 275 317 267 q 167 238 208 269 q 125 163 125 207 q 167 88 125 117 q 289 58 210 58 l 463 58 m 124 488 q 188 350 124 401 q 361 299 253 299 q 534 350 469 299 q 599 488 599 401 q 534 624 599 574 q 361 675 469 675 q 188 624 253 675 q 124 488 124 574 m 374 -265 q 518 -244 454 -265 q 618 -186 582 -224 q 654 -101 654 -149 q 601 -9 654 -43 q 456 25 549 25 l 278 25 q 138 -12 192 25 q 85 -107 85 -49 q 162 -222 85 -179 q 374 -265 239 -265 z "},"ķ":{"ha":692,"x_min":121,"x_max":672,"o":"m 335 386 l 160 219 l 160 0 l 121 0 l 121 1014 l 160 1014 l 160 271 l 610 694 l 664 694 l 364 413 l 672 0 l 624 0 l 335 386 m 368 -321 l 338 -321 l 406 -97 l 447 -97 l 368 -321 z "},"ļ":{"ha":347,"x_min":115,"x_max":335,"o":"m 154 156 q 177 53 154 85 q 250 22 200 22 q 295 26 278 22 q 335 39 313 29 l 331 3 q 246 -14 297 -14 q 147 26 179 -14 q 115 153 115 67 l 115 1014 l 154 1014 l 154 156 m 194 -321 l 164 -321 l 232 -97 l 274 -97 l 194 -321 z "},"ņ":{"ha":808,"x_min":121,"x_max":697,"o":"m 436 708 q 627 642 557 708 q 697 454 697 575 l 697 0 l 658 0 l 658 444 q 597 615 658 556 q 431 675 536 675 q 294 640 356 675 q 196 544 232 604 q 160 408 160 483 l 160 0 l 121 0 l 121 694 l 157 694 l 157 528 q 261 660 186 611 q 436 708 336 708 m 390 -321 l 360 -321 l 428 -97 l 469 -97 l 390 -321 z "},"ŗ":{"ha":493,"x_min":53,"x_max":479,"o":"m 385 708 q 479 679 447 708 l 465 644 q 429 666 449 658 q 376 674 410 674 q 267 636 317 674 q 189 535 218 599 q 160 399 160 471 l 160 0 l 121 0 l 121 694 l 156 694 l 158 529 q 244 659 185 610 q 385 708 304 708 m 83 -321 l 53 -321 l 121 -97 l 163 -97 l 83 -321 z "},"ş":{"ha":678,"x_min":54,"x_max":611,"o":"m 611 176 q 547 44 611 94 q 369 -12 482 -6 q 451 -81 426 -44 q 475 -161 475 -117 q 439 -249 475 -215 q 344 -283 403 -283 q 267 -271 300 -283 q 210 -228 235 -258 l 226 -200 q 278 -242 250 -229 q 342 -254 306 -254 q 412 -228 385 -254 q 439 -160 439 -203 q 413 -85 439 -118 q 319 -14 388 -53 q 147 33 218 -10 q 54 153 76 75 l 88 172 q 175 59 107 97 q 344 21 243 21 q 511 63 450 21 q 572 175 572 104 q 522 269 572 235 q 346 326 472 304 q 143 394 201 351 q 85 515 85 438 q 118 613 85 569 q 210 683 151 657 q 344 708 269 708 q 519 667 454 708 q 604 536 583 625 l 571 517 q 344 675 535 675 q 231 655 282 675 q 152 599 181 635 q 124 522 124 564 q 175 420 124 457 q 357 361 226 383 q 554 295 497 338 q 611 176 611 253 z "},"ţ":{"ha":486,"x_min":21,"x_max":474,"o":"m 474 40 q 411 1 449 17 q 331 -14 374 -14 l 321 -14 q 399 -83 375 -47 q 422 -161 422 -119 q 388 -249 422 -215 q 296 -283 353 -283 q 216 -271 247 -283 q 158 -228 185 -258 l 175 -200 q 227 -242 200 -229 q 293 -254 254 -254 q 362 -228 336 -254 q 388 -160 388 -203 q 360 -82 388 -117 q 257 -1 332 -47 q 160 175 160 35 l 160 661 l 21 661 l 21 694 l 160 694 l 160 872 l 199 883 l 199 694 l 464 694 l 464 661 l 199 661 l 199 178 q 335 21 199 21 q 457 72 407 21 l 474 40 z "},"ș":{"ha":678,"x_min":54,"x_max":611,"o":"m 339 -14 q 154 29 231 -14 q 54 153 78 72 l 88 172 q 175 59 107 97 q 344 21 243 21 q 511 63 450 21 q 572 175 572 104 q 522 269 572 235 q 346 326 472 304 q 143 394 201 351 q 85 515 85 438 q 118 613 85 569 q 210 683 151 657 q 344 708 269 708 q 519 667 454 708 q 604 536 583 625 l 571 517 q 344 675 535 675 q 231 655 282 675 q 152 599 181 635 q 124 522 124 564 q 175 420 124 457 q 357 361 226 383 q 554 295 497 338 q 611 176 611 253 q 538 38 611 89 q 339 -14 464 -14 m 293 -321 l 263 -321 l 331 -97 l 372 -97 l 293 -321 z "},"ț":{"ha":481,"x_min":21,"x_max":474,"o":"m 474 40 q 411 1 449 17 q 331 -14 374 -14 q 203 33 247 -14 q 160 175 160 81 l 160 661 l 21 661 l 21 694 l 160 694 l 160 872 l 199 883 l 199 694 l 464 694 l 464 661 l 199 661 l 199 178 q 335 21 199 21 q 457 72 407 21 l 474 40 m 251 -321 l 221 -321 l 289 -97 l 331 -97 l 251 -321 z "},"ų":{"ha":797,"x_min":113,"x_max":707,"o":"m 707 -251 q 604 -283 668 -283 q 513 -255 547 -283 q 478 -176 478 -226 q 514 -82 478 -122 q 642 10 550 -42 l 639 168 q 533 36 610 86 q 357 -14 457 -14 q 178 50 243 -14 q 113 233 113 114 l 113 694 l 151 694 l 151 242 q 206 77 151 133 q 364 21 261 21 q 513 61 450 21 q 607 163 575 101 q 639 283 639 224 l 639 694 l 678 694 l 678 0 q 545 -92 581 -57 q 510 -174 510 -126 q 536 -233 510 -212 q 607 -253 563 -253 q 694 -228 665 -253 l 707 -251 z "},"ů":{"ha":797,"x_min":113,"x_max":678,"o":"m 678 694 l 678 0 l 642 0 l 640 165 q 535 35 611 83 q 357 -14 460 -14 q 178 50 243 -14 q 113 233 113 114 l 113 694 l 151 694 l 151 242 q 206 77 151 133 q 364 21 261 21 q 513 60 451 21 q 607 160 575 100 q 639 281 639 221 l 639 694 l 678 694 m 393 1040 q 483 1006 447 1040 q 518 919 518 972 q 483 833 518 867 q 393 799 447 799 q 303 833 339 799 q 268 919 268 867 q 303 1006 268 972 q 393 1040 339 1040 m 393 1013 q 327 986 354 1013 q 300 919 300 960 q 327 854 300 881 q 393 828 354 828 q 459 854 432 828 q 486 919 486 881 q 460 986 486 960 q 393 1013 433 1013 z "},"v":{"ha":678,"x_min":28,"x_max":650,"o":"m 650 694 l 360 0 l 319 0 l 28 694 l 72 694 l 339 43 l 608 694 l 650 694 z "},"w":{"ha":1101,"x_min":43,"x_max":1060,"o":"m 1060 694 l 826 0 l 788 0 l 550 643 l 314 0 l 275 0 l 43 694 l 85 694 l 296 49 l 531 694 l 571 694 l 807 49 l 1017 694 l 1060 694 z "},"x":{"ha":671,"x_min":29,"x_max":651,"o":"m 599 0 l 333 329 l 78 0 l 29 0 l 310 360 l 40 694 l 93 694 l 336 392 l 569 694 l 618 694 l 360 363 l 651 0 l 599 0 z "},"y":{"ha":682,"x_min":0,"x_max":653,"o":"m 311 -136 q 229 -262 274 -226 q 117 -299 185 -299 q 0 -251 33 -299 l 17 -219 q 117 -265 47 -265 q 207 -235 169 -265 q 276 -128 244 -206 l 328 -1 l 33 694 l 78 694 l 318 113 l 347 43 l 375 117 l 610 694 l 653 694 l 311 -136 z "},"ý":{"ha":682,"x_min":0,"x_max":653,"o":"m 311 -136 q 229 -262 274 -226 q 117 -299 185 -299 q 0 -251 33 -299 l 17 -219 q 117 -265 47 -265 q 207 -235 169 -265 q 276 -128 244 -206 l 328 -1 l 33 694 l 78 694 l 318 113 l 347 43 l 375 117 l 610 694 l 653 694 l 311 -136 m 485 1019 l 360 810 l 326 810 l 442 1019 l 485 1019 z "},"ÿ":{"ha":682,"x_min":0,"x_max":653,"o":"m 311 -136 q 229 -262 274 -226 q 117 -299 185 -299 q 0 -251 33 -299 l 17 -219 q 117 -265 47 -265 q 207 -235 169 -265 q 276 -128 244 -206 l 328 -1 l 33 694 l 78 694 l 318 113 l 347 43 l 375 117 l 610 694 l 653 694 l 311 -136 m 217 906 q 246 895 235 906 q 257 867 257 885 q 246 838 257 849 q 217 826 235 826 q 188 838 199 826 q 176 867 176 849 q 188 895 176 885 q 217 906 199 906 m 475 906 q 503 895 493 906 q 514 867 514 885 q 503 838 514 849 q 475 826 493 826 q 446 838 457 826 q 435 867 435 849 q 446 895 435 885 q 475 906 457 906 z "},"z":{"ha":672,"x_min":50,"x_max":626,"o":"m 58 32 l 500 589 l 563 661 l 50 661 l 50 694 l 607 694 l 607 663 l 186 128 l 106 33 l 626 33 l 626 0 l 58 0 l 58 32 z "},"ź":{"ha":672,"x_min":50,"x_max":626,"o":"m 58 32 l 500 589 l 563 661 l 50 661 l 50 694 l 607 694 l 607 663 l 186 128 l 106 33 l 626 33 l 626 0 l 58 0 l 58 32 m 471 1019 l 346 810 l 313 810 l 428 1019 l 471 1019 z "},"ž":{"ha":672,"x_min":50,"x_max":626,"o":"m 58 32 l 500 589 l 563 661 l 50 661 l 50 694 l 607 694 l 607 663 l 186 128 l 106 33 l 626 33 l 626 0 l 58 0 l 58 32 m 356 810 l 311 810 l 160 1014 l 199 1014 l 333 839 l 468 1014 l 507 1014 l 356 810 z "},"ż":{"ha":672,"x_min":50,"x_max":626,"o":"m 58 32 l 500 589 l 563 661 l 50 661 l 50 694 l 607 694 l 607 663 l 186 128 l 106 33 l 626 33 l 626 0 l 58 0 l 58 32 m 332 911 q 361 900 350 911 q 372 871 372 889 q 362 842 372 853 q 332 831 351 831 q 303 842 314 831 q 292 871 292 853 q 303 900 292 889 q 332 911 314 911 z "},"ﬁ":{"ha":743,"x_min":22,"x_max":644,"o":"m 200 694 l 453 694 l 453 661 l 200 661 l 200 0 l 161 0 l 161 661 l 22 661 l 22 694 l 161 694 l 161 810 q 212 965 161 908 q 354 1021 263 1021 q 463 981 425 1021 l 449 950 q 409 978 431 969 q 356 986 388 986 q 241 940 282 986 q 200 808 200 893 l 200 694 m 604 831 q 574 842 585 831 q 563 871 563 853 q 574 900 563 889 q 604 911 586 911 q 633 900 622 911 q 644 871 644 889 q 633 842 644 853 q 604 831 622 831 m 624 0 l 585 0 l 585 694 l 624 694 l 624 0 z "},"ﬂ":{"ha":811,"x_min":22,"x_max":799,"o":"m 200 694 l 453 694 l 453 661 l 200 661 l 200 0 l 161 0 l 161 661 l 22 661 l 22 694 l 161 694 l 161 810 q 212 965 161 908 q 354 1021 263 1021 q 463 981 425 1021 l 449 950 q 409 978 431 969 q 356 986 388 986 q 241 940 282 986 q 200 808 200 893 l 200 694 m 618 156 q 641 53 618 85 q 714 22 664 22 q 759 26 742 22 q 799 39 776 29 l 794 3 q 710 -14 761 -14 q 611 26 643 -14 q 579 153 579 67 l 579 1014 l 618 1014 l 618 156 z "},"ª":{"ha":497,"x_min":43,"x_max":486,"o":"m 451 482 q 486 489 472 482 l 485 463 q 444 453 468 453 q 374 539 374 453 l 374 540 q 303 476 354 499 q 193 453 251 453 q 83 483 124 453 q 43 567 43 513 q 85 654 43 621 q 218 703 128 688 l 371 729 l 371 769 q 335 861 371 828 q 235 894 300 894 q 135 871 174 894 q 79 797 97 847 l 51 810 q 117 894 69 864 q 235 924 164 924 q 361 885 315 924 q 407 772 407 846 l 407 539 q 451 482 407 482 m 197 483 q 276 497 236 483 q 344 540 317 511 q 371 607 371 568 l 371 703 l 232 676 q 115 636 151 663 q 79 567 79 610 q 110 505 79 526 q 197 483 142 483 m 50 333 l 468 333 l 468 304 l 50 304 l 50 333 z "},"º":{"ha":493,"x_min":49,"x_max":444,"o":"m 247 454 q 97 512 146 454 q 49 689 49 569 q 97 866 49 808 q 247 924 146 924 q 397 866 349 924 q 444 689 444 808 q 397 512 444 569 q 247 454 349 454 m 247 485 q 369 535 331 485 q 408 689 408 585 q 369 844 408 793 q 247 894 331 894 q 124 844 164 894 q 85 689 85 793 q 124 535 85 585 q 247 485 164 485 m 60 333 l 435 333 l 435 304 l 60 304 l 60 333 z "},"π":{"ha":957,"x_min":15,"x_max":931,"o":"m 703 661 l 703 142 q 744 58 703 82 q 857 33 785 33 l 850 0 q 713 32 761 0 q 664 139 664 64 l 664 661 l 276 661 l 276 0 l 238 0 l 238 661 l 15 661 l 15 694 l 931 694 l 931 661 l 703 661 z "},"⁄":{"ha":293,"x_min":-199,"x_max":492,"o":"m 450 917 l 492 917 l -157 0 l -199 0 l 450 917 z "},"½":{"ha":1040,"x_min":15,"x_max":999,"o":"m 203 924 l 203 372 l 167 372 l 167 788 q 169 879 167 849 q 101 821 143 847 q 15 779 60 794 l 15 810 q 104 855 57 822 q 172 924 151 888 l 203 924 m 732 917 l 774 917 l 125 0 l 83 0 l 732 917 m 626 24 q 779 151 701 85 q 899 272 857 215 q 942 386 942 329 q 903 485 942 449 q 800 522 865 522 q 693 482 733 522 q 650 371 653 442 l 617 381 q 672 506 622 458 q 801 553 721 553 q 931 507 883 553 q 978 386 978 461 q 803 131 978 272 l 675 26 l 675 25 l 721 25 l 999 25 l 999 -6 l 626 -6 l 626 24 z "},"¼":{"ha":922,"x_min":15,"x_max":894,"o":"m 203 924 l 203 372 l 167 372 l 167 788 q 169 879 167 849 q 101 821 143 847 q 15 779 60 794 l 15 810 q 104 855 57 822 q 172 924 151 888 l 203 924 m 732 917 l 774 917 l 125 0 l 83 0 l 732 917 m 894 156 l 785 156 l 785 -6 l 751 -6 l 751 156 l 476 156 l 476 181 l 740 546 l 785 546 l 785 185 l 894 185 l 894 156 m 751 185 l 751 446 q 753 513 751 490 l 750 513 l 706 447 l 513 185 l 751 185 z "},"¾":{"ha":1079,"x_min":22,"x_max":1053,"o":"m 207 931 q 329 890 285 931 q 374 783 374 849 q 347 698 374 732 q 271 651 319 664 l 271 649 q 353 607 321 643 q 386 518 386 571 q 335 406 386 449 q 207 364 285 364 q 88 397 135 364 q 22 492 40 431 l 54 508 q 105 424 67 454 q 208 394 143 394 q 310 428 271 394 q 350 519 350 461 q 315 604 350 574 q 214 635 281 635 l 179 635 l 179 664 l 214 664 q 303 697 271 664 q 336 781 336 731 q 302 868 336 836 q 207 900 268 900 q 117 874 153 900 q 71 801 82 847 l 39 815 q 99 899 53 868 q 207 931 144 931 m 890 917 l 932 917 l 283 0 l 242 0 l 890 917 m 1053 156 l 943 156 l 943 -6 l 910 -6 l 910 156 l 635 156 l 635 181 l 899 546 l 943 546 l 943 185 l 1053 185 l 1053 156 m 910 185 l 910 446 q 911 513 910 490 l 908 513 l 864 447 l 671 185 l 910 185 z "},"➀":{"ha":1264,"x_min":124,"x_max":1140,"o":"m 632 -56 q 369 10 485 -56 q 189 193 254 76 q 124 458 124 310 q 189 724 124 607 q 369 906 254 840 q 632 972 485 972 q 894 906 779 972 q 1075 724 1010 840 q 1140 458 1140 607 q 1075 193 1140 310 q 894 10 1010 76 q 632 -56 779 -56 m 632 -24 q 876 38 768 -24 q 1044 210 983 100 q 1106 458 1106 319 q 1044 707 1106 597 q 876 878 983 817 q 632 940 768 940 q 388 878 496 940 q 220 707 281 817 q 160 458 160 597 q 220 210 160 319 q 388 38 281 100 q 632 -24 496 -24 m 671 740 l 671 189 l 635 189 l 635 604 q 638 696 635 635 q 569 638 611 664 q 483 596 528 611 l 483 626 q 572 672 525 639 q 640 740 619 704 l 671 740 z "},"➁":{"ha":1264,"x_min":124,"x_max":1140,"o":"m 632 -56 q 369 10 485 -56 q 189 193 254 76 q 124 458 124 310 q 189 724 124 607 q 369 906 254 840 q 632 972 485 972 q 894 906 779 972 q 1075 724 1010 840 q 1140 458 1140 607 q 1075 193 1140 310 q 894 10 1010 76 q 632 -56 779 -56 m 632 -24 q 876 38 768 -24 q 1044 210 983 100 q 1106 458 1106 319 q 1044 707 1106 597 q 876 878 983 817 q 632 940 768 940 q 388 878 496 940 q 220 707 281 817 q 160 458 160 597 q 220 210 160 319 q 388 38 281 100 q 632 -24 496 -24 m 454 232 q 607 360 529 293 q 727 481 685 424 q 769 594 769 538 q 731 694 769 657 q 628 731 693 731 q 521 690 561 731 q 478 579 481 650 l 444 589 q 499 714 450 667 q 629 761 549 761 q 758 715 711 761 q 806 594 806 669 q 631 339 806 481 l 503 235 l 503 233 l 549 233 l 826 233 l 826 203 l 454 203 l 454 232 z "},"➂":{"ha":1264,"x_min":124,"x_max":1140,"o":"m 632 -56 q 369 10 485 -56 q 189 193 254 76 q 124 458 124 310 q 189 724 124 607 q 369 906 254 840 q 632 972 485 972 q 894 906 779 972 q 1075 724 1010 840 q 1140 458 1140 607 q 1075 193 1140 310 q 894 10 1010 76 q 632 -56 779 -56 m 632 -24 q 876 38 768 -24 q 1044 210 983 100 q 1106 458 1106 319 q 1044 707 1106 597 q 876 878 983 817 q 632 940 768 940 q 388 878 496 940 q 220 707 281 817 q 160 458 160 597 q 220 210 160 319 q 388 38 281 100 q 632 -24 496 -24 m 635 743 q 757 702 713 743 q 801 596 801 661 q 774 510 801 544 q 699 464 747 476 l 699 461 q 781 419 749 456 q 814 331 814 383 q 763 219 814 261 q 635 176 713 176 q 515 210 563 176 q 450 304 468 243 l 482 321 q 533 237 494 267 q 636 207 571 207 q 738 240 699 207 q 778 332 778 274 q 743 417 778 386 q 642 447 708 447 l 607 447 l 607 476 l 642 476 q 731 510 699 476 q 764 593 764 543 q 730 681 764 649 q 635 713 696 713 q 545 686 581 713 q 499 614 510 660 l 467 628 q 526 712 481 681 q 635 743 572 743 z "},"➃":{"ha":1264,"x_min":124,"x_max":1140,"o":"m 632 -56 q 369 10 485 -56 q 189 193 254 76 q 124 458 124 310 q 189 724 124 607 q 369 906 254 840 q 632 972 485 972 q 894 906 779 972 q 1075 724 1010 840 q 1140 458 1140 607 q 1075 193 1140 310 q 894 10 1010 76 q 632 -56 779 -56 m 632 -24 q 876 38 768 -24 q 1044 210 983 100 q 1106 458 1106 319 q 1044 707 1106 597 q 876 878 983 817 q 632 940 768 940 q 388 878 496 940 q 220 707 281 817 q 160 458 160 597 q 220 210 160 319 q 388 38 281 100 q 632 -24 496 -24 m 811 350 l 701 350 l 701 189 l 668 189 l 668 350 l 393 350 l 393 375 l 657 740 l 701 740 l 701 379 l 811 379 l 811 350 m 668 379 l 668 640 q 669 707 668 685 l 667 707 l 622 642 l 429 379 l 668 379 z "},"➄":{"ha":1264,"x_min":124,"x_max":1140,"o":"m 632 -56 q 369 10 485 -56 q 189 193 254 76 q 124 458 124 310 q 189 724 124 607 q 369 906 254 840 q 632 972 485 972 q 894 906 779 972 q 1075 724 1010 840 q 1140 458 1140 607 q 1075 193 1140 310 q 894 10 1010 76 q 632 -56 779 -56 m 632 -24 q 876 38 768 -24 q 1044 210 983 100 q 1106 458 1106 319 q 1044 707 1106 597 q 876 878 983 817 q 632 940 768 940 q 388 878 496 940 q 220 707 281 817 q 160 458 160 597 q 220 210 160 319 q 388 38 281 100 q 632 -24 496 -24 m 642 522 q 768 474 719 522 q 817 349 817 426 q 766 220 817 268 q 632 172 715 172 q 443 304 479 172 l 475 319 q 526 233 486 263 q 632 203 565 203 q 739 244 697 203 q 781 349 781 285 q 741 453 781 414 q 636 493 701 493 q 547 477 581 493 q 490 429 513 461 l 458 429 l 485 731 l 793 731 l 793 700 l 514 700 l 496 504 l 490 465 l 492 465 q 642 522 535 522 z "},"➅":{"ha":1264,"x_min":124,"x_max":1140,"o":"m 632 -56 q 369 10 485 -56 q 189 193 254 76 q 124 458 124 310 q 189 724 124 607 q 369 906 254 840 q 632 972 485 972 q 894 906 779 972 q 1075 724 1010 840 q 1140 458 1140 607 q 1075 193 1140 310 q 894 10 1010 76 q 632 -56 779 -56 m 632 -24 q 876 38 768 -24 q 1044 210 983 100 q 1106 458 1106 319 q 1044 707 1106 597 q 876 878 983 817 q 632 940 768 940 q 388 878 496 940 q 220 707 281 817 q 160 458 160 597 q 220 210 160 319 q 388 38 281 100 q 632 -24 496 -24 m 629 176 q 481 249 532 176 q 429 460 429 322 q 488 669 429 596 q 640 743 546 743 q 797 638 758 743 l 768 624 q 639 713 735 713 q 506 636 550 713 q 463 449 463 560 q 465 389 463 428 l 467 389 q 523 486 476 450 q 633 522 569 522 q 763 476 715 522 q 810 350 810 429 q 762 223 810 269 q 629 176 714 176 m 631 207 q 735 245 697 207 q 774 350 774 283 q 735 453 774 415 q 632 492 697 492 q 524 449 565 492 q 482 350 482 406 q 524 248 482 289 q 631 207 567 207 z "},"➆":{"ha":1264,"x_min":124,"x_max":1140,"o":"m 632 -56 q 369 10 485 -56 q 189 193 254 76 q 124 458 124 310 q 189 724 124 607 q 369 906 254 840 q 632 972 485 972 q 894 906 779 972 q 1075 724 1010 840 q 1140 458 1140 607 q 1075 193 1140 310 q 894 10 1010 76 q 632 -56 779 -56 m 632 -24 q 876 38 768 -24 q 1044 210 983 100 q 1106 458 1106 319 q 1044 707 1106 597 q 876 878 983 817 q 632 940 768 940 q 388 878 496 940 q 220 707 281 817 q 160 458 160 597 q 220 210 160 319 q 388 38 281 100 q 632 -24 496 -24 m 832 718 l 832 688 q 674 447 728 575 q 619 167 619 318 l 585 167 q 793 688 585 458 l 439 688 l 439 718 l 832 718 z "},"➇":{"ha":1264,"x_min":124,"x_max":1140,"o":"m 632 -56 q 369 10 485 -56 q 189 193 254 76 q 124 458 124 310 q 189 724 124 607 q 369 906 254 840 q 632 972 485 972 q 894 906 779 972 q 1075 724 1010 840 q 1140 458 1140 607 q 1075 193 1140 310 q 894 10 1010 76 q 632 -56 779 -56 m 632 -24 q 876 38 768 -24 q 1044 210 983 100 q 1106 458 1106 319 q 1044 707 1106 597 q 876 878 983 817 q 632 940 768 940 q 388 878 496 940 q 220 707 281 817 q 160 458 160 597 q 220 210 160 319 q 388 38 281 100 q 632 -24 496 -24 m 632 743 q 755 705 708 743 q 801 603 801 667 q 774 522 801 556 q 699 474 747 488 l 699 472 q 792 421 757 458 q 826 329 826 383 q 772 219 826 261 q 632 176 718 176 q 490 219 544 176 q 436 329 436 261 q 471 422 436 383 q 564 472 506 460 l 564 474 q 488 522 515 488 q 460 603 460 556 q 506 705 460 667 q 632 743 553 743 m 632 714 q 533 683 571 714 q 496 601 496 651 q 533 519 496 551 q 632 488 571 488 q 728 519 692 488 q 765 601 765 551 q 728 683 765 651 q 632 714 692 714 m 632 207 q 745 242 701 207 q 789 332 789 276 q 745 423 789 388 q 632 458 701 458 q 517 423 561 458 q 472 332 472 388 q 516 242 472 276 q 632 207 560 207 z "},"➈":{"ha":1264,"x_min":124,"x_max":1140,"o":"m 632 -56 q 369 10 485 -56 q 189 193 254 76 q 124 458 124 310 q 189 724 124 607 q 369 906 254 840 q 632 972 485 972 q 894 906 779 972 q 1075 724 1010 840 q 1140 458 1140 607 q 1075 193 1140 310 q 894 10 1010 76 q 632 -56 779 -56 m 632 -24 q 876 38 768 -24 q 1044 210 983 100 q 1106 458 1106 319 q 1044 707 1106 597 q 876 878 983 817 q 632 940 768 940 q 388 878 496 940 q 220 707 281 817 q 160 458 160 597 q 220 210 160 319 q 388 38 281 100 q 632 -24 496 -24 m 631 743 q 783 668 729 743 q 836 460 836 593 q 781 251 836 325 q 632 176 726 176 q 513 208 561 176 q 449 296 465 240 l 482 311 q 531 235 493 263 q 632 207 568 207 q 761 281 719 207 q 803 458 803 354 q 794 546 803 504 l 793 546 q 769 469 793 503 q 706 417 744 435 q 629 399 668 399 q 495 446 544 399 q 446 572 446 493 q 496 697 446 650 q 631 743 546 743 m 632 713 q 523 674 564 713 q 482 571 482 635 q 522 468 482 508 q 629 428 563 428 q 706 448 671 428 q 760 501 740 468 q 779 569 779 533 q 738 672 779 631 q 632 713 696 713 z "},"₀":{"ha":507,"x_min":51,"x_max":456,"o":"m 254 -271 q 103 -198 156 -271 q 51 13 51 -125 q 103 223 51 150 q 254 296 156 296 q 403 223 351 296 q 456 13 456 150 q 403 -198 456 -125 q 254 -271 351 -271 m 254 -240 q 377 -175 335 -240 q 419 13 419 -110 q 377 200 419 135 q 254 265 335 265 q 131 200 174 265 q 88 13 88 135 q 131 -175 88 -110 q 254 -240 174 -240 z "},"₁":{"ha":282,"x_min":15,"x_max":203,"o":"m 203 289 l 203 -262 l 167 -262 l 167 153 q 169 244 167 183 q 101 186 143 213 q 15 144 60 160 l 15 175 q 104 220 57 188 q 172 289 151 253 l 203 289 z "},"₂":{"ha":467,"x_min":42,"x_max":424,"o":"m 51 -233 q 204 -106 126 -172 q 324 15 282 -42 q 367 129 367 72 q 328 228 367 192 q 225 265 290 265 q 118 225 158 265 q 75 114 78 185 l 42 124 q 97 249 47 201 q 226 296 146 296 q 356 250 308 296 q 403 129 403 204 q 228 -126 403 15 l 100 -231 l 100 -232 l 146 -232 l 424 -232 l 424 -262 l 51 -262 l 51 -233 z "},"₃":{"ha":440,"x_min":22,"x_max":386,"o":"m 207 296 q 329 255 285 296 q 374 149 374 214 q 347 63 374 97 q 271 17 319 29 l 271 14 q 353 -28 321 8 q 386 -117 386 -64 q 335 -228 386 -186 q 207 -271 285 -271 q 88 -237 135 -271 q 22 -143 40 -204 l 54 -126 q 105 -210 67 -181 q 208 -240 143 -240 q 310 -207 271 -240 q 350 -115 350 -174 q 315 -31 350 -61 q 214 0 281 0 l 179 0 l 179 29 l 214 29 q 303 63 271 29 q 336 146 336 96 q 302 233 336 201 q 207 265 268 265 q 117 239 153 265 q 71 167 82 213 l 39 181 q 99 265 53 233 q 207 296 144 296 z "},"₄":{"ha":464,"x_min":19,"x_max":438,"o":"m 438 -101 l 328 -101 l 328 -262 l 294 -262 l 294 -101 l 19 -101 l 19 -76 l 283 289 l 328 289 l 328 -72 l 438 -72 l 438 -101 m 294 -72 l 294 189 q 296 256 294 233 l 293 256 l 249 190 l 56 -72 l 294 -72 z "},"₅":{"ha":465,"x_min":47,"x_max":421,"o":"m 246 81 q 372 33 324 81 q 421 -93 421 -15 q 370 -222 421 -174 q 236 -269 319 -269 q 47 -137 83 -269 l 79 -122 q 130 -209 90 -179 q 236 -239 169 -239 q 343 -198 301 -239 q 385 -93 385 -157 q 345 12 385 -28 q 240 51 306 51 q 151 35 185 51 q 94 -12 117 19 l 63 -12 l 89 289 l 397 289 l 397 258 l 118 258 l 100 63 l 94 24 l 96 24 q 246 81 139 81 z "},"₆":{"ha":479,"x_min":53,"x_max":433,"o":"m 253 -271 q 104 -198 156 -271 q 53 13 53 -125 q 111 222 53 149 q 264 296 169 296 q 421 190 382 296 l 392 176 q 263 265 358 265 q 130 189 174 265 q 86 1 86 113 q 89 -58 86 -19 l 90 -58 q 147 39 100 3 q 257 75 193 75 q 386 28 339 75 q 433 -97 433 -18 q 385 -224 433 -178 q 253 -271 338 -271 m 254 -240 q 359 -202 321 -240 q 397 -97 397 -164 q 359 6 397 -32 q 256 44 321 44 q 147 1 189 44 q 106 -97 106 -42 q 148 -199 106 -158 q 254 -240 190 -240 z "},"₇":{"ha":413,"x_min":7,"x_max":400,"o":"m 400 289 l 400 258 q 242 17 296 146 q 188 -262 188 -111 l 153 -262 q 361 258 153 29 l 7 258 l 7 289 l 400 289 z "},"₈":{"ha":490,"x_min":50,"x_max":440,"o":"m 246 296 q 369 258 322 296 q 415 156 415 219 q 388 74 415 108 q 313 26 361 40 l 313 25 q 406 -26 371 11 q 440 -118 440 -64 q 386 -228 440 -186 q 246 -271 332 -271 q 104 -228 158 -271 q 50 -118 50 -186 q 85 -26 50 -64 q 178 25 119 13 l 178 26 q 101 74 129 40 q 74 156 74 108 q 120 258 74 219 q 246 296 167 296 m 246 267 q 147 235 185 267 q 110 154 110 204 q 147 72 110 104 q 246 40 185 40 q 342 72 306 40 q 379 154 379 104 q 342 235 379 204 q 246 267 306 267 m 246 -240 q 359 -206 315 -240 q 403 -115 403 -171 q 359 -24 403 -60 q 246 11 315 11 q 131 -24 175 11 q 86 -115 86 -60 q 130 -206 86 -171 q 246 -240 174 -240 z "},"₉":{"ha":494,"x_min":51,"x_max":442,"o":"m 236 296 q 388 221 335 296 q 442 13 442 146 q 387 -197 442 -122 q 238 -271 332 -271 q 119 -239 167 -271 q 54 -151 71 -207 l 88 -136 q 136 -212 99 -185 q 238 -240 174 -240 q 367 -167 325 -240 q 408 11 408 -93 q 400 99 408 57 l 399 99 q 374 22 399 56 q 312 -31 350 -12 q 235 -49 274 -49 q 101 -1 150 -49 q 51 125 51 46 q 101 249 51 203 q 236 296 151 296 m 238 265 q 128 226 169 265 q 88 124 88 188 q 128 21 88 61 q 235 -19 168 -19 q 311 1 276 -19 q 365 53 346 21 q 385 122 385 86 q 343 224 385 183 q 238 265 301 265 z "},"⁰":{"ha":507,"x_min":51,"x_max":456,"o":"m 254 454 q 103 527 156 454 q 51 738 51 600 q 103 948 51 875 q 254 1021 156 1021 q 403 948 351 1021 q 456 738 456 875 q 403 527 456 600 q 254 454 351 454 m 254 485 q 377 550 335 485 q 419 738 419 615 q 377 925 419 860 q 254 990 335 990 q 131 925 174 990 q 88 738 88 860 q 131 550 88 615 q 254 485 174 485 z "},"¹":{"ha":282,"x_min":15,"x_max":203,"o":"m 203 1014 l 203 463 l 167 463 l 167 878 q 169 969 167 908 q 101 911 143 938 q 15 869 60 885 l 15 900 q 104 945 57 913 q 172 1014 151 978 l 203 1014 z "},"²":{"ha":467,"x_min":42,"x_max":424,"o":"m 51 492 q 204 619 126 553 q 324 740 282 683 q 367 854 367 797 q 328 953 367 917 q 225 990 290 990 q 118 950 158 990 q 75 839 78 910 l 42 849 q 97 974 47 926 q 226 1021 146 1021 q 356 975 308 1021 q 403 854 403 929 q 228 599 403 740 l 100 494 l 100 493 l 146 493 l 424 493 l 424 463 l 51 463 l 51 492 z "},"³":{"ha":440,"x_min":22,"x_max":386,"o":"m 207 1021 q 329 980 285 1021 q 374 874 374 939 q 347 788 374 822 q 271 742 319 754 l 271 739 q 353 697 321 733 q 386 608 386 661 q 335 497 386 539 q 207 454 285 454 q 88 488 135 454 q 22 582 40 521 l 54 599 q 105 515 67 544 q 208 485 143 485 q 310 518 271 485 q 350 610 350 551 q 315 694 350 664 q 214 725 281 725 l 179 725 l 179 754 l 214 754 q 303 788 271 754 q 336 871 336 821 q 302 958 336 926 q 207 990 268 990 q 117 964 153 990 q 71 892 82 938 l 39 906 q 99 990 53 958 q 207 1021 144 1021 z "},"⁴":{"ha":464,"x_min":19,"x_max":438,"o":"m 438 624 l 328 624 l 328 463 l 294 463 l 294 624 l 19 624 l 19 649 l 283 1014 l 328 1014 l 328 653 l 438 653 l 438 624 m 294 653 l 294 914 q 296 981 294 958 l 293 981 l 249 915 l 56 653 l 294 653 z "},"⁵":{"ha":465,"x_min":47,"x_max":421,"o":"m 246 806 q 372 758 324 806 q 421 632 421 710 q 370 503 421 551 q 236 456 319 456 q 47 588 83 456 l 79 603 q 130 516 90 546 q 236 486 169 486 q 343 527 301 486 q 385 632 385 568 q 345 737 385 697 q 240 776 306 776 q 151 760 185 776 q 94 713 117 744 l 63 713 l 89 1014 l 397 1014 l 397 983 l 118 983 l 100 788 l 94 749 l 96 749 q 246 806 139 806 z "},"⁶":{"ha":479,"x_min":53,"x_max":433,"o":"m 253 454 q 104 527 156 454 q 53 738 53 600 q 111 947 53 874 q 264 1021 169 1021 q 421 915 382 1021 l 392 901 q 263 990 358 990 q 130 914 174 990 q 86 726 86 838 q 89 667 86 706 l 90 667 q 147 764 100 728 q 257 800 193 800 q 386 753 339 800 q 433 628 433 707 q 385 501 433 547 q 253 454 338 454 m 254 485 q 359 523 321 485 q 397 628 397 561 q 359 731 397 693 q 256 769 321 769 q 147 726 189 769 q 106 628 106 683 q 148 526 106 567 q 254 485 190 485 z "},"⁷":{"ha":413,"x_min":7,"x_max":400,"o":"m 400 1014 l 400 983 q 242 742 296 871 q 188 463 188 614 l 153 463 q 361 983 153 754 l 7 983 l 7 1014 l 400 1014 z "},"⁸":{"ha":490,"x_min":50,"x_max":440,"o":"m 246 1021 q 369 983 322 1021 q 415 881 415 944 q 388 799 415 833 q 313 751 361 765 l 313 750 q 406 699 371 736 q 440 607 440 661 q 386 497 440 539 q 246 454 332 454 q 104 497 158 454 q 50 607 50 539 q 85 699 50 661 q 178 750 119 738 l 178 751 q 101 799 129 765 q 74 881 74 833 q 120 983 74 944 q 246 1021 167 1021 m 246 992 q 147 960 185 992 q 110 879 110 929 q 147 797 110 829 q 246 765 185 765 q 342 797 306 765 q 379 879 379 829 q 342 960 379 929 q 246 992 306 992 m 246 485 q 359 519 315 485 q 403 610 403 554 q 359 701 403 665 q 246 736 315 736 q 131 701 175 736 q 86 610 86 665 q 130 519 86 554 q 246 485 174 485 z "},"⁹":{"ha":494,"x_min":51,"x_max":442,"o":"m 236 1021 q 388 946 335 1021 q 442 738 442 871 q 387 528 442 603 q 238 454 332 454 q 119 486 167 454 q 54 574 71 518 l 88 589 q 136 513 99 540 q 238 485 174 485 q 367 558 325 485 q 408 736 408 632 q 400 824 408 782 l 399 824 q 374 747 399 781 q 312 694 350 713 q 235 676 274 676 q 101 724 150 676 q 51 850 51 771 q 101 974 51 928 q 236 1021 151 1021 m 238 990 q 128 951 169 990 q 88 849 88 913 q 128 746 88 786 q 235 706 168 706 q 311 726 276 706 q 365 778 346 746 q 385 847 385 811 q 343 949 385 908 q 238 990 301 990 z "},"*":{"ha":725,"x_min":65,"x_max":658,"o":"m 449 619 l 556 471 l 528 450 l 419 597 l 363 686 l 304 597 l 197 450 l 168 471 l 276 619 l 342 701 l 239 729 l 65 786 l 76 819 l 250 764 l 350 725 l 344 831 l 344 1014 l 381 1014 l 381 831 l 375 725 l 474 764 l 649 819 l 658 786 l 485 729 l 382 701 l 449 619 z "},"\\":{"ha":508,"x_min":49,"x_max":461,"o":"m 88 1014 l 461 -97 l 422 -97 l 49 1014 l 88 1014 z "},"·":{"ha":275,"x_min":96,"x_max":179,"o":"m 138 540 q 168 529 157 540 q 179 499 179 518 q 168 469 179 481 q 138 457 157 457 q 108 469 119 457 q 96 499 96 481 q 108 529 96 518 q 138 540 119 540 z "},"•":{"ha":597,"x_min":199,"x_max":399,"o":"m 299 569 q 370 542 342 569 q 399 471 399 514 q 371 399 399 428 q 299 371 343 371 q 227 399 256 371 q 199 471 199 428 q 227 542 199 514 q 299 569 256 569 z "},":":{"ha":294,"x_min":106,"x_max":189,"o":"m 147 697 q 178 686 167 697 q 189 656 189 675 q 178 626 189 638 q 147 614 167 614 q 117 626 129 614 q 106 656 106 638 q 117 686 106 675 q 147 697 129 697 m 147 75 q 178 64 167 75 q 189 33 189 53 q 178 3 189 15 q 147 -8 167 -8 q 117 3 129 -8 q 106 33 106 15 q 117 64 106 53 q 147 75 129 75 z "},",":{"ha":258,"x_min":68,"x_max":188,"o":"m 131 75 q 173 54 158 75 q 188 -1 188 33 q 163 -92 188 -49 q 93 -158 138 -135 l 68 -139 q 132 -86 106 -124 q 158 -14 158 -49 q 156 7 158 -7 l 153 7 q 126 -8 144 -8 q 99 3 110 -8 q 88 33 88 15 q 100 63 88 50 q 131 75 113 75 z "},"…":{"ha":825,"x_min":96,"x_max":728,"o":"m 686 75 q 717 64 706 75 q 728 33 728 53 q 717 3 728 15 q 686 -8 706 -8 q 656 3 668 -8 q 644 33 644 15 q 656 64 644 53 q 686 75 668 75 m 413 75 q 443 64 432 75 q 454 33 454 53 q 443 3 454 15 q 413 -8 432 -8 q 383 3 394 -8 q 371 33 371 15 q 383 64 371 53 q 413 75 394 75 m 138 75 q 168 64 157 75 q 179 33 179 53 q 168 3 179 15 q 138 -8 157 -8 q 108 3 119 -8 q 96 33 96 15 q 108 64 96 53 q 138 75 119 75 z "},"!":{"ha":276,"x_min":96,"x_max":181,"o":"m 158 439 l 156 246 l 121 246 l 118 439 l 118 917 l 158 917 l 158 439 m 138 75 q 169 63 157 75 q 181 33 181 51 q 169 3 181 15 q 138 -8 157 -8 q 108 3 119 -8 q 96 33 96 15 q 108 63 96 51 q 138 75 119 75 z "},"¡":{"ha":265,"x_min":90,"x_max":175,"o":"m 132 619 q 102 631 114 619 q 90 661 90 643 q 102 691 90 679 q 132 703 114 703 q 163 691 151 703 q 175 661 175 679 q 163 631 175 643 q 132 619 151 619 m 113 257 l 115 449 l 150 449 l 153 257 l 153 -222 l 113 -222 l 113 257 z "},"#":{"ha":881,"x_min":54,"x_max":826,"o":"m 629 608 l 585 321 l 781 321 l 781 289 l 579 289 l 535 0 l 499 0 l 543 289 l 278 289 l 233 0 l 197 0 l 242 289 l 54 289 l 54 321 l 247 321 l 292 608 l 99 608 l 99 640 l 296 640 l 339 917 l 375 917 l 332 640 l 597 640 l 640 917 l 676 917 l 633 640 l 826 640 l 826 608 l 629 608 m 593 608 l 328 608 l 283 321 l 549 321 l 593 608 z "},".":{"ha":258,"x_min":88,"x_max":171,"o":"m 129 75 q 160 64 149 75 q 171 33 171 53 q 160 3 171 15 q 129 -8 149 -8 q 99 3 111 -8 q 88 33 88 15 q 99 64 88 53 q 129 75 111 75 z "},"?":{"ha":675,"x_min":44,"x_max":615,"o":"m 344 931 q 540 867 465 931 q 615 696 615 804 q 549 507 615 579 q 343 399 482 435 l 343 224 l 304 224 l 304 421 q 466 485 407 450 q 551 571 525 521 q 576 693 576 621 q 513 842 576 788 q 343 896 449 896 q 78 678 108 896 l 44 696 q 344 931 85 931 m 324 75 q 353 63 342 75 q 365 33 365 51 q 353 3 365 15 q 324 -8 342 -8 q 294 3 306 -8 q 282 33 282 15 q 294 64 282 53 q 324 75 306 75 z "},"¿":{"ha":669,"x_min":57,"x_max":628,"o":"m 349 614 q 319 626 331 614 q 307 656 307 638 q 319 685 307 674 q 349 697 331 697 q 379 686 368 697 q 390 656 390 675 q 379 626 390 638 q 349 614 368 614 m 328 -242 q 132 -178 207 -242 q 57 -7 57 -115 q 123 182 57 110 q 329 290 189 254 l 329 465 l 368 465 l 368 268 q 206 203 265 239 q 122 118 147 168 q 96 -4 96 68 q 160 -153 96 -99 q 329 -207 224 -207 q 593 11 564 -207 l 628 -7 q 328 -242 588 -242 z "},"\"":{"ha":376,"x_min":96,"x_max":285,"o":"m 278 703 l 243 703 l 243 947 l 285 947 l 278 703 m 131 703 l 96 703 l 96 947 l 138 947 l 131 703 z "},"'":{"ha":229,"x_min":96,"x_max":138,"o":"m 131 703 l 96 703 l 96 947 l 138 947 l 131 703 z "},";":{"ha":294,"x_min":85,"x_max":204,"o":"m 151 614 q 122 626 133 614 q 110 656 110 638 q 122 686 110 675 q 151 697 133 697 q 182 686 171 697 q 193 656 193 675 q 182 626 193 638 q 151 614 171 614 m 147 75 q 190 54 175 75 q 204 -1 204 33 q 180 -92 204 -49 q 110 -158 156 -136 l 85 -139 q 149 -86 122 -124 q 175 -14 175 -49 q 172 7 175 -7 l 169 7 q 143 -8 161 -8 q 115 3 126 -8 q 104 33 104 15 q 117 63 104 50 q 147 75 129 75 z "},"/":{"ha":508,"x_min":47,"x_max":460,"o":"m 86 -97 l 47 -97 l 421 1014 l 460 1014 l 86 -97 z "},"_":{"ha":704,"x_min":0,"x_max":704,"o":"m 704 -169 l 0 -169 l 0 -135 l 704 -135 l 704 -169 z "},"₍":{"ha":274,"x_min":101,"x_max":285,"o":"m 285 385 q 174 217 211 307 q 136 13 136 128 q 174 -192 136 -103 q 285 -360 211 -282 l 265 -379 q 144 -205 186 -304 q 101 13 101 -106 q 144 230 101 131 q 265 404 186 329 l 285 385 z "},"₎":{"ha":274,"x_min":-11,"x_max":172,"o":"m 8 404 q 130 230 88 329 q 172 13 172 131 q 130 -205 172 -106 q 8 -379 88 -304 l -11 -360 q 100 -192 63 -282 q 138 13 138 -103 q 100 217 138 128 q -11 385 63 307 l 8 404 z "},"{":{"ha":383,"x_min":17,"x_max":350,"o":"m 211 -83 q 247 -176 211 -143 q 350 -208 283 -208 l 347 -242 q 219 -199 264 -242 q 174 -82 174 -157 l 174 246 q 133 345 174 311 q 17 379 93 379 l 17 413 q 133 447 93 413 q 174 544 174 481 l 174 872 q 219 989 174 947 q 347 1031 264 1031 l 350 999 q 247 965 283 999 q 211 874 211 932 l 211 543 q 181 449 211 486 q 94 396 151 411 q 181 342 151 381 q 211 247 211 304 l 211 -83 z "},"}":{"ha":383,"x_min":33,"x_max":368,"o":"m 210 544 q 251 447 210 481 q 368 413 292 413 l 368 379 q 251 344 292 379 q 210 246 210 310 l 210 -82 q 165 -199 210 -157 q 36 -242 119 -242 l 33 -208 q 136 -176 100 -208 q 172 -83 172 -143 l 172 247 q 203 342 172 304 q 290 396 233 381 q 203 449 233 411 q 172 543 172 486 l 172 874 q 136 965 172 932 q 33 999 100 999 l 36 1031 q 165 989 119 1031 q 210 872 210 947 l 210 544 z "},"[":{"ha":393,"x_min":108,"x_max":372,"o":"m 144 981 l 144 -200 l 372 -200 l 372 -233 l 108 -233 l 108 1014 l 372 1014 l 372 981 l 144 981 z "},"]":{"ha":393,"x_min":21,"x_max":285,"o":"m 285 -233 l 21 -233 l 21 -200 l 249 -200 l 249 981 l 21 981 l 21 1014 l 285 1014 l 285 -233 z "},"(":{"ha":376,"x_min":76,"x_max":358,"o":"m 358 1007 q 173 750 232 900 q 114 394 114 600 q 173 40 114 189 q 358 -218 232 -110 l 338 -242 q 140 28 204 -128 q 76 394 76 183 q 140 761 76 606 q 338 1031 204 917 l 358 1007 z "},")":{"ha":376,"x_min":18,"x_max":301,"o":"m 39 1031 q 237 761 172 917 q 301 394 301 606 q 237 28 301 185 q 39 -242 172 -128 l 18 -218 q 204 40 146 -110 q 263 394 263 189 q 204 751 263 601 q 18 1007 146 900 l 39 1031 z "},"⁽":{"ha":274,"x_min":101,"x_max":285,"o":"m 285 1110 q 174 942 211 1032 q 136 738 136 853 q 174 533 136 622 q 285 365 211 443 l 265 346 q 144 520 186 421 q 101 738 101 619 q 144 955 101 856 q 265 1129 186 1054 l 285 1110 z "},"⁾":{"ha":274,"x_min":-11,"x_max":172,"o":"m 8 1129 q 130 955 88 1054 q 172 738 172 856 q 130 520 172 619 q 8 346 88 421 l -11 365 q 100 533 63 443 q 138 738 138 622 q 100 942 138 853 q -11 1110 63 1032 l 8 1129 z "},"—":{"ha":1324,"x_min":99,"x_max":1225,"o":"m 1225 354 l 99 354 l 99 392 l 1225 392 l 1225 354 z "},"–":{"ha":860,"x_min":99,"x_max":763,"o":"m 763 354 l 99 354 l 99 392 l 763 392 l 763 354 z "},"-":{"ha":603,"x_min":100,"x_max":503,"o":"m 503 353 l 100 353 l 100 393 l 503 393 l 503 353 z "},"­":{"ha":603,"x_min":100,"x_max":503,"o":"m 503 353 l 100 353 l 100 393 l 503 393 l 503 353 z "},"«":{"ha":556,"x_min":65,"x_max":486,"o":"m 110 368 l 307 96 l 261 96 l 65 368 l 261 640 l 307 640 l 110 368 m 289 368 l 486 96 l 440 96 l 244 368 l 440 640 l 486 640 l 289 368 z "},"»":{"ha":551,"x_min":65,"x_max":486,"o":"m 111 640 l 307 368 l 111 96 l 65 96 l 263 368 l 65 640 l 111 640 m 290 640 l 486 368 l 290 96 l 244 96 l 442 368 l 244 640 l 290 640 z "},"‹":{"ha":376,"x_min":65,"x_max":307,"o":"m 110 368 l 307 96 l 261 96 l 65 368 l 261 640 l 307 640 l 110 368 z "},"›":{"ha":376,"x_min":69,"x_max":311,"o":"m 117 640 l 311 368 l 117 96 l 69 96 l 267 368 l 69 640 l 117 640 z "},"„":{"ha":426,"x_min":68,"x_max":347,"o":"m 131 75 q 173 54 158 75 q 188 -1 188 33 q 163 -92 188 -49 q 93 -158 138 -135 l 68 -139 q 132 -86 106 -124 q 158 -14 158 -49 q 156 7 158 -7 l 153 7 q 126 -8 144 -8 q 99 3 110 -8 q 88 33 88 15 q 100 63 88 50 q 131 75 113 75 m 290 75 q 333 54 318 75 q 347 -1 347 33 q 322 -92 347 -49 q 253 -158 297 -135 l 228 -139 q 292 -86 265 -124 q 318 -14 318 -49 q 315 7 318 -7 l 313 7 q 286 -8 304 -8 q 258 3 269 -8 q 247 33 247 15 q 260 63 247 50 q 290 75 272 75 z "},"“":{"ha":421,"x_min":75,"x_max":354,"o":"m 132 726 q 90 747 104 726 q 75 803 75 768 q 99 894 75 851 q 169 961 124 938 l 194 940 q 130 888 156 925 q 104 817 104 851 q 107 796 104 810 l 110 794 q 136 811 118 811 q 163 799 151 811 q 175 769 175 788 q 163 739 175 751 q 132 726 150 726 m 292 726 q 249 747 264 726 q 235 803 235 768 q 259 894 235 851 q 329 961 283 938 l 354 940 q 290 888 315 925 q 264 817 264 851 q 267 796 264 810 l 269 794 q 296 811 278 811 q 323 799 311 811 q 335 769 335 788 q 322 739 335 751 q 292 726 310 726 z "},"”":{"ha":419,"x_min":74,"x_max":353,"o":"m 138 958 q 178 938 164 958 q 193 883 193 917 q 169 792 193 835 q 99 725 144 749 l 74 744 q 138 798 113 761 q 164 869 164 835 q 161 890 164 876 l 158 890 q 132 875 151 875 q 106 887 117 875 q 94 917 94 899 q 106 946 94 933 q 138 958 118 958 m 297 958 q 338 938 324 958 q 353 883 353 917 q 328 792 353 835 q 258 725 304 749 l 233 744 q 298 798 272 761 q 324 869 324 835 q 321 890 324 876 l 318 890 q 292 875 311 875 q 265 887 276 875 q 254 917 254 899 q 266 946 254 933 q 297 958 278 958 z "},"‘":{"ha":261,"x_min":75,"x_max":194,"o":"m 132 726 q 90 747 104 726 q 75 803 75 768 q 99 894 75 851 q 169 961 124 938 l 194 940 q 130 888 156 925 q 104 817 104 851 q 107 796 104 810 l 110 794 q 136 811 118 811 q 163 799 151 811 q 175 769 175 788 q 163 739 175 751 q 132 726 150 726 z "},"’":{"ha":261,"x_min":74,"x_max":193,"o":"m 138 958 q 178 938 164 958 q 193 883 193 917 q 169 792 193 835 q 99 725 144 749 l 74 744 q 138 798 113 761 q 164 869 164 835 q 161 890 164 876 l 158 890 q 132 875 151 875 q 106 887 117 875 q 94 917 94 899 q 106 946 94 933 q 138 958 118 958 z "},"‚":{"ha":267,"x_min":68,"x_max":188,"o":"m 131 75 q 173 54 158 75 q 188 -1 188 33 q 163 -92 188 -49 q 93 -158 138 -135 l 68 -139 q 132 -86 106 -124 q 158 -14 158 -49 q 156 7 158 -7 l 153 7 q 126 -8 144 -8 q 99 3 110 -8 q 88 33 88 15 q 100 63 88 50 q 131 75 113 75 z "}," ":{"ha":406,"x_min":0,"x_max":0,"o":""},"€":{"ha":914,"x_min":56,"x_max":846,"o":"m 846 235 q 730 51 815 115 q 539 -14 644 -14 q 300 78 393 -14 q 182 336 207 169 l 56 336 l 56 369 l 176 369 q 172 458 172 411 q 176 544 172 503 l 56 544 l 56 578 l 181 578 q 299 838 206 746 q 538 931 392 931 q 724 879 649 931 q 833 731 800 828 l 801 710 q 703 849 769 801 q 539 897 636 897 q 327 813 410 897 q 221 578 244 729 l 613 578 l 596 544 l 215 544 q 211 458 211 503 q 217 369 211 407 l 557 369 l 540 336 l 221 336 q 328 103 244 186 q 539 21 411 21 q 709 81 633 21 q 811 250 785 140 l 846 235 z "},"¢":{"ha":754,"x_min":81,"x_max":685,"o":"m 685 190 q 589 44 665 100 q 408 -14 513 -11 l 408 -139 l 375 -139 l 375 -12 q 158 90 235 -6 q 81 347 81 185 q 158 603 81 508 q 375 707 236 699 l 375 833 l 408 833 l 408 708 q 582 658 511 707 q 679 519 653 608 l 643 501 q 560 628 621 583 q 408 675 499 674 l 408 19 q 568 72 500 22 q 650 203 636 121 l 685 190 m 118 347 q 185 114 118 200 q 375 19 253 28 l 375 675 q 185 579 253 665 q 118 347 118 493 z "},"¤":{"ha":853,"x_min":89,"x_max":764,"o":"m 679 461 q 624 286 679 354 l 764 146 l 739 119 l 599 260 q 426 197 532 197 q 254 260 321 197 l 115 119 l 89 147 l 228 286 q 172 461 172 357 q 225 632 172 564 l 89 769 l 115 796 l 251 660 q 426 722 318 722 q 601 660 532 722 l 739 796 l 764 771 l 626 631 q 679 461 679 565 m 426 232 q 582 294 524 232 q 640 461 640 357 q 582 626 640 564 q 426 688 524 688 q 269 626 328 688 q 211 461 211 564 q 270 294 211 357 q 426 232 329 232 z "},"$":{"ha":815,"x_min":76,"x_max":735,"o":"m 401 0 q 191 67 276 6 q 76 238 106 128 l 113 257 q 211 99 133 157 q 401 33 289 40 l 401 438 q 241 480 301 458 q 140 547 181 501 q 99 672 99 593 q 135 792 99 738 q 241 881 172 847 q 401 917 310 915 l 401 1056 l 435 1056 l 435 917 q 619 862 547 911 q 725 714 692 813 l 693 689 q 601 831 665 783 q 435 883 536 878 l 435 467 q 593 426 533 447 q 694 358 653 404 q 735 233 735 313 q 653 67 735 131 q 435 0 572 3 l 435 -139 l 401 -139 l 401 0 m 401 883 q 209 823 281 882 q 138 674 138 764 q 173 569 138 608 q 261 511 208 531 q 401 474 314 492 l 401 883 m 435 33 q 624 88 550 36 q 697 232 697 140 q 662 335 697 296 q 574 393 626 374 q 435 431 521 413 l 435 33 z "},"ƒ":{"ha":578,"x_min":-62,"x_max":585,"o":"m 501 986 q 397 945 436 986 q 346 821 358 904 l 304 556 l 533 556 l 533 522 l 299 522 l 221 22 q 32 -178 189 -178 q -17 -172 3 -178 q -62 -153 -37 -167 l -53 -121 q 31 -143 -21 -143 q 182 24 156 -143 l 260 522 l 44 522 l 44 556 l 264 556 l 306 821 q 367 972 321 922 q 490 1021 413 1021 q 542 1017 521 1021 q 585 1000 563 1013 l 579 965 q 501 986 542 986 z "},"£":{"ha":810,"x_min":49,"x_max":760,"o":"m 760 169 q 711 32 760 78 q 578 -14 663 -14 q 472 8 515 -14 q 378 71 429 29 q 293 9 343 32 q 183 -14 243 -14 q 85 13 122 -14 q 49 83 49 39 q 88 157 49 129 q 194 185 128 185 q 290 167 250 185 q 374 115 329 149 q 401 219 401 163 q 384 313 401 269 q 322 414 367 356 l 129 414 l 129 447 l 296 447 q 221 566 242 517 q 200 672 200 615 q 275 860 200 789 q 472 931 350 931 q 640 876 575 931 q 718 726 706 821 l 683 710 q 615 845 672 794 q 471 896 558 896 q 301 836 364 896 q 238 676 238 776 q 258 576 238 624 q 335 454 279 528 l 340 447 l 628 447 l 628 414 l 364 414 q 419 315 403 358 q 435 222 435 271 q 397 96 435 153 q 482 38 443 57 q 575 18 521 18 q 726 169 724 18 l 760 169 m 186 17 q 282 35 239 17 q 354 89 325 54 q 280 136 317 119 q 196 153 243 153 q 115 134 144 153 q 85 83 85 115 q 113 35 85 53 q 186 17 140 17 z "},"₺":{"ha":815,"x_min":67,"x_max":764,"o":"m 764 360 q 674 94 763 189 q 426 0 585 0 l 232 0 l 232 385 l 67 336 l 67 368 l 232 417 l 232 571 l 67 522 l 67 554 l 232 603 l 232 917 l 269 917 l 269 614 l 581 706 l 581 674 l 269 582 l 269 428 l 581 519 l 581 488 l 269 396 l 269 33 l 414 33 q 644 119 563 33 q 726 360 726 204 l 764 360 z "},"₽":{"ha":831,"x_min":44,"x_max":786,"o":"m 222 396 l 222 267 l 533 267 l 533 235 l 222 235 l 222 0 l 185 0 l 185 235 l 44 235 l 44 267 l 185 267 l 185 396 l 44 396 l 44 431 l 185 431 l 185 917 l 475 917 q 703 847 621 917 q 786 656 786 778 q 703 465 786 533 q 475 396 621 396 l 222 396 m 222 431 l 472 431 q 675 490 603 431 q 747 656 747 549 q 675 822 747 763 q 472 882 603 882 l 222 882 l 222 431 z "},"¥":{"ha":803,"x_min":58,"x_max":744,"o":"m 457 382 l 703 382 l 703 350 l 419 350 l 419 208 l 703 208 l 703 178 l 419 178 l 419 0 l 383 0 l 383 178 l 100 178 l 100 208 l 383 208 l 383 350 l 100 350 l 100 382 l 346 382 l 371 381 l 58 917 l 104 917 l 372 444 l 400 390 l 403 390 l 431 444 l 699 917 l 744 917 l 432 381 l 457 382 z "},"≈":{"ha":839,"x_min":117,"x_max":722,"o":"m 271 631 q 341 619 307 631 q 425 583 375 607 q 506 550 474 561 q 572 539 539 539 q 646 556 610 539 q 722 614 682 572 l 722 574 q 571 504 651 504 q 508 515 538 504 q 422 550 478 525 q 339 585 372 574 q 271 597 306 597 q 190 579 225 597 q 117 521 154 561 l 117 561 q 191 615 157 599 q 271 631 225 631 m 271 369 q 342 357 307 369 q 425 321 378 344 q 508 286 476 297 q 572 275 539 275 q 722 351 647 275 l 722 311 q 571 242 651 242 q 508 252 538 242 q 422 288 478 263 q 339 323 372 311 q 271 335 306 335 q 190 317 225 335 q 117 260 156 299 l 117 300 q 192 353 157 338 q 271 369 226 369 z "},"~":{"ha":681,"x_min":60,"x_max":621,"o":"m 621 546 q 481 401 604 401 q 407 415 439 401 q 331 456 375 428 q 265 492 293 481 q 203 504 238 504 q 132 477 157 504 q 97 394 107 450 l 60 394 q 201 539 79 539 q 277 525 244 539 q 351 485 310 511 q 417 448 390 460 q 478 436 443 436 q 549 463 524 436 q 583 546 574 490 l 621 546 z "},"÷":{"ha":839,"x_min":103,"x_max":736,"o":"m 419 742 q 450 731 439 742 q 461 700 461 719 q 450 670 461 682 q 419 658 439 658 q 390 670 401 658 q 378 700 378 682 q 390 731 378 719 q 419 742 401 742 m 736 421 l 103 421 l 103 457 l 736 457 l 736 421 m 419 222 q 450 211 439 222 q 461 181 461 200 q 450 151 461 163 q 419 139 439 139 q 390 151 401 139 q 378 181 378 163 q 390 211 378 200 q 419 222 401 222 z "},"=":{"ha":839,"x_min":115,"x_max":724,"o":"m 724 556 l 115 556 l 115 592 l 724 592 l 724 556 m 724 274 l 115 274 l 115 308 l 724 308 l 724 274 z "},"₌":{"ha":540,"x_min":85,"x_max":454,"o":"m 85 108 l 454 108 l 454 78 l 85 78 l 85 108 m 85 -49 l 454 -49 l 454 -79 l 85 -79 l 85 -49 z "},"⁼":{"ha":540,"x_min":85,"x_max":454,"o":"m 85 833 l 454 833 l 454 803 l 85 803 l 85 833 m 85 676 l 454 676 l 454 646 l 85 646 l 85 676 z "},">":{"ha":839,"x_min":94,"x_max":718,"o":"m 718 439 l 718 393 l 94 72 l 94 115 l 686 417 l 94 717 l 94 760 l 718 439 z "},"≥":{"ha":839,"x_min":103,"x_max":732,"o":"m 732 542 l 732 494 l 103 160 l 103 203 l 703 518 l 103 822 l 103 864 l 732 542 m 103 35 l 732 35 l 732 0 l 103 0 l 103 35 z "},"∞":{"ha":1208,"x_min":86,"x_max":1122,"o":"m 915 689 q 1019 657 972 689 q 1094 564 1067 625 q 1122 419 1122 503 q 1094 275 1122 336 q 1019 182 1067 214 q 915 150 972 150 q 824 165 858 150 q 745 225 789 179 q 601 390 701 271 q 458 222 501 268 q 383 163 415 176 q 294 150 351 150 q 190 182 238 150 q 114 275 142 214 q 86 419 86 336 q 114 564 86 503 q 190 657 142 625 q 294 689 238 689 q 385 675 351 689 q 464 615 419 661 q 606 450 508 568 q 748 615 703 568 q 826 675 793 661 q 915 689 860 689 m 915 188 q 999 217 961 188 q 1060 299 1038 246 q 1083 422 1083 353 q 1060 545 1083 492 q 997 628 1036 599 q 913 657 958 657 q 838 642 869 657 q 761 578 807 626 q 628 422 715 531 q 767 260 722 307 q 840 201 811 214 q 915 188 869 188 m 297 182 q 368 194 342 182 q 437 251 394 207 q 579 418 479 296 q 440 581 482 536 q 370 640 399 626 q 297 653 342 653 q 212 624 251 653 q 149 540 172 594 q 125 417 125 486 q 149 294 125 347 q 212 211 172 240 q 297 182 251 182 z "},"∫":{"ha":557,"x_min":18,"x_max":540,"o":"m 443 1053 q 540 1028 501 1053 l 532 994 q 444 1018 499 1018 q 338 979 376 1018 q 300 864 300 940 l 300 10 q 254 -131 300 -83 q 121 -178 208 -178 q 18 -149 61 -178 l 28 -117 q 114 -143 69 -143 q 261 11 261 -143 l 261 865 q 309 1004 261 956 q 443 1053 357 1053 z "},"<":{"ha":839,"x_min":121,"x_max":744,"o":"m 744 717 l 153 417 l 744 115 l 744 72 l 121 393 l 121 439 l 744 760 l 744 717 z "},"≤":{"ha":839,"x_min":107,"x_max":736,"o":"m 736 822 l 136 518 l 736 203 l 736 160 l 107 494 l 107 542 l 736 864 l 736 822 m 107 35 l 736 35 l 736 0 l 107 0 l 107 35 z "},"¬":{"ha":839,"x_min":103,"x_max":736,"o":"m 736 457 l 736 233 l 697 233 l 697 421 l 103 421 l 103 457 l 736 457 z "},"−":{"ha":839,"x_min":103,"x_max":736,"o":"m 736 421 l 103 421 l 103 457 l 736 457 l 736 421 z "},"₋":{"ha":461,"x_min":53,"x_max":410,"o":"m 53 29 l 410 29 l 410 0 l 53 0 l 53 29 z "},"⁻":{"ha":461,"x_min":53,"x_max":410,"o":"m 53 754 l 410 754 l 410 725 l 53 725 l 53 754 z "},"×":{"ha":839,"x_min":161,"x_max":678,"o":"m 447 435 l 678 206 l 649 176 l 419 407 l 189 176 l 161 206 l 390 435 l 161 665 l 189 693 l 419 464 l 649 693 l 678 665 l 447 435 z "},"≠":{"ha":839,"x_min":115,"x_max":724,"o":"m 501 557 l 382 307 l 724 307 l 724 274 l 365 274 l 282 100 l 242 100 l 325 274 l 115 274 l 115 307 l 342 307 l 461 557 l 115 557 l 115 592 l 478 592 l 560 758 l 599 758 l 518 592 l 724 592 l 724 557 l 501 557 z "},"∂":{"ha":786,"x_min":63,"x_max":694,"o":"m 349 931 q 610 814 525 931 q 694 458 694 697 q 608 108 694 231 q 363 -14 522 -14 q 207 24 275 -14 q 101 131 139 63 q 63 286 63 199 q 100 440 63 372 q 204 544 138 507 q 356 582 271 582 q 541 536 463 582 q 656 406 619 490 q 657 458 657 422 q 581 790 657 683 q 349 897 506 897 q 235 874 283 897 q 153 806 188 851 l 129 833 q 349 931 213 931 m 361 21 q 558 105 485 21 q 651 347 632 189 q 543 496 621 444 q 354 547 465 547 q 222 514 279 547 q 133 422 165 481 q 101 288 101 363 q 173 94 101 168 q 361 21 244 21 z "},"%":{"ha":1075,"x_min":54,"x_max":1021,"o":"m 253 919 q 400 851 350 919 q 450 682 450 783 q 400 515 450 582 q 253 449 350 449 q 105 515 156 449 q 54 682 54 582 q 105 851 54 783 q 253 919 156 919 m 824 917 l 864 917 l 250 0 l 210 0 l 824 917 m 253 888 q 133 829 174 888 q 92 682 92 771 q 132 537 92 593 q 253 481 172 481 q 374 537 333 481 q 414 682 414 593 q 373 829 414 771 q 253 888 332 888 m 824 468 q 971 401 921 468 q 1021 232 1021 333 q 971 64 1021 131 q 824 -3 921 -3 q 675 65 726 -3 q 624 232 624 132 q 675 401 624 333 q 824 468 726 468 m 824 436 q 702 378 743 436 q 661 232 661 321 q 702 87 661 144 q 824 29 743 29 q 943 86 903 29 q 983 232 983 143 q 943 378 983 321 q 824 436 903 436 z "},"‰":{"ha":1575,"x_min":54,"x_max":1521,"o":"m 253 919 q 400 851 350 919 q 450 682 450 783 q 400 515 450 582 q 253 449 350 449 q 105 515 156 449 q 54 682 54 582 q 105 851 54 783 q 253 919 156 919 m 824 917 l 864 917 l 250 0 l 210 0 l 824 917 m 253 888 q 133 829 174 888 q 92 682 92 771 q 132 537 92 593 q 253 481 172 481 q 374 537 333 481 q 414 682 414 593 q 373 829 414 771 q 253 888 332 888 m 824 468 q 971 401 921 468 q 1021 232 1021 333 q 971 64 1021 131 q 824 -3 921 -3 q 675 65 726 -3 q 624 232 624 132 q 675 401 624 333 q 824 468 726 468 m 1324 468 q 1471 401 1421 468 q 1521 232 1521 333 q 1471 64 1521 131 q 1324 -3 1421 -3 q 1176 65 1226 -3 q 1125 232 1125 132 q 1176 401 1125 333 q 1324 468 1226 468 m 824 436 q 702 378 743 436 q 661 232 661 321 q 702 87 661 144 q 824 29 743 29 q 943 86 903 29 q 983 232 983 143 q 943 378 983 321 q 824 436 903 436 m 1324 436 q 1202 378 1243 436 q 1161 232 1161 321 q 1203 87 1161 144 q 1324 29 1244 29 q 1444 87 1403 29 q 1485 232 1485 144 q 1444 378 1485 321 q 1324 436 1403 436 z "},"+":{"ha":839,"x_min":94,"x_max":744,"o":"m 744 421 l 439 421 l 439 107 l 401 107 l 401 421 l 94 421 l 94 457 l 401 457 l 401 763 l 439 763 l 439 457 l 744 457 l 744 421 z "},"₊":{"ha":461,"x_min":47,"x_max":415,"o":"m 415 0 l 247 0 l 247 -169 l 214 -169 l 214 0 l 47 0 l 47 29 l 214 29 l 214 199 l 247 199 l 247 29 l 415 29 l 415 0 z "},"±":{"ha":839,"x_min":103,"x_max":736,"o":"m 736 535 l 736 500 l 439 500 l 439 160 l 401 160 l 401 500 l 103 500 l 103 535 l 401 535 l 401 868 l 439 868 l 439 535 l 736 535 m 103 35 l 736 35 l 736 0 l 103 0 l 103 35 z "},"⁺":{"ha":461,"x_min":47,"x_max":415,"o":"m 415 725 l 247 725 l 247 556 l 214 556 l 214 725 l 47 725 l 47 754 l 214 754 l 214 924 l 247 924 l 247 754 l 415 754 l 415 725 z "},"∏":{"ha":886,"x_min":111,"x_max":775,"o":"m 775 -178 l 736 -178 l 736 882 l 150 882 l 150 -178 l 111 -178 l 111 917 l 775 917 l 775 -178 z "},"√":{"ha":849,"x_min":26,"x_max":840,"o":"m 840 1136 l 399 0 l 358 0 l 169 472 l 26 472 l 26 508 l 196 508 l 358 100 l 379 36 l 399 97 l 801 1136 l 840 1136 z "},"∑":{"ha":810,"x_min":50,"x_max":744,"o":"m 744 882 l 101 882 l 575 385 l 575 378 l 97 -143 l 744 -143 l 744 -178 l 50 -178 l 50 -143 l 526 382 l 50 882 l 50 917 l 744 917 l 744 882 z "},"µ":{"ha":778,"x_min":106,"x_max":672,"o":"m 672 694 l 672 0 l 636 0 l 635 167 q 530 35 606 85 q 351 -14 454 -14 q 226 18 281 -14 q 144 111 172 50 l 144 -292 l 106 -292 l 106 694 l 144 694 l 144 242 q 203 78 144 135 q 358 21 261 21 q 497 55 435 21 q 596 147 560 89 q 633 272 632 204 l 633 694 l 672 694 z "},"Ω":{"ha":1019,"x_min":88,"x_max":932,"o":"m 932 33 l 932 0 l 601 0 l 601 33 q 813 191 736 81 q 890 469 890 301 q 843 695 890 599 q 710 844 796 792 q 511 896 625 896 q 310 844 396 896 q 177 695 224 792 q 131 469 131 599 q 207 190 131 301 q 418 33 283 79 l 418 0 l 88 0 l 88 33 l 350 33 q 160 203 228 93 q 92 469 92 313 q 143 713 92 608 q 290 874 194 817 q 511 931 385 931 q 732 874 638 931 q 878 713 826 817 q 929 469 929 608 q 860 203 929 314 q 668 33 792 93 l 932 33 z "},"∆":{"ha":865,"x_min":42,"x_max":822,"o":"m 822 33 l 822 0 l 42 0 l 42 33 l 408 917 l 458 917 l 822 33 m 82 33 l 783 33 l 433 888 l 82 33 z "},"∕":{"ha":293,"x_min":-199,"x_max":492,"o":"m 450 917 l 492 917 l -157 0 l -199 0 l 450 917 z "},"∙":{"ha":275,"x_min":96,"x_max":179,"o":"m 138 525 q 168 514 157 525 q 179 483 179 503 q 168 453 179 465 q 138 442 157 442 q 108 453 119 442 q 96 483 96 465 q 108 514 96 503 q 138 525 119 525 z "},"↑":{"ha":1042,"x_min":81,"x_max":958,"o":"m 521 928 q 720 690 619 790 q 958 493 821 590 l 933 458 q 698 661 801 556 q 535 863 594 767 q 539 696 539 783 l 539 0 l 500 0 l 500 696 q 504 863 500 783 q 341 661 444 767 q 106 458 238 556 l 81 493 q 317 690 215 589 q 518 928 418 790 l 521 928 z "},"↗":{"ha":1042,"x_min":203,"x_max":851,"o":"m 851 771 q 822 392 822 578 q 833 149 822 261 l 790 146 q 783 356 783 264 q 814 715 783 571 l 786 686 q 675 572 732 628 l 231 126 l 203 156 l 647 600 q 792 738 722 675 q 440 708 656 708 q 221 715 313 708 l 224 757 q 468 746 336 746 q 846 775 656 746 l 851 771 z "},"→":{"ha":1042,"x_min":79,"x_max":1008,"o":"m 572 899 q 769 662 668 763 q 1008 461 871 561 l 1008 458 q 770 259 871 360 q 572 21 669 158 l 538 46 q 741 283 636 179 q 942 444 846 386 l 890 443 q 775 440 813 440 l 79 440 l 79 479 l 775 479 q 889 476 811 479 l 940 475 q 742 637 846 533 q 538 874 638 740 l 572 899 z "},"↘":{"ha":1042,"x_min":182,"x_max":831,"o":"m 813 776 q 801 532 801 664 q 831 154 801 344 l 826 149 q 444 179 625 179 q 204 168 338 179 l 200 210 q 411 217 318 217 q 771 186 626 217 q 626 325 715 236 l 182 769 l 210 797 l 656 353 q 793 208 728 279 q 764 560 764 343 q 771 779 764 688 l 813 776 z "},"↓":{"ha":1042,"x_min":83,"x_max":961,"o":"m 961 424 q 725 227 826 328 q 524 -11 624 126 l 521 -11 q 320 227 421 126 q 83 424 219 328 l 108 458 q 345 256 242 361 q 507 54 449 150 l 506 106 q 503 221 503 183 l 503 917 l 542 917 l 542 221 q 539 107 542 185 l 538 56 q 701 256 597 151 q 936 458 804 360 l 961 424 z "},"↙":{"ha":1042,"x_min":211,"x_max":860,"o":"m 271 186 q 631 217 415 217 q 842 210 724 217 l 838 168 q 597 179 704 179 q 215 149 417 179 l 211 154 q 240 532 240 344 q 229 776 240 664 l 271 779 q 278 560 278 688 q 249 208 278 343 q 386 353 314 279 l 832 797 l 860 769 l 415 325 q 271 186 326 236 z "},"←":{"ha":1042,"x_min":33,"x_max":963,"o":"m 267 440 q 151 443 229 440 l 100 444 q 301 283 196 386 q 504 46 406 179 l 469 21 q 272 259 372 158 q 33 458 171 360 l 33 461 q 272 662 171 561 q 469 899 374 763 l 504 874 q 300 637 404 740 q 101 475 196 533 l 153 476 q 267 479 231 479 l 963 479 l 963 440 l 267 440 z "},"↖":{"ha":1042,"x_min":190,"x_max":839,"o":"m 839 156 l 811 126 l 367 572 q 228 717 296 643 q 258 356 258 569 q 251 146 258 264 l 210 149 q 221 385 221 279 q 190 771 221 565 l 196 775 q 574 746 386 746 q 818 757 706 746 l 821 715 q 601 708 729 708 q 251 738 386 708 q 394 600 332 663 l 839 156 z "},"↔":{"ha":1338,"x_min":33,"x_max":1303,"o":"m 869 924 q 1065 685 965 786 q 1303 486 1165 585 l 1303 483 q 1066 283 1167 385 q 869 46 965 182 l 832 68 q 1035 305 931 201 q 1236 468 1140 408 q 1083 465 1133 465 l 254 465 q 101 468 204 465 q 303 305 199 408 q 504 68 407 201 l 468 46 q 272 283 372 182 q 33 483 171 385 l 33 486 q 272 685 171 585 q 468 924 372 786 l 504 901 q 302 665 407 768 q 101 501 197 561 q 254 504 201 504 l 1083 504 q 1236 501 1136 504 q 1035 665 1140 561 q 832 901 931 768 l 869 924 z "},"↕":{"ha":1042,"x_min":81,"x_max":958,"o":"m 536 -108 q 700 92 597 -12 q 936 294 803 196 l 958 258 q 720 61 821 161 q 521 -176 619 -39 l 518 -176 q 319 60 419 -40 q 81 258 218 161 l 103 294 q 339 92 236 196 q 503 -108 442 -12 q 500 44 500 -8 l 500 872 q 503 1025 500 925 q 339 825 442 929 q 103 622 236 721 l 81 658 q 319 856 218 756 q 518 1093 419 957 l 521 1093 q 720 856 619 956 q 958 658 821 756 l 936 622 q 700 825 803 721 q 536 1025 597 929 q 539 872 539 925 l 539 44 q 536 -108 539 -8 z "},"●":{"ha":833,"x_min":107,"x_max":726,"o":"m 417 38 q 258 78 329 38 q 147 189 188 118 q 107 347 107 260 q 147 506 107 435 q 258 617 188 576 q 417 657 329 657 q 575 617 504 657 q 686 506 646 576 q 726 347 726 435 q 686 189 726 260 q 575 78 646 118 q 417 38 504 38 z "},"○":{"ha":833,"x_min":108,"x_max":725,"o":"m 417 38 q 260 78 331 38 q 149 189 189 118 q 108 347 108 260 q 149 506 108 435 q 260 617 189 576 q 417 657 331 657 q 574 617 503 657 q 685 506 644 576 q 725 347 725 435 q 685 189 725 260 q 574 78 644 118 q 417 38 503 38 m 417 72 q 553 108 492 72 q 651 207 615 144 q 686 347 686 269 q 651 488 686 425 q 553 586 615 550 q 417 622 492 622 q 280 586 342 622 q 183 488 218 550 q 147 347 147 425 q 183 207 147 269 q 280 108 218 144 q 417 72 342 72 z "},"◆":{"ha":833,"x_min":58,"x_max":776,"o":"m 58 351 l 417 710 l 776 351 l 417 -8 l 58 351 z "},"◇":{"ha":833,"x_min":58,"x_max":776,"o":"m 58 351 l 417 710 l 776 351 l 417 -8 l 58 351 m 715 351 l 417 649 l 118 351 l 417 53 l 715 351 z "},"◊":{"ha":688,"x_min":58,"x_max":631,"o":"m 631 458 l 368 0 l 318 0 l 58 458 l 318 917 l 368 917 l 631 458 m 586 458 l 343 889 l 103 458 l 343 28 l 586 458 z "},"▪":{"ha":833,"x_min":121,"x_max":713,"o":"m 713 643 l 713 51 l 121 51 l 121 643 l 713 643 z "},"▫":{"ha":833,"x_min":121,"x_max":713,"o":"m 121 643 l 713 643 l 713 51 l 121 51 l 121 643 m 674 86 l 674 608 l 160 608 l 160 86 l 674 86 z "},"❛":{"ha":950,"x_min":74,"x_max":890,"o":"m 819 879 q 703 883 757 883 q 381 826 500 883 q 208 685 261 768 q 126 499 154 603 l 138 492 q 292 615 200 575 q 508 656 383 656 q 705 618 618 656 q 841 506 792 581 q 890 326 890 432 q 789 72 890 158 q 493 -14 688 -14 q 176 94 278 -14 q 74 378 74 203 q 208 767 74 611 q 692 922 343 922 q 794 918 740 922 l 819 879 z "},"❜":{"ha":950,"x_min":60,"x_max":876,"o":"m 131 -143 q 246 -147 193 -147 q 569 -90 449 -147 q 742 51 689 -32 q 822 238 796 133 l 813 244 q 658 121 750 161 q 442 81 567 81 q 245 118 332 81 q 109 230 158 156 q 60 410 60 304 q 161 664 60 578 q 457 750 263 750 q 774 642 672 750 q 876 358 876 533 q 742 -31 876 125 q 258 -186 607 -186 q 156 -182 210 -186 l 131 -143 z "},"❝":{"ha":1700,"x_min":74,"x_max":1640,"o":"m 1258 656 q 1455 618 1368 656 q 1591 506 1542 581 q 1640 326 1640 432 q 1539 72 1640 158 q 1243 -14 1438 -14 q 1003 38 1097 -14 q 865 179 910 89 q 733 35 826 83 q 493 -14 639 -14 q 176 94 278 -14 q 74 378 74 203 q 208 767 74 611 q 692 922 343 922 q 794 918 740 922 l 819 879 q 703 883 757 883 q 381 826 500 883 q 208 685 261 768 q 126 499 154 603 l 138 492 q 292 615 200 575 q 508 656 383 656 q 701 619 615 656 q 835 515 786 583 q 1009 809 868 696 q 1443 922 1150 922 q 1544 918 1490 922 l 1569 879 q 1454 883 1507 883 q 1131 826 1251 883 q 958 685 1011 768 q 878 499 904 603 l 888 492 q 1042 615 950 575 q 1258 656 1133 656 z "},"❞":{"ha":1700,"x_min":60,"x_max":1626,"o":"m 1207 750 q 1524 642 1422 750 q 1626 358 1626 533 q 1492 -31 1626 125 q 1008 -186 1357 -186 q 906 -182 960 -186 l 881 -143 q 997 -147 943 -147 q 1319 -90 1200 -147 q 1492 51 1439 -32 q 1574 238 1546 133 l 1563 244 q 1408 121 1500 161 q 1192 81 1317 81 q 999 117 1083 81 q 865 221 914 153 q 691 -73 832 40 q 257 -186 550 -186 q 156 -182 210 -186 l 131 -143 q 246 -147 193 -147 q 569 -90 449 -147 q 742 51 689 -32 q 822 238 796 133 l 813 244 q 658 121 750 161 q 442 81 567 81 q 245 118 332 81 q 109 230 158 156 q 60 410 60 304 q 161 664 60 578 q 457 750 263 750 q 697 699 603 750 q 835 557 790 647 q 967 701 874 653 q 1207 750 1061 750 z "},"❡":{"ha":753,"x_min":44,"x_max":639,"o":"m 639 6 q 567 -222 639 -146 q 340 -299 494 -299 q 184 -252 239 -299 q 129 -131 129 -206 q 136 -76 129 -107 l 168 -68 q 160 -122 160 -97 q 202 -226 160 -186 q 310 -267 244 -267 q 414 -224 379 -267 q 449 -100 449 -181 l 449 336 l 375 336 q 201 372 276 336 q 85 474 126 408 q 44 626 44 540 q 85 778 44 713 q 201 881 126 844 q 375 917 276 917 l 639 917 l 639 6 m 449 369 l 449 883 l 375 883 q 221 851 288 883 q 118 761 154 819 q 82 626 82 703 q 118 492 82 550 q 221 401 154 433 q 375 369 288 369 l 449 369 m 483 883 l 483 -107 q 463 -206 483 -162 q 400 -268 442 -250 l 401 -269 q 556 -182 510 -250 q 601 0 601 -114 l 601 883 l 483 883 z "},"|":{"ha":251,"x_min":108,"x_max":143,"o":"m 143 -233 l 108 -233 l 108 1014 l 143 1014 l 143 -233 z "},"¦":{"ha":271,"x_min":118,"x_max":153,"o":"m 153 507 l 118 507 l 118 1014 l 153 1014 l 153 507 m 153 -233 l 118 -233 l 118 274 l 153 274 l 153 -233 z "},"@":{"ha":1322,"x_min":78,"x_max":1238,"o":"m 669 928 q 994 847 867 928 q 1179 635 1121 767 q 1238 344 1238 504 q 1188 82 1238 176 q 1049 -12 1138 -12 q 944 35 976 -12 q 908 181 911 83 q 811 40 879 90 q 646 -11 743 -11 q 491 29 558 -11 q 387 144 424 69 q 350 318 350 218 q 390 497 350 421 q 500 615 429 574 q 661 657 571 657 q 826 608 760 657 q 917 471 892 558 l 922 635 l 951 635 l 942 188 q 969 63 940 107 q 1056 18 997 18 q 1164 103 1125 18 q 1203 344 1203 189 q 1149 622 1203 497 q 975 822 1094 746 q 669 897 856 897 q 376 827 501 897 q 182 626 250 757 q 114 322 114 496 q 185 24 114 150 q 383 -168 256 -101 q 679 -235 511 -235 q 859 -206 772 -235 q 1000 -128 946 -178 l 1021 -154 q 867 -236 958 -206 q 679 -267 776 -267 q 364 -196 500 -267 q 153 8 228 -125 q 78 322 78 140 q 151 642 78 504 q 358 853 224 779 q 669 928 492 928 m 664 626 q 463 543 538 626 q 388 319 388 460 q 459 102 388 183 q 651 21 531 21 q 785 57 726 21 q 876 158 843 93 q 910 303 908 222 l 911 350 q 883 491 913 428 q 798 590 854 554 q 664 626 742 626 z "},"&":{"ha":808,"x_min":64,"x_max":817,"o":"m 628 140 q 731 42 690 68 q 817 17 772 17 l 810 -14 q 717 14 761 -14 q 608 113 672 42 q 332 -14 506 -14 q 139 44 214 -14 q 64 199 64 101 q 122 359 64 294 q 306 496 181 424 q 210 637 235 589 q 185 738 185 685 q 239 874 185 822 q 383 926 293 926 q 522 881 469 926 q 575 757 575 836 q 528 618 575 679 q 357 486 482 557 q 454 358 390 440 q 606 167 564 218 q 668 318 647 231 q 688 506 689 406 l 721 503 q 700 306 722 400 q 628 140 678 211 m 383 893 q 266 851 310 893 q 222 739 222 808 q 231 679 222 706 q 263 617 239 653 q 336 514 286 581 q 497 634 454 579 q 539 757 539 689 q 497 856 539 819 q 383 893 454 893 m 328 19 q 585 139 492 19 q 431 335 542 190 l 326 468 q 200 387 247 424 q 127 305 153 350 q 101 200 101 260 q 166 69 101 118 q 328 19 231 19 z "},"¶":{"ha":753,"x_min":44,"x_max":639,"o":"m 639 -139 l 601 -139 l 601 883 l 411 883 l 411 -139 l 375 -139 l 375 336 q 201 372 276 336 q 85 474 126 408 q 44 626 44 540 q 85 778 44 713 q 201 881 126 844 q 375 917 276 917 l 639 917 l 639 -139 m 375 883 q 162 813 242 883 q 82 626 82 743 q 162 440 82 510 q 375 369 242 369 l 375 883 z "},"©":{"ha":1113,"x_min":81,"x_max":1031,"o":"m 556 931 q 805 872 697 931 q 972 706 913 813 q 1031 458 1031 599 q 972 211 1031 318 q 805 45 913 104 q 556 -14 697 -14 q 307 45 415 -14 q 140 211 199 104 q 81 458 81 318 q 140 706 81 599 q 307 872 199 813 q 556 931 415 931 m 556 897 q 326 842 425 897 q 173 688 228 788 q 118 458 118 589 q 173 228 118 328 q 326 74 228 129 q 556 19 425 19 q 785 74 686 19 q 940 228 885 129 q 994 458 994 328 q 940 688 994 589 q 785 842 885 788 q 556 897 686 897 m 571 713 q 781 575 732 713 l 749 560 q 569 681 711 681 q 411 621 468 681 q 354 456 354 561 q 411 290 354 350 q 569 231 468 231 q 690 266 639 231 q 756 363 740 301 l 786 350 q 708 240 767 281 q 571 199 650 199 q 385 267 453 199 q 318 456 318 335 q 385 644 318 576 q 571 713 453 713 z "},"®":{"ha":1113,"x_min":81,"x_max":1031,"o":"m 556 931 q 805 872 697 931 q 972 706 913 813 q 1031 458 1031 599 q 972 211 1031 318 q 805 45 913 104 q 556 -14 697 -14 q 307 45 415 -14 q 140 211 199 104 q 81 458 81 318 q 140 706 81 599 q 307 872 199 813 q 556 931 415 931 m 556 19 q 785 74 686 19 q 940 228 885 129 q 994 458 994 328 q 940 688 994 589 q 785 842 885 788 q 556 897 686 897 q 326 842 425 897 q 173 688 228 788 q 118 458 118 589 q 173 228 118 328 q 326 74 228 129 q 556 19 425 19 m 769 568 q 734 468 769 504 q 631 425 699 432 l 779 199 l 739 199 l 593 424 l 421 424 l 421 199 l 385 199 l 385 713 l 599 713 q 726 676 682 713 q 769 568 769 639 m 421 451 l 599 451 q 736 568 736 454 q 599 683 736 683 l 421 683 l 421 451 z "},"§":{"ha":761,"x_min":64,"x_max":717,"o":"m 717 371 q 671 262 717 307 q 551 196 625 217 q 622 133 600 171 q 644 43 644 96 q 614 -56 644 -11 q 524 -126 583 -100 q 385 -153 465 -153 q 132 -31 188 -153 l 163 -8 q 385 -119 204 -119 q 547 -75 489 -119 q 606 40 606 -31 q 581 124 606 90 q 499 179 556 157 q 342 217 442 201 q 126 283 188 239 q 64 407 64 326 q 109 516 64 471 q 228 581 154 561 q 158 644 179 607 q 136 735 136 682 q 167 833 136 789 q 256 904 197 878 q 396 931 314 931 q 557 900 493 931 q 647 808 621 869 l 618 786 q 396 897 575 897 q 233 853 292 897 q 175 738 175 808 q 233 624 175 664 q 439 563 292 585 q 654 497 592 540 q 717 371 717 453 m 507 215 q 629 270 581 232 q 678 369 678 308 q 623 470 678 435 q 429 526 568 506 q 271 563 333 539 q 151 506 199 544 q 103 408 103 468 q 126 335 103 364 q 202 286 149 306 q 350 251 256 267 q 507 215 453 236 z "},"™":{"ha":1071,"x_min":49,"x_max":957,"o":"m 425 888 l 256 888 l 256 458 l 219 458 l 219 888 l 49 888 l 49 917 l 425 917 l 425 888 m 957 917 l 957 458 l 921 458 l 921 803 l 925 864 l 924 864 l 913 831 l 749 458 l 717 458 l 554 831 l 543 864 l 542 864 l 546 803 l 546 458 l 510 458 l 510 917 l 551 917 l 721 526 l 733 494 l 746 526 l 915 917 l 957 917 z "},"°":{"ha":538,"x_min":74,"x_max":464,"o":"m 268 540 q 127 594 181 540 q 74 735 74 649 q 127 876 74 822 q 268 931 181 931 q 410 876 356 931 q 464 735 464 822 q 410 594 464 649 q 268 540 357 540 m 268 572 q 384 617 340 572 q 428 735 428 663 q 384 852 428 807 q 268 897 340 897 q 153 852 197 897 q 110 735 110 807 q 153 617 110 663 q 268 572 197 572 z "},"℮":{"ha":1092,"x_min":81,"x_max":1024,"o":"m 553 931 q 806 873 700 931 q 968 705 913 815 q 1024 439 1024 594 l 232 439 l 232 163 q 379 63 290 97 q 582 29 468 29 q 810 85 706 29 q 979 244 914 142 l 979 182 q 816 35 918 83 q 581 -14 714 -14 q 313 44 425 -14 q 140 209 200 103 q 81 458 81 315 q 139 707 81 600 q 304 872 197 814 q 553 931 411 931 m 551 888 q 368 856 450 888 q 232 763 286 824 l 232 482 l 875 482 l 875 749 q 738 852 819 817 q 551 888 656 888 z "},"ℓ":{"ha":469,"x_min":57,"x_max":415,"o":"m 318 22 q 415 46 376 22 l 414 10 q 313 -14 378 -14 q 197 25 233 -14 q 161 150 161 64 l 161 343 q 57 288 114 311 l 57 324 q 161 381 111 346 l 161 774 q 281 931 161 931 q 371 894 342 931 q 400 781 400 857 q 347 555 400 664 q 197 369 293 446 l 197 153 q 226 54 197 86 q 318 22 256 22 m 197 408 q 321 575 276 478 q 365 782 365 672 q 282 899 365 899 q 197 775 197 899 l 197 408 z "},"^":{"ha":747,"x_min":49,"x_max":699,"o":"m 656 493 l 374 978 l 92 493 l 49 493 l 353 1014 l 394 1014 l 699 493 l 656 493 z "},"†":{"ha":708,"x_min":65,"x_max":643,"o":"m 643 593 l 374 593 l 374 -139 l 335 -139 l 335 593 l 65 593 l 65 626 l 335 626 l 335 917 l 374 917 l 374 626 l 643 626 l 643 593 z "},"‡":{"ha":708,"x_min":65,"x_max":643,"o":"m 374 593 l 374 185 l 643 185 l 643 151 l 374 151 l 374 -139 l 335 -139 l 335 151 l 65 151 l 65 185 l 335 185 l 335 593 l 65 593 l 65 626 l 335 626 l 335 917 l 374 917 l 374 626 l 643 626 l 643 593 l 374 593 z "},"":{"ha":1569,"x_min":32,"x_max":1524,"o":"m 1514 418 l 1439 390 l 1504 357 l 1431 329 l 1489 289 l 1404 275 l 1457 228 l 1365 224 l 1414 179 l 1329 174 q 1290 153 1310 161 l 1290 40 q 1250 0 1290 0 l 1186 0 q 1146 32 1146 0 q 1186 67 1146 67 l 1201 67 l 1201 121 q 1110 107 1163 111 l 1110 40 q 1069 0 1110 0 l 1006 0 q 965 32 965 0 q 1006 67 965 67 l 1021 67 l 1021 104 l 707 104 l 707 40 q 667 0 707 0 l 603 0 q 561 32 561 0 q 572 58 561 49 q 603 67 583 67 l 619 67 l 619 104 l 497 104 l 497 40 q 456 0 497 0 l 394 0 q 351 32 351 0 q 394 67 351 67 l 408 67 l 408 118 q 217 156 308 122 q 74 244 125 190 q 44 258 56 246 q 32 288 32 269 q 44 318 32 306 q 75 331 57 331 l 79 331 q 182 440 136 365 q 228 581 228 515 l 219 663 l 275 638 l 265 718 l 322 686 l 322 765 l 382 721 l 382 799 l 442 760 l 446 840 l 504 792 l 514 874 l 572 821 l 581 897 l 642 846 l 663 925 l 713 867 l 731 940 l 783 881 l 807 953 l 851 889 l 885 958 l 929 896 l 972 972 l 1010 890 l 1063 958 l 1090 878 l 1150 951 l 1164 863 l 1243 926 l 1232 836 l 1321 883 l 1290 800 l 1378 822 l 1342 757 l 1431 763 l 1381 707 l 1478 707 l 1411 639 l 1510 639 l 1440 585 l 1518 567 l 1443 521 l 1524 494 l 1446 460 l 1514 418 m 464 356 q 517 385 497 363 q 536 439 536 408 q 513 499 536 476 q 456 522 489 522 q 392 496 418 522 l 403 474 q 454 496 426 496 q 500 464 488 496 q 506 436 506 451 q 451 374 506 390 l 464 356 m 294 344 q 345 364 326 344 q 365 418 364 383 l 340 418 q 328 388 340 399 q 294 376 315 376 q 260 388 272 376 q 247 418 247 399 l 222 418 q 242 365 222 385 q 294 344 263 344 z "},"̦":{"ha":0,"x_min":-453,"x_max":-343,"o":"m -422 -321 l -453 -321 l -385 -97 l -343 -97 l -422 -321 z "},"ˉ":{"ha":751,"x_min":168,"x_max":583,"o":"m 583 838 l 168 838 l 168 871 l 583 871 l 583 838 z "},"´":{"ha":751,"x_min":388,"x_max":546,"o":"m 546 1019 l 421 810 l 388 810 l 503 1019 l 546 1019 z "},"˘":{"ha":751,"x_min":178,"x_max":528,"o":"m 528 981 q 481 853 528 900 q 353 806 435 806 q 225 853 272 806 q 178 981 178 900 l 211 981 q 250 877 211 917 q 353 838 289 838 q 456 877 418 838 q 494 981 494 917 l 528 981 z "},"ˇ":{"ha":751,"x_min":174,"x_max":521,"o":"m 369 810 l 325 810 l 174 1014 l 213 1014 l 347 839 l 482 1014 l 521 1014 l 369 810 z "},"¸":{"ha":751,"x_min":261,"x_max":526,"o":"m 374 11 q 491 -68 456 -26 q 526 -161 526 -110 q 490 -249 526 -215 q 396 -283 454 -283 q 319 -271 351 -283 q 261 -228 286 -258 l 278 -200 q 329 -242 301 -229 q 393 -254 357 -254 q 463 -228 436 -254 q 490 -160 490 -203 q 458 -78 490 -114 q 339 4 426 -42 l 374 11 z "},"ˆ":{"ha":751,"x_min":203,"x_max":549,"o":"m 511 808 l 375 982 l 240 808 l 203 808 l 353 1011 l 397 1011 l 549 808 l 511 808 z "},"¨":{"ha":751,"x_min":207,"x_max":544,"o":"m 247 906 q 276 895 265 906 q 288 867 288 885 q 276 838 288 849 q 247 826 265 826 q 218 838 229 826 q 207 867 207 849 q 218 895 207 885 q 247 906 229 906 m 506 906 q 534 895 524 906 q 544 867 544 885 q 534 838 544 849 q 506 826 524 826 q 476 838 488 826 q 465 867 465 849 q 476 895 465 885 q 506 906 488 906 z "},"˙":{"ha":751,"x_min":335,"x_max":415,"o":"m 375 911 q 404 900 393 911 q 415 871 415 889 q 405 842 415 853 q 375 831 394 831 q 346 842 357 831 q 335 871 335 853 q 346 900 335 889 q 375 911 357 911 z "},"`":{"ha":751,"x_min":206,"x_max":364,"o":"m 364 810 l 331 810 l 206 1019 l 249 1019 l 364 810 z "},"˝":{"ha":751,"x_min":207,"x_max":560,"o":"m 242 810 l 207 810 l 324 1019 l 367 1019 l 242 810 m 435 810 l 401 810 l 517 1019 l 560 1019 l 435 810 z "},"¯":{"ha":751,"x_min":168,"x_max":583,"o":"m 583 838 l 168 838 l 168 871 l 583 871 l 583 838 z "},"˛":{"ha":751,"x_min":250,"x_max":489,"o":"m 478 14 q 328 -74 371 -32 q 285 -167 285 -117 q 312 -231 285 -208 q 383 -253 339 -253 q 478 -228 446 -253 l 489 -256 q 381 -283 446 -283 q 287 -253 324 -283 q 250 -171 250 -224 q 294 -67 250 -111 q 440 19 338 -22 l 478 14 z "},"˚":{"ha":751,"x_min":224,"x_max":474,"o":"m 349 1040 q 438 1006 403 1040 q 474 919 474 972 q 438 833 474 867 q 349 799 403 799 q 259 833 294 799 q 224 919 224 867 q 259 1006 224 972 q 349 1040 294 1040 m 349 1013 q 283 986 310 1013 q 256 919 256 960 q 283 854 256 881 q 349 828 310 828 q 415 854 388 828 q 442 919 442 881 q 415 986 442 960 q 349 1013 389 1013 z "},"˜":{"ha":751,"x_min":124,"x_max":575,"o":"m 575 957 q 534 860 564 892 q 450 828 504 828 q 389 841 413 828 q 339 879 365 854 q 295 913 314 901 q 249 924 276 924 q 188 901 207 924 q 157 826 168 878 l 124 826 q 165 924 135 893 q 250 956 194 956 q 311 942 288 956 q 361 904 335 929 q 403 872 383 883 q 450 861 422 861 q 512 884 492 861 q 542 957 532 907 l 575 957 z "}}}
